<svg width="208" height="71" viewBox="0 0 208 71" fill="none" xmlns="http://www.w3.org/2000/svg">
<g filter="url(#filter0_d_54_371)">
<path d="M94.8933 55.744L93.7986 53.2876H93.7548L92.6599 55.744H94.8933ZM12.4426 47.3498C12.9961 48.8458 12.1953 50.6402 10.4951 51.0845C7.41736 51.8891 4.51076 52.8086 3.47511 56.1727C2.21553 60.2646 4.75223 64.8585 8.87496 65.9796C13.9589 67.3619 17.0418 63.5609 18.1395 59.056C18.5672 57.3002 20.4216 56.4821 21.9373 57.0833L33.6401 69.0804C35.3655 66.0274 37.4251 63.23 37.9113 59.6002C38.5874 54.5548 33.7917 48.951 28.9467 46.7404C26.5654 45.6538 24.1858 43.7724 24.2585 41.6112C24.3466 38.9984 27.3479 37.3268 32.5688 37.3676C36.1807 37.396 44.0685 39.4576 47.4548 40.4957C49.0164 40.9746 56.3196 43.2113 61.7675 43.3499L66.9413 38.2865C65.329 36.7842 61.9441 35.7066 58.1455 35.0376C51.7225 33.9067 43.8269 33.6313 39.5272 32.5164C34.399 31.187 34.774 28.1419 40.3305 26.3939C45.0075 24.9226 45.9738 23.1708 44.683 22.1432C43.294 21.0373 39.7731 21.1249 38.7334 22.8399C38.078 23.9208 35.0324 24.5777 31.7138 24.7368C31.24 27.7639 28.9914 30.4643 25.9104 31.2274C20.7966 32.4945 17.8 28.6246 16.8043 24.0959C16.3779 22.1564 14.2048 21.3141 12.6102 22.2531L0 34.5944L12.4426 47.3498ZM46.0052 58.7764L47.2813 57.5275C48.8474 56.7933 50.8381 57.6438 51.2446 59.4911C52.2401 64.0197 55.2368 67.8897 60.3505 66.6228C64.497 65.5954 67.1372 61.0603 65.97 56.9407C65.0107 53.5539 62.1258 52.5691 59.0667 51.6951C57.3057 51.1918 56.5583 49.2463 57.2893 47.7327L59.8377 45.2386C55.9493 44.8412 52.4354 43.798 51.3849 43.4759C48.467 42.5814 29.6562 36.5573 29.5014 41.1583C29.4285 43.3195 32.5795 45.2222 34.9609 46.3086C39.2787 48.2785 44.1395 53.2369 46.0052 58.7764ZM69.0042 36.2674L69.8847 35.4058L58.096 23.3205C56.5404 21.7258 57.3419 19.0389 59.5163 18.5608C64.038 17.566 67.9031 14.567 66.6414 9.44401C65.6178 5.28988 61.0917 2.64279 56.9785 3.80919C53.5969 4.76827 52.6118 7.65762 51.7375 10.7209C51.139 12.8179 48.5035 13.4869 46.9821 11.9271L46.1235 11.0467C43.562 11.6649 39.8207 12.672 36.3023 13.8256C35.4035 14.1203 34.5465 14.4335 33.9108 14.6509C29.2019 16.2622 34.9999 16.6222 34.6307 18.2095C34.3464 19.4323 32.8399 20.0642 31.1447 20.5106C31.295 20.8286 31.424 21.1724 31.5298 21.5456C31.7561 22.3443 31.8387 23.1585 31.7955 23.9598C34.3713 23.6582 36.941 22.8475 37.6348 21.7034C38.2752 20.6469 41.0713 20.2719 43.4957 20.4978C47.4692 20.8681 51.1029 24.9236 44.9543 26.2388C42.265 26.8141 40.6336 27.6939 40.008 28.588C38.5888 30.6168 42.8834 31.5716 44.0773 31.881C48.377 32.9957 56.2726 33.2713 62.6954 34.4022C64.3855 34.6997 66.9216 35.3179 69.0042 36.2674ZM45.9903 10.9102L35.3475 0L22.9599 12.1237C22.0449 13.6616 22.782 15.7726 24.6264 16.2999C26.9041 16.9507 29.0849 17.6632 30.4464 19.3823C31.1551 19.0167 31.6577 18.5573 31.7984 17.9527C32.1244 16.5513 29.2247 16.741 30.3287 15.5387C31.8709 13.8593 40.9725 11.8373 45.9903 10.9102ZM108.699 17.7981H111.168L116.91 32.1187H102.785L108.699 17.7981ZM104.22 11.4143L90.3828 43.2185H98.0769L100.144 38.3876H119.723L121.79 43.2185H129.369L115.876 11.4143H104.22ZM136.075 11.4143V43.2185H143.252V17.9131H165.357V11.4143H136.075ZM150.429 24.412V43.2185H157.606V30.9108H165.357V24.412H150.429ZM174.043 11.4143V43.2185H181.047L199.88 21.2489V43.2185H207V11.4143H200.053L181.162 33.4989V11.4143H174.043ZM95.3313 56.7091H92.222L91.5213 58.2443H90.3828L93.3168 51.8401H94.2365L97.1704 58.2443H96.0319L95.3313 56.7091ZM99.0492 54.8931C98.7601 55.1738 98.6155 55.5306 98.6155 55.9634C98.6155 56.3962 98.7601 56.7529 99.0492 57.0336C99.3382 57.3143 99.7046 57.4547 100.148 57.4547C100.394 57.4547 100.623 57.4109 100.836 57.3231C101.049 57.2354 101.199 57.1478 101.287 57.0599L101.418 56.9284H101.593V57.8496C101.582 57.8613 101.561 57.8802 101.532 57.9066C101.503 57.9329 101.439 57.9753 101.339 58.0336C101.24 58.0922 101.135 58.1449 101.024 58.1916C100.913 58.2385 100.767 58.2808 100.586 58.3189C100.405 58.3569 100.215 58.3759 100.017 58.3759C99.3396 58.3759 98.7689 58.1434 98.3047 57.6784C97.8405 57.2136 97.6083 56.6418 97.6083 55.9634C97.6083 55.2849 97.8405 54.7133 98.3047 54.2483C98.7689 53.7833 99.3396 53.5508 100.017 53.5508C100.367 53.5508 100.688 53.599 100.98 53.6956C101.272 53.7921 101.477 53.8871 101.593 53.9806L101.768 54.121L101.374 54.8667C101.339 54.8374 101.291 54.8009 101.23 54.757C101.169 54.7133 101.031 54.6547 100.818 54.5817C100.605 54.5085 100.382 54.472 100.148 54.472C99.7046 54.472 99.3382 54.6124 99.0492 54.8931ZM103.822 54.8931C103.533 55.1738 103.389 55.5306 103.389 55.9634C103.389 56.3962 103.533 56.7529 103.822 57.0336C104.111 57.3143 104.478 57.4547 104.922 57.4547C105.167 57.4547 105.396 57.4109 105.609 57.3231C105.822 57.2354 105.972 57.1478 106.06 57.0599L106.192 56.9284H106.367V57.8496C106.355 57.8613 106.335 57.8802 106.305 57.9066C106.276 57.9329 106.212 57.9753 106.113 58.0336C106.013 58.0922 105.908 58.1449 105.797 58.1916C105.686 58.2385 105.54 58.2808 105.36 58.3189C105.178 58.3569 104.989 58.3759 104.79 58.3759C104.113 58.3759 103.542 58.1434 103.078 57.6784C102.614 57.2136 102.382 56.6418 102.382 55.9634C102.382 55.2849 102.614 54.7133 103.078 54.2483C103.542 53.7833 104.113 53.5508 104.79 53.5508C105.14 53.5508 105.462 53.599 105.754 53.6956C106.046 53.7921 106.25 53.8871 106.367 53.9806L106.542 54.121L106.148 54.8667C106.113 54.8374 106.064 54.8009 106.003 54.757C105.942 54.7133 105.805 54.6547 105.592 54.5817C105.378 54.5085 105.155 54.472 104.922 54.472C104.478 54.472 104.111 54.6124 103.822 54.8931ZM108.613 54.8886C108.342 55.1666 108.206 55.5248 108.206 55.9634C108.206 56.4021 108.342 56.7603 108.613 57.0381C108.885 57.3158 109.231 57.4547 109.651 57.4547C110.071 57.4547 110.417 57.3158 110.689 57.0381C110.96 56.7603 111.096 56.4021 111.096 55.9634C111.096 55.5248 110.96 55.1666 110.689 54.8886C110.417 54.6108 110.071 54.472 109.651 54.472C109.231 54.472 108.885 54.6108 108.613 54.8886ZM111.438 54.2438C111.911 54.7059 112.147 55.279 112.147 55.9634C112.147 56.6476 111.911 57.2208 111.438 57.6829C110.965 58.1449 110.369 58.3759 109.651 58.3759C108.933 58.3759 108.337 58.1449 107.864 57.6829C107.391 57.2208 107.155 56.6476 107.155 55.9634C107.155 55.279 107.391 54.7059 107.864 54.2438C108.337 53.7819 108.933 53.5508 109.651 53.5508C110.369 53.5508 110.965 53.7819 111.438 54.2438ZM117.14 58.2443H113.242V53.6824H114.249V57.3231H116.439V53.6824H117.446V57.3231H118.147V59.4726H117.14V58.2443ZM122.395 55.0862L119.942 58.2443H118.979V53.6824H119.986V56.8407L122.438 53.6824H123.402V58.2443H122.395V55.0862ZM126.336 57.4986C126.534 57.4986 126.713 57.465 126.87 57.3977C127.028 57.3305 127.15 57.2501 127.238 57.1564C127.326 57.0629 127.399 56.9694 127.457 56.8757C127.515 56.7822 127.556 56.7004 127.58 56.6301L127.606 56.5336C127.583 56.5102 127.543 56.4809 127.488 56.4458C127.432 56.4108 127.307 56.3654 127.111 56.3099C126.915 56.2543 126.701 56.2266 126.467 56.2266C126.21 56.2266 126.007 56.2865 125.859 56.4064C125.71 56.5262 125.635 56.6857 125.635 56.8844C125.635 57.0834 125.697 57.2354 125.819 57.3406C125.942 57.4458 126.114 57.4986 126.336 57.4986ZM126.642 53.5508C127.273 53.5508 127.759 53.7146 128.101 54.0421C128.442 54.3697 128.613 54.8199 128.613 55.3932V58.2443H127.65L127.606 57.5425H127.562C127.556 57.5659 127.543 57.5966 127.523 57.6346C127.502 57.6725 127.454 57.7383 127.378 57.832C127.302 57.9255 127.216 58.0089 127.12 58.0821C127.023 58.1551 126.885 58.2224 126.704 58.2837C126.523 58.3452 126.327 58.3759 126.117 58.3759C125.667 58.3759 125.299 58.2443 125.013 57.9811C124.727 57.718 124.584 57.3904 124.584 56.9986C124.584 56.56 124.735 56.2045 125.035 55.9326C125.336 55.6607 125.755 55.5248 126.292 55.5248C126.537 55.5248 126.769 55.5509 126.988 55.6037C127.207 55.6564 127.364 55.7059 127.457 55.7528L127.606 55.8319V55.4369C127.606 55.1269 127.511 54.8886 127.321 54.7221C127.131 54.5554 126.861 54.472 126.511 54.472C126.213 54.472 125.926 54.5275 125.648 54.6387C125.371 54.7498 125.168 54.8579 125.04 54.9632L124.847 55.1298H124.716V54.2088C124.774 54.162 124.856 54.1021 124.961 54.0289C125.066 53.9559 125.286 53.8579 125.622 53.7351C125.958 53.6123 126.298 53.5508 126.642 53.5508ZM133.781 58.2443H129.883V53.6824H130.89V57.3231H133.08V53.6824H134.087V57.3231H134.788V59.4726H133.781V58.2443ZM139.036 55.0862L136.583 58.2443H135.62V53.6824H136.627V56.8407L139.08 53.6824H140.043V58.2443H139.036V55.0862ZM142.276 56.5774C142.247 56.5715 142.211 56.56 142.167 56.5424C142.123 56.5249 142.043 56.4809 141.926 56.4109C141.809 56.3406 141.707 56.2602 141.62 56.1696C141.532 56.0788 141.452 55.9488 141.379 55.7792C141.306 55.6095 141.269 55.4223 141.269 55.2177C141.269 54.7673 141.425 54.3988 141.738 54.1122C142.05 53.8257 142.469 53.6824 142.995 53.6824H145.167V58.2443H144.159V56.7091H143.371L142.022 58.2443H140.787L142.276 56.6213V56.5774ZM144.159 54.5597H143.108C142.869 54.5597 142.678 54.6196 142.535 54.7394C142.392 54.8595 142.32 55.0188 142.32 55.2177C142.32 55.4164 142.392 55.5759 142.535 55.6958C142.678 55.8156 142.869 55.8756 143.108 55.8756H144.159V54.5597ZM152.13 54.6036H149.809V58.2443H148.801V53.6824H152.13V54.6036ZM154.845 53.5508C155.528 53.5508 156.071 53.7569 156.474 54.1692C156.877 54.5817 157.078 55.1445 157.078 55.858V56.1827H153.443C153.49 56.5571 153.649 56.8626 153.921 57.0994C154.192 57.3364 154.559 57.4547 155.02 57.4547C155.224 57.4547 155.42 57.4357 155.607 57.3977C155.793 57.3598 155.947 57.3129 156.066 57.2573C156.186 57.2018 156.291 57.1448 156.382 57.0863C156.472 57.0277 156.538 56.9811 156.579 56.9459L156.64 56.8844H156.772V57.8496C156.754 57.8613 156.728 57.8802 156.693 57.9066C156.658 57.9329 156.58 57.9753 156.46 58.0336C156.341 58.0922 156.215 58.1449 156.084 58.1916C155.953 58.2385 155.78 58.2808 155.567 58.3189C155.354 58.3569 155.134 58.3759 154.906 58.3759C154.199 58.3759 153.618 58.1492 153.163 57.6959C152.708 57.2427 152.48 56.6652 152.48 55.9634C152.48 55.2849 152.709 54.7133 153.167 54.2483C153.626 53.7833 154.185 53.5508 154.845 53.5508ZM154.888 54.472C154.526 54.472 154.227 54.5612 153.991 54.7394C153.754 54.9178 153.586 55.1357 153.487 55.3932H156.115C156.068 55.1299 155.939 54.9106 155.729 54.7352C155.519 54.5597 155.239 54.472 154.888 54.472ZM159.412 54.8886C159.14 55.1666 159.005 55.5248 159.005 55.9634C159.005 56.4021 159.14 56.7603 159.412 57.0381C159.684 57.3158 160.03 57.4547 160.45 57.4547C160.87 57.4547 161.216 57.3158 161.488 57.0381C161.759 56.7603 161.895 56.4021 161.895 55.9634C161.895 55.5248 161.759 55.1666 161.488 54.8886C161.216 54.6108 160.87 54.472 160.45 54.472C160.03 54.472 159.684 54.6108 159.412 54.8886ZM162.237 54.2438C162.709 54.7059 162.946 55.279 162.946 55.9634C162.946 56.6476 162.709 57.2208 162.237 57.6829C161.764 58.1449 161.168 58.3759 160.45 58.3759C159.732 58.3759 159.136 58.1449 158.663 57.6829C158.19 57.2208 157.954 56.6476 157.954 55.9634C157.954 55.279 158.19 54.7059 158.663 54.2438C159.136 53.7819 159.732 53.5508 160.45 53.5508C161.168 53.5508 161.764 53.7819 162.237 54.2438ZM165.442 54.6036L165.311 56.2266C165.258 56.905 165.092 57.4094 164.812 57.7399C164.531 58.0704 164.128 58.2824 163.603 58.3759L163.384 57.4109C163.641 57.3641 163.841 57.2544 163.984 57.0818C164.127 56.9094 164.219 56.6242 164.26 56.2266L164.523 53.6824H168.026V58.2443H167.019V54.6036H165.442ZM170.579 54.8886C170.307 55.1666 170.172 55.5248 170.172 55.9634C170.172 56.4021 170.307 56.7603 170.579 57.0381C170.851 57.3158 171.197 57.4547 171.617 57.4547C172.037 57.4547 172.383 57.3158 172.655 57.0381C172.926 56.7603 173.062 56.4021 173.062 55.9634C173.062 55.5248 172.926 55.1666 172.655 54.8886C172.383 54.6108 172.037 54.472 171.617 54.472C171.197 54.472 170.851 54.6108 170.579 54.8886ZM173.404 54.2438C173.877 54.7059 174.113 55.279 174.113 55.9634C174.113 56.6476 173.877 57.2208 173.404 57.6829C172.931 58.1449 172.335 58.3759 171.617 58.3759C170.899 58.3759 170.303 58.1449 169.83 57.6829C169.357 57.2208 169.121 56.6476 169.121 55.9634C169.121 55.279 169.357 54.7059 169.83 54.2438C170.303 53.7819 170.899 53.5508 171.617 53.5508C172.335 53.5508 172.931 53.7819 173.404 54.2438ZM178.536 54.6036H176.215V58.2443H175.208V53.6824H178.536V54.6036ZM180.345 54.8886C180.073 55.1666 179.937 55.5248 179.937 55.9634C179.937 56.4021 180.073 56.7603 180.345 57.0381C180.616 57.3158 180.962 57.4547 181.383 57.4547C181.803 57.4547 182.149 57.3158 182.42 57.0381C182.692 56.7603 182.828 56.4021 182.828 55.9634C182.828 55.5248 182.692 55.1666 182.42 54.8886C182.149 54.6108 181.803 54.472 181.383 54.472C180.962 54.472 180.616 54.6108 180.345 54.8886ZM183.169 54.2438C183.642 54.7059 183.879 55.279 183.879 55.9634C183.879 56.6476 183.642 57.2208 183.169 57.6829C182.696 58.1449 182.101 58.3759 181.383 58.3759C180.664 58.3759 180.069 58.1449 179.596 57.6829C179.123 57.2208 178.886 56.6476 178.886 55.9634C178.886 55.279 179.123 54.7059 179.596 54.2438C180.069 53.7819 180.664 53.5508 181.383 53.5508C182.101 53.5508 182.696 53.7819 183.169 54.2438ZM184.973 58.2443V53.6824H187.076C187.624 53.6824 188.039 53.795 188.319 54.0201C188.6 54.2453 188.74 54.5421 188.74 54.9106C188.74 55.051 188.718 55.1767 188.674 55.2878C188.63 55.3989 188.576 55.4838 188.512 55.5422C188.448 55.6007 188.382 55.6505 188.315 55.6913C188.248 55.7323 188.194 55.7586 188.153 55.7704L188.083 55.7879V55.8319C188.106 55.8375 188.138 55.8463 188.179 55.858C188.22 55.8697 188.294 55.9019 188.403 55.9546C188.51 56.0071 188.604 56.07 188.683 56.1432C188.762 56.2162 188.835 56.323 188.902 56.4634C188.969 56.6037 189.002 56.7587 189.002 56.9284C189.002 57.3143 188.858 57.6302 188.569 57.8759C188.28 58.1215 187.87 58.2443 187.338 58.2443H184.973ZM187.82 57.2222C187.937 57.1257 187.995 56.9986 187.995 56.8407C187.995 56.6828 187.937 56.5555 187.82 56.4591C187.703 56.3625 187.528 56.3142 187.295 56.3142H185.981V57.367H187.295C187.528 57.367 187.703 57.3188 187.82 57.2222ZM187.032 54.5597H185.981V55.4369H187.032C187.47 55.4369 187.689 55.2907 187.689 54.9983C187.689 54.7059 187.47 54.5597 187.032 54.5597ZM189.659 57.7617C189.659 57.5921 189.715 57.4547 189.826 57.3494C189.937 57.2442 190.071 57.1915 190.228 57.1915C190.392 57.1915 190.528 57.2471 190.636 57.3582C190.744 57.4693 190.798 57.6184 190.798 57.8056C190.798 57.9928 190.774 58.1769 190.728 58.3583C190.681 58.5396 190.623 58.6917 190.553 58.8145C190.482 58.9373 190.412 59.047 190.342 59.1435C190.272 59.2401 190.214 59.3117 190.167 59.3584L190.097 59.4286H189.703C190.024 59.0193 190.185 58.6537 190.185 58.332C189.834 58.2794 189.659 58.0893 189.659 57.7617ZM94.3679 64.4292H92.0469V68.0699H91.0396V63.508H94.3679V64.4292ZM97.0829 63.3764C97.766 63.3764 98.309 63.5826 98.712 63.9949C99.1149 64.4074 99.3162 64.9702 99.3162 65.6837V66.0083H95.6815C95.7282 66.3827 95.8873 66.6882 96.1589 66.925C96.4304 67.162 96.7968 67.2803 97.2581 67.2803C97.4624 67.2803 97.658 67.2613 97.8449 67.2233C98.0316 67.1854 98.185 67.1386 98.3047 67.0829C98.4244 67.0275 98.5294 66.9705 98.62 66.9119C98.7105 66.8534 98.7761 66.8067 98.8171 66.7716L98.8783 66.7101H99.0098V67.6752C98.9923 67.6869 98.966 67.7059 98.9309 67.7322C98.8958 67.7586 98.8184 67.8009 98.6988 67.8593C98.5791 67.9179 98.4536 67.9706 98.3222 68.0173C98.1909 68.0641 98.0186 68.1065 97.8054 68.1445C97.5924 68.1826 97.3719 68.2015 97.1441 68.2015C96.4376 68.2015 95.8567 67.9749 95.4012 67.5216C94.9457 67.0683 94.7181 66.4909 94.7181 65.7891C94.7181 65.1105 94.9473 64.5389 95.4057 64.074C95.8641 63.609 96.423 63.3764 97.0829 63.3764ZM97.1266 64.2976C96.7647 64.2976 96.4655 64.3868 96.2289 64.5651C95.9925 64.7435 95.8245 64.9614 95.7253 65.2188H98.3528C98.3061 64.9555 98.1776 64.7363 97.9675 64.5608C97.7572 64.3853 97.477 64.2976 97.1266 64.2976ZM101.65 64.7142C101.379 64.9922 101.243 65.3504 101.243 65.7891C101.243 66.2277 101.379 66.5859 101.65 66.8637C101.922 67.1415 102.268 67.2803 102.688 67.2803C103.109 67.2803 103.454 67.1415 103.726 66.8637C103.997 66.5859 104.133 66.2277 104.133 65.7891C104.133 65.3504 103.997 64.9922 103.726 64.7142C103.454 64.4364 103.109 64.2976 102.688 64.2976C102.268 64.2976 101.922 64.4364 101.65 64.7142ZM104.475 64.0695C104.948 64.5315 105.184 65.1047 105.184 65.7891C105.184 66.4733 104.948 67.0464 104.475 67.5085C104.002 67.9706 103.406 68.2015 102.688 68.2015C101.97 68.2015 101.374 67.9706 100.901 67.5085C100.428 67.0464 100.192 66.4733 100.192 65.7891C100.192 65.1047 100.428 64.5315 100.901 64.0695C101.374 63.6076 101.97 63.3764 102.688 63.3764C103.406 63.3764 104.002 63.6076 104.475 64.0695ZM108.6 67.2803V64.2976C108.162 64.3211 107.805 64.4716 107.527 64.7494C107.25 65.0272 107.111 65.3737 107.111 65.7891C107.111 66.2043 107.25 66.5508 107.527 66.8286C107.805 67.1064 108.162 67.2571 108.6 67.2803ZM109.607 68.2015V70H108.6V68.2015C107.841 68.1605 107.228 67.9149 106.761 67.4646C106.294 67.0142 106.06 66.4557 106.06 65.7891C106.06 65.1222 106.294 64.5637 106.761 64.1134C107.228 63.663 107.841 63.4174 108.6 63.3764V61.4026H109.607V63.3764C110.366 63.4174 110.979 63.663 111.447 64.1134C111.914 64.5637 112.147 65.1222 112.147 65.7891C112.147 66.4557 111.914 67.0142 111.447 67.4646C110.979 67.9149 110.366 68.1605 109.607 68.2015ZM109.607 64.2976V67.2803C110.045 67.2571 110.403 67.1064 110.68 66.8286C110.958 66.5508 111.096 66.2043 111.096 65.7891C111.096 65.3737 110.958 65.0272 110.68 64.7494C110.403 64.4716 110.045 64.3211 109.607 64.2976ZM116.658 64.9118L114.205 68.0699H113.242V63.508H114.249V66.6664L116.702 63.508H117.665V68.0699H116.658V64.9118ZM120.424 66.1399H119.898V65.3065H120.336C120.92 65.3065 121.212 65.131 121.212 64.7802C121.212 64.4292 120.92 64.2537 120.336 64.2537C120.091 64.2537 119.855 64.2976 119.627 64.3853C119.399 64.4731 119.233 64.5608 119.128 64.6485L118.979 64.7802H118.847V63.859C118.888 63.8238 118.95 63.78 119.031 63.7274C119.113 63.6747 119.291 63.6031 119.566 63.5125C119.84 63.4217 120.126 63.3764 120.424 63.3764C121.014 63.3764 121.46 63.4979 121.764 63.7405C122.068 63.9832 122.219 64.3006 122.219 64.6924C122.219 64.8386 122.192 64.9717 122.136 65.0916C122.081 65.2114 122.015 65.305 121.939 65.3723C121.863 65.4395 121.787 65.4967 121.711 65.5433C121.635 65.5902 121.568 65.6194 121.51 65.6312L121.431 65.6575V65.7012C121.455 65.7071 121.487 65.7159 121.527 65.7276C121.568 65.7393 121.643 65.7715 121.751 65.824C121.859 65.8767 121.952 65.9396 122.031 66.0128C122.11 66.0858 122.183 66.1926 122.25 66.3329C122.317 66.4733 122.351 66.6283 122.351 66.7979C122.351 67.2307 122.189 67.5727 121.865 67.8244C121.541 68.0758 121.06 68.2015 120.424 68.2015C120.097 68.2015 119.785 68.1503 119.487 68.0481C119.189 67.9456 118.97 67.8419 118.83 67.7365L118.629 67.5874L118.891 66.7979C118.938 66.8387 119.007 66.8885 119.097 66.9471C119.188 67.0055 119.367 67.083 119.636 67.1796C119.904 67.276 120.167 67.3242 120.424 67.3242C121.037 67.3242 121.343 67.1196 121.343 66.7101C121.343 66.33 121.037 66.1399 120.424 66.1399ZM126.861 64.9118L124.409 68.0699H123.445V63.508H124.453V66.6664L126.905 63.508H127.868V68.0699H126.861V64.9118ZM132.335 68.0699L130.19 65.8328V68.0699H129.182V63.508H130.19V65.7012L132.291 63.508H133.474L131.284 65.7452L133.605 68.0699H132.335ZM135.239 64.7142C134.967 64.9922 134.832 65.3504 134.832 65.7891C134.832 66.2277 134.967 66.5859 135.239 66.8637C135.51 67.1415 135.856 67.2803 136.277 67.2803C136.697 67.2803 137.043 67.1415 137.314 66.8637C137.586 66.5859 137.722 66.2277 137.722 65.7891C137.722 65.3504 137.586 64.9922 137.314 64.7142C137.043 64.4364 136.697 64.2976 136.277 64.2976C135.856 64.2976 135.51 64.4364 135.239 64.7142ZM138.063 64.0695C138.536 64.5315 138.773 65.1047 138.773 65.7891C138.773 66.4733 138.536 67.0464 138.063 67.5085C137.59 67.9706 136.995 68.2015 136.277 68.2015C135.558 68.2015 134.963 67.9706 134.49 67.5085C134.017 67.0464 133.78 66.4733 133.78 65.7891C133.78 65.1047 134.017 64.5315 134.49 64.0695C134.963 63.6076 135.558 63.3764 136.277 63.3764C136.995 63.3764 137.59 63.6076 138.063 64.0695ZM139.867 68.0699V63.508H141.97C142.518 63.508 142.933 63.6206 143.213 63.8457C143.494 64.071 143.634 64.3677 143.634 64.7363C143.634 64.8767 143.612 65.0024 143.568 65.1135C143.524 65.2245 143.47 65.3094 143.406 65.3678C143.342 65.4264 143.276 65.4762 143.209 65.517C143.142 65.558 143.088 65.5843 143.047 65.596L142.977 65.6136V65.6575C143 65.6632 143.032 65.6719 143.073 65.6837C143.114 65.6954 143.188 65.7276 143.297 65.7803C143.405 65.8328 143.498 65.8956 143.577 65.9688C143.656 66.0419 143.729 66.1487 143.796 66.289C143.863 66.4294 143.896 66.5844 143.896 66.754C143.896 67.1399 143.752 67.4558 143.463 67.7016C143.174 67.9471 142.764 68.0699 142.232 68.0699H139.867ZM142.714 67.0478C142.831 66.9514 142.889 66.8243 142.889 66.6664C142.889 66.5084 142.831 66.3812 142.714 66.2847C142.597 66.1881 142.422 66.1399 142.189 66.1399H140.875V67.1927H142.189C142.422 67.1927 142.597 67.1445 142.714 67.0478ZM141.926 64.3853H140.875V65.2626H141.926C142.364 65.2626 142.583 65.1164 142.583 64.824C142.583 64.5315 142.364 64.3853 141.926 64.3853ZM150.64 64.9118L148.188 68.0699H147.224V63.508H148.232V66.6664L150.684 63.508H151.647V68.0699H150.64V64.9118ZM158.698 64.9118L156.246 68.0699H155.282V63.508H156.29V66.6664L158.742 63.508H159.705V68.0699H158.698V64.9118ZM164.347 66.2277H162.026V68.0699H161.019V63.508H162.026V65.3065H164.347V63.508H165.355V68.0699H164.347V66.2277ZM172.142 68.0699L170.171 65.8767V68.0699H169.164V65.8767L167.194 68.0699H165.924L168.07 65.7452L166.055 63.508H167.238L169.164 65.7012V63.508H170.171V65.7012L172.098 63.508H173.281L171.266 65.7452L173.412 68.0699H172.142ZM175.952 63.3764C176.635 63.3764 177.178 63.5826 177.581 63.9949C177.984 64.4074 178.185 64.9702 178.185 65.6837V66.0083H174.551C174.597 66.3827 174.756 66.6882 175.028 66.925C175.3 67.162 175.666 67.2803 176.127 67.2803C176.332 67.2803 176.527 67.2613 176.714 67.2233C176.901 67.1854 177.054 67.1386 177.174 67.0829C177.294 67.0275 177.399 66.9705 177.489 66.9119C177.58 66.8534 177.645 66.8067 177.686 66.7716L177.747 66.7101H177.879V67.6752C177.861 67.6869 177.835 67.7059 177.8 67.7322C177.765 67.7586 177.688 67.8009 177.568 67.8593C177.448 67.9179 177.323 67.9706 177.191 68.0173C177.06 68.0641 176.888 68.1065 176.675 68.1445C176.462 68.1826 176.241 68.2015 176.013 68.2015C175.307 68.2015 174.726 67.9749 174.27 67.5216C173.815 67.0683 173.587 66.4909 173.587 65.7891C173.587 65.1105 173.817 64.5389 174.275 64.074C174.733 63.609 175.292 63.3764 175.952 63.3764ZM175.996 64.2976C175.634 64.2976 175.335 64.3868 175.098 64.5651C174.862 64.7435 174.694 64.9614 174.595 65.2188H177.222C177.175 64.9555 177.047 64.7363 176.837 64.5608C176.626 64.3853 176.346 64.2976 175.996 64.2976ZM182.608 66.2277H180.287V68.0699H179.28V63.508H180.287V65.3065H182.608V63.508H183.616V68.0699H182.608V66.2277ZM187.075 63.3764C187.758 63.3764 188.301 63.5826 188.704 63.9949C189.107 64.4074 189.308 64.9702 189.308 65.6837V66.0083H185.674C185.72 66.3827 185.879 66.6882 186.151 66.925C186.423 67.162 186.789 67.2803 187.25 67.2803C187.455 67.2803 187.65 67.2613 187.837 67.2233C188.024 67.1854 188.177 67.1386 188.297 67.0829C188.417 67.0275 188.522 66.9705 188.612 66.9119C188.703 66.8534 188.768 66.8067 188.809 66.7716L188.87 66.7101H189.002V67.6752C188.984 67.6869 188.958 67.7059 188.923 67.7322C188.888 67.7586 188.811 67.8009 188.691 67.8593C188.571 67.9179 188.446 67.9706 188.314 68.0173C188.183 68.0641 188.011 68.1065 187.798 68.1445C187.585 68.1826 187.364 68.2015 187.136 68.2015C186.43 68.2015 185.849 67.9749 185.393 67.5216C184.938 67.0683 184.71 66.4909 184.71 65.7891C184.71 65.1105 184.94 64.5389 185.398 64.074C185.856 63.609 186.415 63.3764 187.075 63.3764ZM187.119 64.2976C186.757 64.2976 186.458 64.3868 186.221 64.5651C185.985 64.7435 185.817 64.9614 185.717 65.2188H188.345C188.298 64.9555 188.17 64.7363 187.96 64.5608C187.749 64.3853 187.469 64.2976 187.119 64.2976ZM191.813 64.7187C191.545 64.9994 191.41 65.3563 191.41 65.7891C191.41 66.2219 191.545 66.5785 191.813 66.8592C192.082 67.14 192.415 67.2803 192.812 67.2803C193.209 67.2803 193.542 67.14 193.81 66.8592C194.079 66.5785 194.213 66.2219 194.213 65.7891C194.213 65.3563 194.079 64.9994 193.81 64.7187C193.542 64.438 193.209 64.2976 192.812 64.2976C192.415 64.2976 192.082 64.438 191.813 64.7187ZM194.612 64.0651C195.047 64.5243 195.264 65.0988 195.264 65.7891C195.264 66.4792 195.047 67.0536 194.612 67.5128C194.177 67.9719 193.65 68.2015 193.031 68.2015C192.82 68.2015 192.622 68.1722 192.435 68.1139C192.248 68.0553 192.098 67.9866 191.984 67.9077C191.87 67.8286 191.771 67.7482 191.686 67.6664C191.602 67.5844 191.542 67.5144 191.507 67.4558L191.454 67.3682H191.41V70H190.403V63.508H191.367L191.41 64.2098H191.454C191.466 64.1866 191.483 64.1557 191.507 64.1179C191.53 64.0798 191.588 64.014 191.682 63.9203C191.775 63.8268 191.876 63.7434 191.984 63.6704C192.092 63.5972 192.241 63.5301 192.431 63.4686C192.621 63.4071 192.82 63.3764 193.031 63.3764C193.65 63.3764 194.177 63.606 194.612 64.0651ZM197.598 64.7142C197.327 64.9922 197.191 65.3504 197.191 65.7891C197.191 66.2277 197.327 66.5859 197.598 66.8637C197.87 67.1415 198.216 67.2803 198.636 67.2803C199.056 67.2803 199.402 67.1415 199.674 66.8637C199.945 66.5859 200.081 66.2277 200.081 65.7891C200.081 65.3504 199.945 64.9922 199.674 64.7142C199.402 64.4364 199.056 64.2976 198.636 64.2976C198.216 64.2976 197.87 64.4364 197.598 64.7142ZM200.423 64.0695C200.896 64.5315 201.132 65.1047 201.132 65.7891C201.132 66.4733 200.896 67.0464 200.423 67.5085C199.95 67.9706 199.354 68.2015 198.636 68.2015C197.918 68.2015 197.322 67.9706 196.849 67.5085C196.376 67.0464 196.14 66.4733 196.14 65.7891C196.14 65.1047 196.376 64.5315 196.849 64.0695C197.322 63.6076 197.918 63.3764 198.636 63.3764C199.354 63.3764 199.95 63.6076 200.423 64.0695ZM202.227 68.0699V63.508H204.329C204.878 63.508 205.292 63.6206 205.573 63.8457C205.853 64.071 205.993 64.3677 205.993 64.7363C205.993 64.8767 205.971 65.0024 205.927 65.1135C205.884 65.2245 205.83 65.3094 205.765 65.3678C205.701 65.4264 205.636 65.4762 205.568 65.517C205.501 65.558 205.447 65.5843 205.406 65.596L205.336 65.6136V65.6575C205.36 65.6632 205.392 65.6719 205.433 65.6837C205.473 65.6954 205.548 65.7276 205.656 65.7803C205.764 65.8328 205.857 65.8956 205.936 65.9688C206.015 66.0419 206.088 66.1487 206.155 66.289C206.222 66.4294 206.256 66.5844 206.256 66.754C206.256 67.1399 206.111 67.4558 205.822 67.7016C205.533 67.9471 205.123 68.0699 204.592 68.0699H202.227ZM205.073 67.0478C205.19 66.9514 205.249 66.8243 205.249 66.6664C205.249 66.5084 205.19 66.3812 205.073 66.2847C204.957 66.1881 204.782 66.1399 204.548 66.1399H203.234V67.1927H204.548C204.782 67.1927 204.957 67.1445 205.073 67.0478ZM204.285 64.3853H203.234V65.2626H204.285C204.723 65.2626 204.942 65.1164 204.942 64.824C204.942 64.5315 204.723 64.3853 204.285 64.3853Z" fill="black"/>
</g>
<defs>
<filter id="filter0_d_54_371" x="0" y="0" width="208" height="71" filterUnits="userSpaceOnUse" color-interpolation-filters="sRGB">
<feFlood flood-opacity="0" result="BackgroundImageFix"/>
<feColorMatrix in="SourceAlpha" type="matrix" values="0 0 0 0 0 0 0 0 0 0 0 0 0 0 0 0 0 0 127 0" result="hardAlpha"/>
<feOffset dx="1" dy="1"/>
<feComposite in2="hardAlpha" operator="out"/>
<feColorMatrix type="matrix" values="0 0 0 0 0 0 0 0 0 0.815686 0 0 0 0 0.803922 0 0 0 1 0"/>
<feBlend mode="normal" in2="BackgroundImageFix" result="effect1_dropShadow_54_371"/>
<feBlend mode="normal" in="SourceGraphic" in2="effect1_dropShadow_54_371" result="shape"/>
</filter>
</defs>
</svg>
