<svg width="20" height="20" viewBox="0 0 20 20" fill="none" xmlns="http://www.w3.org/2000/svg">
<path d="M4 11.0184H12.1011L8.55981 14.5598L10 16L16 10L10 4L8.55981 5.44019L12.1011 8.98157H4V11.0184Z" fill="black"/>
<path fill-rule="evenodd" clip-rule="evenodd" d="M20 10C20 15.5229 15.5229 20 10 20C4.47705 20 0 15.5229 0 10C0 4.47705 4.47705 0 10 0C15.5229 0 20 4.47705 20 10ZM15.657 15.6569C17.157 14.1566 18 12.1217 18 10C18 7.8783 17.157 5.84338 15.657 4.34314C14.1565 2.8429 12.1216 2 10 2C7.87817 2 5.84351 2.8429 4.34326 4.34314C2.84277 5.84338 2 7.8783 2 10C2 12.1217 2.84277 14.1566 4.34326 15.6569C5.84351 17.1571 7.87817 18 10 18C12.1216 18 14.1565 17.1571 15.657 15.6569Z" fill="black"/>
</svg>
