<svg width="326" height="137" viewBox="0 0 326 137" fill="none" xmlns="http://www.w3.org/2000/svg">
<path fill-rule="evenodd" clip-rule="evenodd" d="M231.22 93.5C244.751 93.5 255.72 82.307 255.72 68.4999C255.72 54.6928 244.751 43.5 231.22 43.5C217.688 43.5 206.72 54.6928 206.72 68.4999C206.72 82.307 217.688 93.5 231.22 93.5ZM214.431 69.1946C214.61 69.0363 214.84 68.9527 215.118 68.9439H217.726C218.505 68.9439 219.173 68.6755 219.73 68.1388C220.287 67.5977 220.572 66.8916 220.584 66.0205C220.576 65.255 220.293 64.6039 219.736 64.0671C219.18 63.526 218.512 63.2554 217.732 63.2554H212.105V65.1428H217.578C217.856 65.1516 218.083 65.2352 218.259 65.3936C218.439 65.5475 218.527 65.7829 218.522 66.0997C218.522 66.4164 218.432 66.654 218.253 66.8124C218.077 66.9663 217.85 67.0477 217.572 67.0565H214.964C214.184 67.0565 213.516 67.3271 212.96 67.8682C212.403 68.405 212.118 69.0869 212.105 69.9139L212.099 72.745H220.52V70.8576H214.161V69.9139C214.165 69.5884 214.255 69.3486 214.431 69.1946ZM224.49 70.851C224.237 70.8422 224.025 70.774 223.854 70.6465L228.286 67.2281V69.4388L228.293 69.8942C228.293 70.2109 228.203 70.4485 228.023 70.6069C227.847 70.7608 227.62 70.8422 227.342 70.851H224.49ZM227.342 65.1428C227.595 65.1516 227.807 65.2198 227.978 65.3474L223.546 68.7657V66.0997C223.541 65.7829 223.627 65.5475 223.803 65.3936C223.982 65.2352 224.212 65.1516 224.49 65.1428H227.342ZM221.484 66.0205C221.484 66.0513 221.486 66.7134 221.49 68.0068C221.486 69.287 221.484 69.9425 221.484 69.9733C221.492 70.7388 221.775 71.3921 222.332 71.9333C222.888 72.47 223.556 72.7384 224.336 72.7384H227.496C228.276 72.7384 228.944 72.47 229.5 71.9333C230.057 71.3921 230.34 70.7388 230.348 69.9733C230.348 69.9425 230.346 69.287 230.342 68.0068C230.346 66.7134 230.348 66.0513 230.348 66.0205C230.34 65.255 230.057 64.6039 229.5 64.0671C228.944 63.526 228.276 63.2554 227.496 63.2554H224.336C223.556 63.2554 222.888 63.526 222.332 64.0671C221.775 64.6039 221.492 65.255 221.484 66.0205ZM234.26 68.9439C233.982 68.9527 233.753 69.0363 233.573 69.1946C233.397 69.3486 233.307 69.5884 233.303 69.9139V70.8576H239.663V72.745H231.241L231.248 69.9139C231.26 69.0869 231.545 68.405 232.102 67.8682C232.659 67.3271 233.327 67.0565 234.106 67.0565H236.714C236.992 67.0477 237.219 66.9663 237.395 66.8124C237.575 66.654 237.665 66.4164 237.665 66.0997C237.669 65.7829 237.581 65.5475 237.401 65.3936C237.226 65.2352 236.999 65.1516 236.72 65.1428H231.248V63.2554H236.875C237.654 63.2554 238.322 63.526 238.879 64.0671C239.436 64.6039 239.718 65.255 239.727 66.0205C239.714 66.8916 239.429 67.5977 238.872 68.1388C238.316 68.6755 237.648 68.9439 236.868 68.9439H234.26ZM248.444 67.8682C247.887 67.3271 247.219 67.0565 246.439 67.0565H242.868L242.874 65.1428H249.234V63.2554H240.812L240.819 68.9439H246.285C246.564 68.9527 246.791 69.0363 246.966 69.1946C247.146 69.3486 247.236 69.584 247.236 69.9008C247.24 70.2175 247.152 70.4551 246.973 70.6135C246.797 70.7674 246.57 70.8488 246.292 70.8576H240.819V72.745H246.446C247.225 72.745 247.893 72.4766 248.45 71.9399C249.007 71.3987 249.289 70.7454 249.298 69.9799C249.285 69.1089 249 68.405 248.444 67.8682Z" fill="url(#paint0_linear_69_804)"/>
<path fill-rule="evenodd" clip-rule="evenodd" d="M68.0852 92.7419H77.9276L89.821 65.8007L101.708 92.7419H111.551L89.8236 43.5L68.0852 92.7419ZM147.179 55.1386C148.111 56.0522 148.572 57.2665 148.561 58.7816C148.549 60.2965 148.077 61.5108 147.144 62.4245C146.212 63.3381 145.014 63.8237 143.552 63.8585H115.736V73.5499H144.369C148.456 73.5499 151.968 72.1737 154.893 69.398C157.817 66.6341 159.303 63.0142 159.372 58.5387C159.326 54.3869 157.852 50.9289 154.927 48.1651C152.003 45.3894 148.491 44.0132 144.404 44.0132H115.771V53.7045H143.586C145.049 53.7393 146.246 54.2249 147.179 55.1386ZM195.128 53.7045H165.654V44.0132H183.488H195.128V53.7045ZM182.934 63.1877H165.925V72.4743H182.934C184.266 72.4975 185.411 72.96 186.354 73.8621C187.298 74.7641 187.77 75.9669 187.77 77.4818C187.746 79.1819 187.251 80.4889 186.295 81.4024C185.34 82.316 184.113 82.7903 182.615 82.8365H165.618V92.5277H183.453C187.64 92.5277 191.238 91.1401 194.233 88.3759C197.229 85.612 198.751 82.0731 198.822 77.7595C198.869 73.8273 197.572 70.5198 194.918 67.8252L194.711 67.6558C190.85 64.4855 189.27 63.1877 182.934 63.1877ZM292.146 73.1913H264.617V92.7475H292.146V73.1913ZM292.146 44.0132H264.617V63.5693H292.146V44.0132ZM33.8538 72.8869L49.6648 92.4157L61.5637 92.6665L41.2831 68.3398L61.5637 44.0132H49.7372L33.8538 62.6636V72.8869Z" fill="white"/>
<defs>
<linearGradient id="paint0_linear_69_804" x1="231.023" y1="94.0645" x2="231.023" y2="43.5" gradientUnits="userSpaceOnUse">
<stop stop-color="#00E0FF"/>
<stop offset="1" stop-color="#00FA9C"/>
</linearGradient>
</defs>
</svg>
