<svg width="152" height="134" viewBox="0 0 152 134" fill="none" xmlns="http://www.w3.org/2000/svg">
<path d="M31.6864 80.6027V90.4754L31.6961 90.4641C31.705 90.4536 31.7141 90.4429 31.7263 90.4303C35.1471 86.9968 40.6991 86.9968 44.1221 90.4303C47.545 93.8684 47.545 99.4508 44.1221 102.881C44.1156 102.889 44.1095 102.895 44.1033 102.901C44.0946 102.91 44.0858 102.917 44.0758 102.924L44.0753 102.927C44.0622 102.944 44.0419 102.959 44.0258 102.978C40.6131 106.376 36.1497 108.087 31.6864 108.087C27.2042 108.087 22.7232 106.36 19.3004 102.935C13.2771 96.8823 12.5615 87.5183 17.155 80.6826C17.7752 79.7564 18.4864 78.8806 19.3004 78.0642C22.7232 74.6296 27.2042 72.9202 31.6864 72.9202V49.3753C14.464 49.3753 0.5 63.3982 0.5 80.6826C0.5 97.9769 14.464 112 31.6864 112C40.6694 112 48.757 108.182 54.4455 102.088L54.4457 80.6027H31.6864Z" fill="white"/>
<path fill-rule="evenodd" clip-rule="evenodd" d="M50.5606 38.2376C48.8833 30.8183 44.9522 24.6345 43.642 22.5735C43.4784 22.3162 43.3557 22.1232 43.2833 22C42.251 23.5586 38.469 29.5457 36.5523 36.1961C34.4542 43.6078 34.1453 50.1824 34.8696 56.6593C35.5872 63.1314 38.3028 69.7778 38.3028 69.7778C39.7447 73.2689 41.9067 77.0057 43.3113 78.842C45.3729 76.1415 50.1166 68.0851 51.5914 57.5576C52.4138 51.7091 52.4485 46.5817 50.5606 38.2376ZM43.2833 76.7669C42.3549 75.0034 40.9111 71.6445 40.7738 66.4594C40.7391 61.4412 42.7293 57.1396 43.3113 56.2433C43.8315 57.1394 45.5469 60.8858 45.7521 66.0075C45.889 71.0201 44.2437 74.9655 43.2833 76.7669ZM50.0142 52.4002C49.9428 55.5821 49.5649 58.9445 49.0858 60.9499C49.2576 57.4898 48.8459 52.6082 48.053 48.7966C47.2645 44.9824 45.0313 38.6248 43.2467 35.6742C41.6016 38.4797 39.5696 43.987 38.5085 48.7621C37.4403 53.5443 37.4085 59.3268 37.4085 61.0599C37.1258 59.5916 36.4161 54.3847 36.6193 49.1453C36.7841 44.8206 37.7879 40.3832 38.3375 38.3386C40.4313 31.5153 42.802 27.1578 43.2467 26.4671C43.694 27.1578 46.6808 32.5245 48.2281 38.1667C49.7708 43.8156 50.0801 49.2144 50.0142 52.4002Z" fill="white"/>
<path d="M113.807 103.278H114.649V100.865L114.74 100.45L114.449 100.81L113.91 101.183L113.577 100.725L114.958 99.6004H115.4V103.278H116.224V103.95H113.807V103.278Z" fill="white"/>
<path fill-rule="evenodd" clip-rule="evenodd" d="M118.206 102.906C118.206 102.763 118.224 102.636 118.26 102.524C118.297 102.412 118.348 102.31 118.415 102.218C118.482 102.126 118.561 102.044 118.652 101.971C118.742 101.897 118.84 101.83 118.945 101.769C118.747 101.643 118.592 101.497 118.479 101.332C118.366 101.168 118.309 100.963 118.309 100.718C118.309 100.56 118.338 100.411 118.397 100.272C118.455 100.134 118.54 100.014 118.652 99.9119C118.762 99.8101 118.897 99.7308 119.054 99.674C119.212 99.6169 119.39 99.5883 119.587 99.5883C119.769 99.5883 119.935 99.6126 120.084 99.6615C120.234 99.7105 120.362 99.7798 120.469 99.8694C120.576 99.9591 120.659 100.068 120.717 100.196C120.776 100.325 120.805 100.466 120.805 100.621C120.805 100.861 120.752 101.065 120.645 101.232C120.538 101.398 120.381 101.551 120.175 101.69C120.417 101.832 120.6 101.989 120.724 102.16C120.846 102.331 120.908 102.551 120.908 102.82C120.908 103.003 120.875 103.169 120.808 103.318C120.742 103.466 120.648 103.594 120.527 103.7C120.405 103.805 120.26 103.888 120.09 103.947C119.921 104.006 119.735 104.035 119.533 104.035C119.331 104.035 119.148 104.008 118.985 103.953C118.821 103.898 118.682 103.822 118.567 103.724C118.451 103.626 118.362 103.508 118.3 103.37C118.237 103.231 118.206 103.076 118.206 102.906ZM120.157 102.826C120.157 102.732 120.135 102.647 120.09 102.569C120.046 102.492 119.988 102.422 119.918 102.359C119.847 102.296 119.768 102.238 119.682 102.185C119.594 102.132 119.507 102.081 119.418 102.032C119.228 102.142 119.098 102.261 119.027 102.389C118.956 102.518 118.921 102.645 118.921 102.771C118.921 102.934 118.977 103.073 119.088 103.19C119.199 103.306 119.353 103.364 119.551 103.364C119.733 103.364 119.879 103.319 119.991 103.229C120.101 103.14 120.157 103.005 120.157 102.826ZM119.06 100.731C119.06 100.829 119.079 100.914 119.115 100.987C119.151 101.061 119.201 101.125 119.263 101.18C119.326 101.235 119.397 101.285 119.475 101.332C119.554 101.379 119.636 101.423 119.721 101.464C119.963 101.256 120.084 101.028 120.084 100.78C120.084 100.609 120.035 100.479 119.936 100.392C119.837 100.304 119.717 100.26 119.575 100.26C119.397 100.26 119.267 100.307 119.184 100.401C119.102 100.495 119.06 100.604 119.06 100.731Z" fill="white"/>
<path fill-rule="evenodd" clip-rule="evenodd" d="M122.721 101.806C122.721 101.057 122.848 100.5 123.102 100.135C123.357 99.7705 123.722 99.5883 124.199 99.5883C124.708 99.5883 125.081 99.7683 125.32 100.129C125.558 100.489 125.677 101.048 125.677 101.806C125.677 102.559 125.549 103.119 125.292 103.486C125.036 103.852 124.669 104.035 124.192 104.035C123.688 104.035 123.316 103.843 123.078 103.458C122.839 103.073 122.721 102.523 122.721 101.806ZM123.508 101.806C123.508 102.303 123.561 102.687 123.668 102.957C123.776 103.228 123.953 103.364 124.199 103.364C124.437 103.364 124.612 103.239 124.723 102.991C124.834 102.743 124.889 102.348 124.889 101.806C124.889 101.313 124.837 100.932 124.732 100.664C124.627 100.395 124.447 100.26 124.192 100.26C123.95 100.26 123.776 100.386 123.668 100.639C123.561 100.891 123.508 101.281 123.508 101.806Z" fill="white"/>
<path fill-rule="evenodd" clip-rule="evenodd" d="M130.47 102.759H129.804V103.95H129.071V102.759H127.235V102.307L129.155 99.6433H129.804V102.123H130.47V102.759ZM129.071 101.189L129.125 100.676H129.101L128.895 101.115L128.265 101.94L127.962 102.172L128.35 102.123H129.071V101.189Z" fill="white"/>
<path fill-rule="evenodd" clip-rule="evenodd" d="M113.143 58.1025C111.982 57.4436 111.253 57.8356 110.403 58.2922C109.944 58.5389 109.45 58.8045 108.833 58.9334C107.156 59.2839 106.54 58.1951 105.871 57.0134C105.764 56.8242 105.655 56.6327 105.541 56.4443C105.881 56.5163 106.142 56.6105 106.369 56.6926C107.056 56.9409 107.435 57.0777 108.778 56.1503C110.09 55.2436 111.753 55.8373 112.724 56.953L111.644 54.0208C112.636 54.0127 113.666 53.9669 114.71 53.9204C117.06 53.8159 119.479 53.7084 121.682 54.0208L122.085 54.0887C125.487 54.766 128.055 57.7039 128.055 61.4216C128.055 64.1426 126.511 67.1662 124.252 68.7745V69.1156C127.275 68.4165 130.73 65.8652 131.04 64.4316C130.598 64.2576 129.536 63.6428 129.549 63.5696C128.366 62.714 127.858 61.0082 128.137 59.7161C128.416 58.424 129.013 57.8 129.864 57.2791C130.451 56.9797 130.982 56.7979 131.618 56.734L147.524 54.472C147.598 55.0139 147.651 55.5658 147.676 56.1149C148.137 65.9241 140.621 74.2562 130.892 74.7206C127.565 74.8796 123.273 73.0231 121.763 69.8523C121.684 69.8655 121.605 69.8787 121.525 69.8891C120.947 69.9534 120.409 70.053 119.909 70.183C119.401 72.3157 123.729 73.9729 128.746 74.7864L127.943 75.9595C128.892 75.6576 129.902 75.4944 130.95 75.4944C136.465 75.4944 140.938 80.0037 140.938 85.5648C140.938 91.1255 136.465 95.6348 130.95 95.6348C125.435 95.6348 120.963 91.1255 120.963 85.5648C120.963 84.9932 121.011 84.4331 121.102 83.8883L121.443 83.9387L127.49 84.3527C127.189 84.8478 127.016 85.4294 127.016 86.0524C127.016 87.8543 128.465 89.3157 130.252 89.3157C132.04 89.3157 133.489 87.8543 133.489 86.0524C133.489 84.2791 132.085 82.8355 130.337 82.7901L130.327 82.758L129.93 82.8055C129.906 82.8077 129.882 82.8104 129.858 82.8133C129.843 82.8152 129.827 82.8171 129.812 82.8191L124.604 83.436C122.33 83.8125 120.36 83.964 118.68 83.9094L111.476 93.819L110.575 91.413C105.482 90.9818 107.244 93.3575 108.385 94.3298C108.497 94.4245 108.498 94.8218 108.393 94.9086C106.521 94.7642 104.887 93.251 104.887 91.2805C104.887 89.31 106.511 87.626 108.512 87.626C109.848 87.626 111.014 88.3547 111.643 89.4393L114.915 79.0367H114.397L112.418 81.9056C111.25 80.6764 110.341 79.1971 109.777 77.5549L104.248 70.6525C104.014 71.1873 103.655 71.6534 103.21 72.0164L102.107 69.0703C99.6619 68.9478 98.1537 69.5429 99.4199 71.4162L99.9503 71.4227L99.8812 70.4971H101.415L101.173 73.7346L101.175 73.7579H101.172L101.168 73.8161H100.117L100.113 73.6003L100.035 72.5594C98.6366 72.0557 97.3129 70.9447 97.3129 69.1746C97.3129 67.8114 98.2288 66.4346 99.5326 65.8341L98.8244 56.3474L97.1099 54.1555H100.008C99.8997 52.9409 100.272 51.6262 100.98 50.5653C100.338 50.6749 99.7445 51.0222 99.1709 51.9838C98.7921 49.9005 100.525 47.2209 102.887 47.6213C104.67 47.924 104.988 47.6079 105.566 47.0341C105.757 46.8446 105.976 46.627 106.285 46.3942C106.257 46.6367 106.237 46.8797 106.217 47.1196C106.172 47.6475 106.129 48.1614 106.012 48.6248C107.789 48.8194 108.215 48.3963 108.919 47.6964C109.183 47.4339 109.487 47.1325 109.915 46.8101C109.877 47.1475 109.848 47.4854 109.82 47.8192C109.645 49.9051 109.483 51.8269 106.917 52.4311C105.973 52.6532 105.113 52.6049 104.314 52.5599C102.814 52.4756 101.529 52.4034 100.317 54.1555H104.183L102.473 56.3417L101.78 65.6212C102.365 65.7619 102.895 66.0467 103.331 66.4346L107.743 69.106L108.711 72.7191H109.165C109.628 66.6704 114.564 61.8849 120.642 61.7188L120.406 61.1215L114.297 61.1501L113.143 58.1025ZM112.869 57.1298C113.061 57.3799 113.22 57.6524 113.334 57.9364C114.008 58.0585 114.833 58.3525 115.656 58.6459C118.007 59.4841 120.346 60.318 119.153 57.1298H112.869Z" fill="white"/>
<path d="M117.114 48.3697H118.687V48.7509H119.184V49.9837C118.866 50.1162 118.641 50.4324 118.641 50.8014C118.641 51.1929 118.894 51.5237 119.243 51.6406L119.248 51.6423L119.262 51.647L119.265 51.6473L119.273 51.6498L119.283 51.6527L119.288 51.6541L119.304 51.6584L119.309 51.6595L119.314 51.6609L119.319 51.662L119.324 51.6634L119.335 51.6656L119.344 51.6677L119.35 51.6688L119.356 51.6702L119.361 51.6709L119.363 51.6713L119.376 51.6738L119.382 51.6745L119.384 51.6748L119.391 51.6759L119.398 51.6766L119.403 51.6774L119.406 51.6781H119.409L119.414 51.6791L119.42 51.6795L119.429 51.6806L119.436 51.6813L119.441 51.6816L119.447 51.6823L119.457 51.683L119.463 51.6834L119.473 51.6841L119.495 51.6849H119.505L119.513 51.6852H119.518C120.002 51.6852 120.394 51.2894 120.394 50.8014V50.7846L120.394 50.7786L120.394 50.7628L120.393 50.7467L120.392 50.7372L120.39 50.7164L120.389 50.7039L120.387 50.6889V50.6867C120.384 50.6678 120.382 50.6492 120.378 50.631L120.376 50.6228L120.373 50.6074L120.365 50.576L120.361 50.561L120.361 50.5592L120.356 50.5413L120.355 50.5385L120.352 50.5306C120.309 50.3952 120.235 50.2745 120.138 50.1766L120.136 50.1752L120.125 50.1645L120.115 50.1541L120.107 50.1473L120.103 50.1434L120.091 50.133L120.08 50.123L120.075 50.1191L120.059 50.1062L120.056 50.1034C120.046 50.0962 120.037 50.0887 120.027 50.0816L120.025 50.0801L120.019 50.0759L120.008 50.0687L120.006 50.0673L119.994 50.0587L119.99 50.0569L119.987 50.0548C119.976 50.0476 119.965 50.0409 119.954 50.0348L119.941 50.0279C119.933 50.0233 119.925 50.0187 119.917 50.0144L119.913 50.0123L119.899 50.0051L119.898 50.0048L119.885 49.9987V49.7694C119.885 49.0413 120.52 48.0861 121.242 48.0665L122.581 48.03L120.667 53.0802L115.194 53.0991L113.285 48.0489L114.556 48.0665C115.278 48.0761 115.913 49.0413 115.913 49.7694V49.9998C115.736 50.083 115.591 50.2241 115.502 50.3988L115.502 50.401L115.494 50.4145L115.493 50.4181L115.485 50.437L115.482 50.4431L115.475 50.4574L115.47 50.4717L115.467 50.477L115.46 50.4971L115.458 50.5013L115.453 50.516L115.453 50.5178C115.441 50.552 115.432 50.5871 115.424 50.6231C115.419 50.6514 115.414 50.68 115.411 50.7089L115.411 50.7125L115.411 50.716C115.41 50.728 115.409 50.7397 115.408 50.7518L115.408 50.7561V50.7607L115.407 50.7786L115.407 50.7846V50.8014C115.407 51.2894 115.799 51.6852 116.283 51.6852H116.294L116.305 51.6849L116.327 51.6841L116.338 51.6834L116.343 51.683L116.354 51.6823L116.36 51.6816L116.365 51.6813L116.372 51.6806L116.381 51.6795L116.387 51.6791L116.392 51.6781H116.395L116.398 51.6774L116.403 51.6766L116.408 51.6759L116.413 51.6752L116.417 51.6748L116.419 51.6745L116.424 51.6738L116.429 51.6727L116.438 51.6713L116.44 51.6709L116.445 51.6702L116.45 51.6688L116.456 51.668L116.466 51.6656L116.477 51.6634L116.481 51.6623L116.513 51.6541L116.518 51.6527C116.888 51.5495 117.16 51.2076 117.16 50.8014C117.16 50.4324 116.935 50.1162 116.617 49.9837V48.7509H117.114V48.3697Z" fill="white"/>
<path d="M139.087 78.8367C143.309 77.1102 147.23 74.2248 148.124 67.0365C147.291 70.5856 145.463 72.5494 143.17 73.6375C140.718 74.8014 137.736 74.9643 134.873 74.9935C136.807 75.8352 138.114 77.0444 139.087 78.8367Z" fill="white"/>
<path fill-rule="evenodd" clip-rule="evenodd" d="M151.499 40.5621V87.0584L151.499 87.0655V87.0684L151.5 87.1134V87.1152L151.499 87.2584L151.499 87.5445V87.6203H151.491C151.399 90.3699 150.562 93.2028 149.12 95.9174C147.642 98.6995 145.528 101.358 142.93 103.674C140.201 106.106 136.934 108.167 133.306 109.602C129.948 110.929 126.279 111.721 122.44 111.775L122.024 111.781C118.214 111.781 114.57 111.089 111.227 109.872C107.656 108.573 104.426 106.675 101.697 104.386C98.9445 102.076 96.6986 99.364 95.1212 96.4582C93.5875 93.6322 92.6854 90.6218 92.5629 87.6203H92.548V40.5621H151.499ZM149.971 42.1028H94.0761V86.0795H94.0814L94.0757 86.6486V86.8433L94.0761 86.919C94.0761 89.8123 94.8814 92.7373 96.3343 95.4923C97.8227 98.3144 99.9911 100.958 102.67 103.206C105.266 105.384 108.34 107.189 111.74 108.425C114.923 109.582 118.392 110.24 122.023 110.24H122.423C126.072 110.19 129.562 109.435 132.758 108.17C136.211 106.804 139.322 104.841 141.92 102.525C144.429 100.288 146.458 97.7257 147.85 95.0579C149.217 92.4426 149.972 89.7251 149.972 87.1144C149.972 87.0058 149.973 86.9773 149.974 86.9637L149.973 86.9273L149.974 86.9255H149.971V86.734L149.962 86.0795H149.971V42.1028Z" fill="white"/>
<path d="M75.665 40.5621V109.509H74.1384V40.5621H75.665Z" fill="white"/>
</svg>
