<svg width="216" height="71" viewBox="0 0 216 71" fill="none" xmlns="http://www.w3.org/2000/svg">
<g filter="url(#filter0_d_54_375)">
<path fill-rule="evenodd" clip-rule="evenodd" d="M58.2732 10.9204H57.302V18.9828H53.6056V0.10785H57.302V8.4667L58.1653 8.08923L63.3725 0.10785H67.5813L62.0775 8.0353L60.6204 9.05988L62.1314 10.1115L68.4178 18.9828H63.8581L58.2732 10.9204ZM0.519851 0.155711H39.5947H40.0637H40.1146V0.206818V0.675251V31.3763V31.5168L40.115 31.5216V31.5235L40.1154 31.5541V31.5552L40.1146 31.652V31.8447V31.8958H40.1092C40.0465 33.7505 39.4771 35.6613 38.4959 37.4921C37.4902 39.3687 36.0515 41.1617 34.2835 42.7242C32.4269 44.3645 30.2036 45.7546 27.735 46.722C25.4495 47.6178 22.953 48.152 20.3412 48.1882L20.0579 48.1921C17.4654 48.1921 14.9858 47.7252 12.7107 46.9046C10.2807 46.0284 8.08251 44.7485 6.22565 43.2039C4.35275 41.6464 2.82462 39.817 1.75111 37.8568C0.70751 35.9508 0.0936169 33.9205 0.0101893 31.8958H0V31.8447V31.4231V31.3763V0.675251V0.206818V0.155711H0.0511423H0.519851ZM14.4661 42.457H15.0393V40.8295L15.101 40.5492L14.9032 40.7924L14.5361 41.0436L14.3095 40.7346L15.2495 39.9766H15.5505V42.457H16.1113V42.9102H14.4661V42.457ZM17.4598 42.2055C17.4598 42.1094 17.4721 42.0236 17.4968 41.948C17.5217 41.8724 17.5566 41.8038 17.6019 41.7421C17.6474 41.6804 17.701 41.6245 17.7629 41.5753C17.8247 41.5257 17.8912 41.4804 17.9627 41.4393C17.8281 41.354 17.7222 41.2559 17.6453 41.1446C17.5683 41.0335 17.5298 40.8953 17.5298 40.7305C17.5298 40.6235 17.5497 40.523 17.5896 40.4297C17.6294 40.3363 17.6873 40.2553 17.7629 40.1867C17.8383 40.1178 17.9298 40.0643 18.037 40.026C18.1441 39.9874 18.2652 39.9682 18.3998 39.9682C18.5235 39.9682 18.6362 39.9846 18.7378 40.0178C18.8395 40.0507 18.9268 40.0975 18.9996 40.1579C19.0724 40.2183 19.1288 40.2917 19.1686 40.3781C19.2085 40.4647 19.2284 40.5603 19.2284 40.6646C19.2284 40.8266 19.192 40.9639 19.1192 41.0766C19.0464 41.1892 18.9398 41.2923 18.7996 41.3856C18.9645 41.4818 19.0889 41.5876 19.1727 41.7029C19.2566 41.8183 19.2984 41.9667 19.2984 42.1479C19.2984 42.2716 19.2759 42.3833 19.2306 42.4838C19.1853 42.5841 19.1214 42.6698 19.0388 42.7413C18.9565 42.8128 18.8574 42.8682 18.742 42.9081C18.6265 42.9481 18.5001 42.9678 18.3625 42.9678C18.2251 42.9678 18.1008 42.9492 17.9896 42.9122C17.8782 42.8752 17.7835 42.8236 17.7051 42.7578C17.6268 42.6919 17.5664 42.6122 17.5237 42.5187C17.481 42.4254 17.4598 42.3209 17.4598 42.2055ZM18.7872 42.152C18.7872 42.0888 18.7721 42.0312 18.742 41.979C18.7116 41.9268 18.6726 41.8794 18.6245 41.8369C18.5764 41.7943 18.5229 41.7551 18.4637 41.7193C18.4046 41.6838 18.3447 41.6494 18.2843 41.6165C18.1551 41.6905 18.0665 41.7709 18.0184 41.8575C17.9703 41.9439 17.9462 42.0299 17.9462 42.115C17.9462 42.225 17.984 42.3188 18.0596 42.3972C18.1352 42.4754 18.2403 42.5146 18.3749 42.5146C18.4986 42.5146 18.5983 42.4842 18.6739 42.4238C18.7495 42.3634 18.7872 42.2729 18.7872 42.152ZM18.0409 40.7387C18.0409 40.8048 18.0535 40.8624 18.0782 40.9118C18.1029 40.9614 18.1365 41.0044 18.1792 41.0415C18.2217 41.0787 18.2698 41.1129 18.3235 41.1446C18.377 41.1762 18.4327 41.2056 18.4906 41.2331C18.6553 41.093 18.7378 40.9392 18.7378 40.7716C18.7378 40.6564 18.7042 40.5692 18.6369 40.51C18.5695 40.4509 18.4878 40.4214 18.3913 40.4214C18.2704 40.4214 18.1818 40.4531 18.1257 40.5163C18.0691 40.5795 18.0409 40.6536 18.0409 40.7387ZM20.5318 41.464C20.5318 40.9585 20.6183 40.5828 20.7915 40.3372C20.9646 40.0912 21.2134 39.9682 21.5375 39.9682C21.8838 39.9682 22.1382 40.0897 22.3005 40.3329C22.4626 40.5761 22.5436 40.9531 22.5436 41.464C22.5436 41.9721 22.4563 42.3498 22.2819 42.5971C22.1072 42.8442 21.8578 42.9678 21.5334 42.9678C21.19 42.9678 20.9371 42.8381 20.775 42.5785C20.6127 42.3188 20.5318 41.9474 20.5318 41.464ZM21.0677 41.464C21.0677 41.799 21.1041 42.058 21.177 42.2406C21.2498 42.4232 21.37 42.5146 21.5375 42.5146C21.6998 42.5146 21.8188 42.4308 21.8942 42.2634C21.9698 42.0957 22.0075 41.8294 22.0075 41.464C22.0075 41.1316 21.972 40.8747 21.9005 40.6935C21.829 40.5122 21.7068 40.4214 21.5334 40.4214C21.3685 40.4214 21.2498 40.5066 21.177 40.677C21.1041 40.8472 21.0677 41.1095 21.0677 41.464ZM25.8051 42.1068H25.3518V42.9102H24.8528V42.1068H23.6037V41.8018L24.9106 40.0054H25.3518V41.6782H25.8051V42.1068ZM24.8528 41.0477L24.89 40.7017H24.8736L24.7334 40.9984L24.3045 41.5545L24.0984 41.7111L24.3624 41.6782H24.8528V41.0477ZM14.0145 11.9864C12.7978 11.302 12.2775 12.2991 11.0818 12.5468C9.75778 12.8212 9.40521 11.7891 8.84137 10.868C9.77381 11.0638 9.8282 11.5019 11.0439 10.6696C11.9373 10.0583 13.0687 10.4587 13.7296 11.211L12.9943 9.23334C15.1884 9.21559 17.6598 8.92928 19.825 9.23334L20.0989 9.27926C22.4147 9.736 24.1619 11.7176 24.1619 14.2252C24.1619 16.0606 23.111 18.0998 21.5739 19.1846V19.4148C23.6308 18.9432 25.9822 17.2223 26.1928 16.2555C25.892 16.1382 25.1696 15.7234 25.1784 15.6741C24.3732 15.0969 24.0278 13.9465 24.2176 13.075C24.4077 12.2036 24.8133 11.7823 25.3928 11.4313C25.7919 11.2292 26.1534 11.1067 26.5861 11.0636L37.4096 9.53784C37.4607 9.90341 37.496 10.2755 37.5136 10.646C37.8271 17.2621 32.7123 22.8821 26.092 23.1955C23.8282 23.3024 20.908 22.0505 19.88 19.9116C19.8265 19.9205 19.7726 19.9296 19.7182 19.9363C19.3249 19.9799 18.9591 20.047 18.6187 20.1347C18.273 21.5731 21.2183 22.6908 24.6322 23.2396L24.0854 24.031C24.7312 23.8272 25.4188 23.7172 26.1319 23.7172C29.8846 23.7172 32.9281 26.7586 32.9281 30.5096C32.9281 34.2601 29.8846 37.3016 26.1319 37.3016C22.3792 37.3016 19.3357 34.2601 19.3357 30.5096C19.3357 30.1241 19.3684 29.7462 19.4302 29.3787L19.6625 29.4127L23.7769 29.692C23.5727 30.0258 23.4544 30.4182 23.4544 30.8383C23.4544 32.0539 24.4408 33.0395 25.6569 33.0395C26.8732 33.0395 27.8592 32.0539 27.8592 30.8383C27.8592 29.6422 26.9042 28.6688 25.7148 28.638L25.7074 28.6166L25.4372 28.6484C25.4107 28.651 25.3839 28.6542 25.3572 28.6575L21.8132 29.0737C20.2658 29.3278 18.9257 29.43 17.7824 29.393L12.8799 36.0769L12.2669 34.4541C8.8015 34.1633 10.0007 35.7657 10.7771 36.4215C10.853 36.4853 10.8538 36.7532 10.7819 36.8117C9.50879 36.7145 8.39671 35.6938 8.39671 34.3647C8.39671 33.0356 9.50143 31.8997 10.8631 31.8997C11.7722 31.8997 12.5659 32.3913 12.9939 33.1229L15.22 26.1063H14.8679L13.5209 28.0414C12.7267 27.2124 12.1076 26.2146 11.7241 25.1069L7.96203 20.4513C7.80232 20.8119 7.55789 21.1264 7.25517 21.3713L6.50432 19.3841C4.84097 19.3016 3.81448 19.7029 4.67628 20.9663L5.03708 20.9707L4.99005 20.3465H6.03409L5.8694 22.5302L5.8707 22.5457H5.86832L5.8655 22.5852H5.15084L5.14781 22.4396L5.09493 21.7375C4.14321 21.3979 3.24263 20.6484 3.24263 19.4545C3.24263 18.5351 3.86584 17.6065 4.75299 17.2015L4.27084 10.8028L3.10437 9.32431H5.07673C5.00284 8.50503 5.25594 7.6184 5.73787 6.90286C5.30079 6.97671 4.89709 7.21082 4.50683 7.85944C4.24896 6.45435 5.42865 4.6471 7.03587 4.91716C8.64982 5.18874 8.49965 4.72181 9.34779 4.08943C9.28733 4.61288 9.27758 5.13936 9.16186 5.59393C10.8246 5.77455 10.7487 5.16708 11.8181 4.37012C11.627 6.01993 11.8032 7.68857 9.7775 8.16112C7.93104 8.59231 6.55134 7.51315 5.2865 9.32431H5.51121H7.91739L6.75395 10.7989L6.28199 17.0579C6.67984 17.1528 7.04086 17.3447 7.33751 17.6065L10.34 19.4081L10.9984 21.8454H11.3071C11.6224 17.7655 14.9816 14.5377 19.1175 14.4255L18.9567 14.023L14.7994 14.0422L14.0145 11.9864ZM13.8277 11.3304C13.9588 11.4991 14.0668 11.6829 14.1441 11.8746C15.9152 12.1919 19.2 14.2337 18.1038 11.3304H13.8277ZM16.7165 5.42198H17.7872V5.67883H18.1252V6.51044C17.9085 6.59988 17.756 6.81321 17.756 7.06204C17.756 7.32604 17.9276 7.54932 18.1653 7.62815L18.1686 7.62923L18.1781 7.63248L18.1798 7.6327L18.1855 7.63444L18.1924 7.63638L18.1961 7.63725L18.2065 7.64006L18.21 7.64093L18.2136 7.6418L18.2171 7.64266L18.2206 7.64353L18.2243 7.64418L18.228 7.64504L18.2342 7.64634L18.2384 7.64721L18.242 7.64785L18.2455 7.64851L18.2468 7.64872L18.2563 7.65024L18.26 7.65089L18.2615 7.65111L18.2663 7.65176L18.2709 7.6524L18.2743 7.65284L18.2763 7.65327L18.2782 7.65349L18.2817 7.65392L18.2856 7.65436L18.2919 7.655L18.2964 7.65544L18.3001 7.65587L18.3038 7.65609L18.3112 7.65674L18.3148 7.65696L18.3218 7.65738L18.337 7.65782L18.3439 7.65804H18.345H18.3486H18.3523C18.6819 7.65804 18.9489 7.39123 18.9489 7.06204L18.9487 7.05078V7.04667L18.9482 7.03605L18.9476 7.02522C18.9472 7.01829 18.9467 7.01137 18.9461 7.00466L18.9452 6.99643V6.99534L18.9439 6.98602V6.98451C18.9422 6.97195 18.9402 6.95939 18.9378 6.94705L18.9365 6.94163L18.9342 6.93103L18.9292 6.91001L18.9264 6.89983L18.9261 6.89875L18.9227 6.88662L18.922 6.88468L18.9203 6.87947C18.8908 6.78808 18.8403 6.70666 18.7742 6.6406L18.7732 6.63974L18.7658 6.63238L18.7584 6.62544L18.7534 6.62089L18.7504 6.61808L18.7428 6.61137L18.735 6.60444L18.7318 6.60184L18.7209 6.59318L18.7185 6.59144C18.712 6.58646 18.7053 6.58148 18.6986 6.5765L18.6977 6.57563L18.6932 6.57282L18.6858 6.56784L18.6847 6.56697L18.6761 6.56113L18.6737 6.55983L18.6717 6.5583C18.6644 6.55375 18.6568 6.54921 18.6492 6.54488C18.6408 6.54034 18.6323 6.53556 18.6239 6.53123L18.6215 6.52972L18.6119 6.52496L18.6108 6.52474L18.6024 6.52063V6.36578C18.6024 5.87504 19.0345 5.23053 19.5255 5.21732L20.4365 5.19285L19.1344 8.59903L15.4103 8.6118L14.1107 5.20562L14.9762 5.21732C15.4675 5.22382 15.8991 5.87504 15.8991 6.36578V6.52149C15.7786 6.57758 15.6803 6.67266 15.62 6.79047L15.6194 6.79198L15.6146 6.80108L15.6135 6.80346L15.6077 6.81624L15.6059 6.82035L15.6014 6.82988L15.5975 6.83984L15.5962 6.84331L15.5912 6.85674L15.5901 6.85955L15.5864 6.86973C15.5786 6.89291 15.5719 6.9176 15.5669 6.94185C15.563 6.96091 15.56 6.98018 15.5578 6.99968V7.00205C15.5568 7.01093 15.5561 7.0196 15.5557 7.02848L15.5555 7.03151V7.03454L15.555 7.04667L15.5548 7.05078L15.5546 7.06204C15.5546 7.39123 15.8216 7.65804 16.1509 7.65804H16.1548H16.1587L16.1661 7.65782L16.1811 7.65738L16.1886 7.65696L16.1923 7.65674L16.1997 7.65609L16.2034 7.65587L16.2073 7.65544L16.2118 7.655L16.2181 7.65436L16.222 7.65392L16.2255 7.65349L16.2272 7.65327L16.2292 7.65284L16.2328 7.6524L16.2363 7.65176L16.24 7.65132L16.2419 7.65111L16.2437 7.65089L16.2471 7.65024L16.2508 7.64981L16.2567 7.64872L16.258 7.64851L16.2614 7.64785L16.2651 7.64721L16.2686 7.64655L16.2757 7.64504L16.2792 7.64418L16.2827 7.64353L16.2859 7.64266L16.3074 7.63725L16.3109 7.63638C16.5629 7.56643 16.7475 7.336 16.7475 7.06204C16.7475 6.81321 16.5949 6.59988 16.3782 6.51044V5.67883H16.7165V5.42198ZM31.6687 25.9714C34.5416 24.8069 37.2096 22.8609 37.8185 18.0123C37.2516 20.4063 36.0073 21.7306 34.4474 22.4648C32.7786 23.2498 30.7492 23.3596 28.8016 23.3795C30.1174 23.9469 31.0065 24.7628 31.6687 25.9714ZM174.281 58.6724H170.408V69.7869H168.933V58.6724H165.061V57.3587H174.281V58.6724ZM155.954 57.3587H162.723V58.6724H157.429V62.7383H162.279V64.0522H157.429V68.473H162.812V69.7869H155.954V57.3587ZM153.35 58.6724H149.477V69.7869H148.003V58.6724H144.13V57.3587H153.35V58.6724ZM140.051 61.3713L140.158 59.9508H140.087L139.323 61.4066L133.318 69.7869H132.448V57.3587H133.922V65.8809L133.798 67.2836H133.869L134.651 65.8276L140.655 57.3587H141.526V69.7869H140.051V61.3713ZM129.488 69.2721C129.133 69.5444 128.683 69.7336 128.138 69.8402C127.593 69.9467 127.013 70 126.397 70C125.651 70 124.952 69.8727 124.301 69.6182C123.649 69.3637 123.081 68.9761 122.595 68.4552C122.11 67.9346 121.725 67.2687 121.441 66.4578C121.156 65.6472 121.014 64.6854 121.014 63.5727C121.014 62.4128 121.171 61.4274 121.485 60.6166C121.799 59.8058 122.213 59.143 122.728 58.6281C123.244 58.1133 123.821 57.7375 124.46 57.5006C125.1 57.2639 125.752 57.1456 126.415 57.1456C127.125 57.1456 127.706 57.184 128.156 57.2611C128.606 57.338 128.991 57.4415 129.311 57.5716L128.955 58.8678C128.387 58.5956 127.575 58.4593 126.521 58.4593C126.036 58.4593 125.556 58.5481 125.082 58.7257C124.609 58.9033 124.185 59.1933 123.812 59.5957C123.439 59.9983 123.14 60.525 122.915 61.176C122.69 61.827 122.577 62.6259 122.577 63.5727C122.577 64.4249 122.684 65.1708 122.897 65.8099C123.11 66.449 123.404 66.9817 123.777 67.4077C124.15 67.8339 124.588 68.1536 125.091 68.3664C125.595 68.5795 126.142 68.6861 126.735 68.6861C127.268 68.6861 127.732 68.6328 128.129 68.5263C128.526 68.4197 128.86 68.2837 129.133 68.118L129.488 69.2721ZM111.126 57.4828C111.576 57.3765 112.062 57.3055 112.583 57.27C113.104 57.2344 113.619 57.2167 114.128 57.2167C114.673 57.2167 115.227 57.27 115.79 57.3765C116.352 57.4828 116.864 57.6782 117.326 57.9623C117.788 58.2465 118.164 58.6369 118.454 59.1342C118.745 59.6312 118.89 60.2644 118.89 61.0339C118.89 61.7915 118.753 62.4305 118.481 62.9514C118.209 63.4722 117.847 63.8954 117.397 64.2209C116.947 64.5464 116.432 64.7801 115.852 64.9221C115.272 65.0642 114.673 65.1352 114.057 65.1352C113.998 65.1352 113.901 65.1352 113.764 65.1352C113.628 65.1352 113.486 65.1322 113.338 65.1264C113.19 65.1203 113.045 65.1114 112.903 65.0997C112.761 65.0878 112.66 65.0759 112.601 65.0642V69.7869H111.126V57.4828ZM114.164 58.4949C113.856 58.4949 113.56 58.5009 113.276 58.5126C112.992 58.5245 112.767 58.5542 112.601 58.6014V63.7503C112.66 63.7739 112.755 63.7889 112.885 63.7947C113.015 63.8006 113.151 63.8066 113.294 63.8125C113.436 63.8183 113.572 63.8213 113.702 63.8213C113.832 63.8213 113.927 63.8213 113.987 63.8213C114.389 63.8213 114.789 63.7828 115.186 63.7059C115.582 63.629 115.941 63.49 116.26 63.2888C116.58 63.0874 116.838 62.8035 117.033 62.4364C117.229 62.0695 117.326 61.602 117.326 61.0339C117.326 60.5486 117.235 60.1432 117.051 59.8176C116.867 59.4921 116.625 59.2318 116.323 59.0365C116.021 58.8412 115.68 58.7021 115.301 58.6192C114.922 58.5364 114.543 58.4949 114.164 58.4949ZM100.83 57.3587H107.598V58.6724H102.304V62.7383H107.154V64.0522H102.304V68.473H107.687V69.7869H100.83V57.3587ZM97.1775 60.1995C97.1775 60.4953 97.1301 60.7972 97.0354 61.1049C96.9407 61.4127 96.7985 61.6996 96.6089 61.966C96.4195 62.2324 96.1768 62.4661 95.8806 62.6672C95.5846 62.8684 95.2353 63.0224 94.8325 63.129V63.2C95.1878 63.2591 95.5283 63.3598 95.8539 63.5017C96.1796 63.6438 96.467 63.8391 96.7155 64.0877C96.9643 64.3363 97.1656 64.638 97.3197 64.9932C97.4735 65.3484 97.5505 65.7685 97.5505 66.2538C97.5505 66.8929 97.4174 67.4462 97.1509 67.9138C96.8843 68.3814 96.535 68.763 96.1027 69.059C95.6704 69.3549 95.1759 69.5738 94.6192 69.7159C94.0627 69.8579 93.4941 69.929 92.9138 69.929C92.7125 69.929 92.4757 69.929 92.2033 69.929C91.9309 69.929 91.6466 69.9201 91.3506 69.9023C91.0544 69.8846 90.7583 69.861 90.4623 69.8313C90.1661 69.8016 89.9057 69.7572 89.6805 69.6981V57.4651C90.1189 57.3943 90.6281 57.3349 91.2084 57.2877C91.7887 57.2403 92.4224 57.2167 93.1093 57.2167C93.5713 57.2167 94.0419 57.255 94.5217 57.3321C95.0012 57.409 95.4366 57.5569 95.8273 57.7759C96.2182 57.9948 96.5409 58.2997 96.7955 58.6902C97.0501 59.0809 97.1775 59.584 97.1775 60.1995ZM93.056 68.6506C93.435 68.6506 93.8021 68.6062 94.1574 68.5174C94.5128 68.4286 94.8266 68.2867 95.099 68.0914C95.3714 67.896 95.5874 67.6563 95.7473 67.3722C95.9072 67.0883 95.9872 66.7509 95.9872 66.3602C95.9872 65.8751 95.8895 65.4844 95.694 65.1885C95.4988 64.8925 95.2439 64.6618 94.9302 64.4959C94.6164 64.3303 94.264 64.2179 93.8731 64.1588C93.4824 64.0994 93.0915 64.07 92.7006 64.07H91.1551V68.5263C91.2381 68.5501 91.3564 68.5678 91.5105 68.5795C91.6644 68.5914 91.8301 68.6034 92.0078 68.6151C92.1855 68.627 92.369 68.6358 92.5587 68.6417C92.748 68.6475 92.9138 68.6506 93.056 68.6506ZM92.0789 62.8271C92.2802 62.8271 92.5231 62.8212 92.8072 62.8093C93.0915 62.7974 93.3284 62.7797 93.518 62.7561C93.8021 62.6614 94.0686 62.546 94.3174 62.4098C94.5661 62.2738 94.788 62.1139 94.9835 61.9305C95.1789 61.7471 95.3328 61.5339 95.4455 61.2914C95.5579 61.0486 95.6141 60.7853 95.6141 60.5011C95.6141 60.1107 95.5402 59.788 95.3922 59.5335C95.2439 59.279 95.0457 59.0751 94.7969 58.9211C94.5483 58.7673 94.2641 58.6577 93.9442 58.5925C93.6244 58.5276 93.2987 58.4949 92.9671 58.4949C92.5764 58.4949 92.218 58.5037 91.8923 58.5215C91.5666 58.5393 91.3209 58.5659 91.1551 58.6014V62.8271H92.0789ZM84.4116 61.3713L84.5182 59.9508H84.4471L83.6833 61.4066L77.6786 69.7869H76.808V57.3587H78.2826V65.8809L78.1582 67.2836H78.2293L79.0109 65.8276L85.0155 57.3587H85.886V69.7869H84.4116V61.3713ZM71.539 64.0877H65.5699V69.7869H64.0953V57.3587H65.5699V62.7738H71.539V57.3587H73.0134V69.7869H71.539V64.0877ZM56.9966 63.9101L57.4584 65.4902H57.5472L57.9026 63.8568L60.2832 57.3587H61.7932L58.6487 65.4369C58.3291 66.2774 58.0478 66.9787 57.8049 67.5409C57.5622 68.1031 57.3165 68.559 57.0677 68.9081C56.8189 69.2572 56.5524 69.5058 56.2683 69.6537C55.984 69.8016 55.6347 69.8757 55.2202 69.8757C54.8293 69.8757 54.5183 69.8432 54.2875 69.778C54.0565 69.7128 53.8403 69.6154 53.6389 69.485L54.0832 68.2601C54.32 68.3903 54.5391 68.473 54.7404 68.5085C54.9417 68.544 55.1253 68.5618 55.2912 68.5618C55.6228 68.5618 55.901 68.3931 56.1262 68.0559C56.3511 67.7185 56.5466 67.2184 56.7123 66.5555L52.1112 57.3587H53.8166L56.9966 63.9101ZM211.493 36.434L211.628 34.5196H211.547L210.387 36.4879L205.584 42.5819H203.372V29.0997H206.879V35.5173L206.717 37.351H206.825L207.931 35.4365L212.788 29.0997H215V42.5819H211.493V36.434ZM207.742 23.5991C207.868 24.3002 208.08 24.7946 208.376 25.0822C208.673 25.3698 209.055 25.5136 209.523 25.5136C210.027 25.5136 210.427 25.3698 210.724 25.0822C211.021 24.7946 211.223 24.3093 211.331 23.6262L214.002 24.3002C213.786 25.4688 213.255 26.3361 212.41 26.9022C211.565 27.4685 210.575 27.7516 209.442 27.7516C208.885 27.7516 208.345 27.6888 207.824 27.563C207.302 27.4371 206.834 27.2349 206.42 26.9561C206.007 26.6776 205.656 26.3225 205.368 25.8911C205.08 25.4597 204.883 24.9293 204.775 24.3002L207.742 23.5991ZM187.912 39.6429C188.452 39.7507 188.965 39.8047 189.45 39.8047C190.259 39.8047 190.826 39.6563 191.15 39.3596C191.474 39.0631 191.636 38.6001 191.636 37.971C191.636 37.3958 191.474 36.9598 191.15 36.6634C190.826 36.3667 190.286 36.2183 189.531 36.2183C188.937 36.2183 188.398 36.2813 187.912 36.4072V39.6429ZM187.912 33.8995C188.344 33.8276 188.78 33.778 189.221 33.7512C189.661 33.7241 190.062 33.7107 190.421 33.7107C191.339 33.7107 192.103 33.814 192.715 34.0208C193.326 34.2276 193.821 34.5196 194.199 34.8972C194.576 35.2747 194.846 35.7196 195.008 36.232C195.17 36.7441 195.251 37.297 195.251 37.8902C195.251 38.6991 195.143 39.4092 194.927 40.0204C194.711 40.6315 194.36 41.1394 193.875 41.5437C193.389 41.9482 192.76 42.2538 191.986 42.4606C191.213 42.6672 190.26 42.7708 189.126 42.7708C188.101 42.7708 187.215 42.7528 186.469 42.7168C185.722 42.6809 185.034 42.6359 184.405 42.5819V29.0997H187.912V33.8995ZM196.789 29.0997H200.296V42.5819H196.789V29.0997ZM177.822 37.27H173.424V42.5819H169.917V29.0997H173.424V34.1691H177.822V29.0997H181.329V42.5819H177.822V37.27ZM160.204 39.6429C160.743 39.7507 161.256 39.8047 161.742 39.8047C162.605 39.8047 163.23 39.6563 163.617 39.3596C164.004 39.0631 164.197 38.6001 164.197 37.971C164.197 36.8026 163.406 36.2183 161.823 36.2183C161.229 36.2183 160.69 36.2813 160.204 36.4072V39.6429ZM160.204 33.8995C160.636 33.8276 161.072 33.778 161.512 33.7512C161.953 33.7241 162.353 33.7107 162.713 33.7107C163.648 33.7107 164.44 33.814 165.087 34.0208C165.735 34.2276 166.261 34.5196 166.666 34.8972C167.07 35.2747 167.363 35.7196 167.543 36.232C167.722 36.7441 167.812 37.297 167.812 37.8902C167.812 39.5259 167.327 40.7485 166.355 41.5573C165.384 42.3662 163.738 42.7708 161.418 42.7708C160.393 42.7708 159.507 42.7528 158.76 42.7168C158.014 42.6809 157.326 42.6359 156.696 42.5819V29.0997H160.204V33.8995ZM150.14 32.2008H147.469C147.361 33.477 147.236 34.7443 147.092 36.0026C146.948 37.2611 146.718 38.389 146.404 39.3867C146.089 40.3844 145.662 41.1933 145.122 41.8135C144.582 42.4336 143.881 42.7437 143.018 42.7437C141.974 42.7437 141.237 42.609 140.805 42.3392L141.237 39.4272C141.525 39.535 141.795 39.589 142.046 39.589C142.406 39.589 142.721 39.4361 142.991 39.1305C143.261 38.8249 143.49 38.2766 143.679 37.4857C143.867 36.6948 144.02 35.6206 144.137 34.2636C144.254 32.9063 144.34 31.1851 144.394 29.0997H153.648V42.5819H150.14V32.2008ZM129.339 29.8818C130.058 29.5582 130.913 29.302 131.902 29.1134C132.891 28.9245 133.926 28.8301 135.005 28.8301C135.94 28.8301 136.722 28.9425 137.352 29.1673C137.981 29.3919 138.481 29.7111 138.849 30.1245C139.218 30.538 139.479 31.0324 139.632 31.6076C139.785 32.1828 139.861 32.8299 139.861 33.5489C139.861 34.3398 139.834 35.1353 139.78 35.9353C139.726 36.7353 139.695 37.5216 139.686 38.2945C139.677 39.0677 139.699 39.8181 139.753 40.5462C139.807 41.2741 139.942 41.9617 140.158 42.609H137.298L136.731 40.7485H136.596C136.237 41.3057 135.738 41.7865 135.099 42.191C134.461 42.5953 133.638 42.7976 132.63 42.7976C132.001 42.7976 131.434 42.7032 130.931 42.5146C130.427 42.3257 129.995 42.0561 129.636 41.7057C129.276 41.3551 128.997 40.9416 128.799 40.4652C128.601 39.989 128.503 39.454 128.503 38.8609C128.503 38.034 128.687 37.3373 129.056 36.7712C129.424 36.2049 129.955 35.7464 130.647 35.396C131.34 35.0454 132.167 34.8028 133.13 34.6679C134.092 34.5332 135.167 34.4927 136.354 34.5466C136.479 33.54 136.408 32.8165 136.138 32.376C135.868 31.9355 135.265 31.7154 134.33 31.7154C133.629 31.7154 132.887 31.7873 132.104 31.9311C131.322 32.0749 130.679 32.2636 130.175 32.4972L129.339 29.8818ZM133.791 39.9125C134.492 39.9125 135.05 39.7553 135.463 39.4406C135.877 39.1259 136.183 38.789 136.381 38.4295V36.6768C135.823 36.6229 135.288 36.6138 134.775 36.6497C134.263 36.6857 133.809 36.7667 133.413 36.8925C133.017 37.0183 132.702 37.198 132.468 37.4317C132.235 37.6654 132.118 37.9621 132.118 38.3216C132.118 38.8249 132.266 39.2158 132.563 39.4945C132.86 39.7733 133.269 39.9125 133.791 39.9125ZM114.851 29.0997H117.414L117.818 30.7177H117.926C118.394 30.0346 118.947 29.5314 119.586 29.2078C120.224 28.884 121.002 28.7223 121.919 28.7223C123.61 28.7223 124.878 29.2572 125.723 30.3268C126.569 31.3962 126.991 33.1175 126.991 35.4904C126.991 36.6408 126.857 37.6788 126.587 38.6047C126.317 39.5305 125.917 40.3168 125.386 40.9642C124.856 41.6113 124.208 42.1055 123.444 42.447C122.679 42.7887 121.802 42.9594 120.813 42.9594C120.256 42.9594 119.797 42.9189 119.437 42.8381C119.077 42.7571 118.718 42.627 118.358 42.447V47.9747H114.851V29.0997ZM120.867 31.6884C120.184 31.6884 119.648 31.8592 119.262 32.2008C118.875 32.5423 118.574 33.0547 118.358 33.7377V39.3462C118.61 39.5439 118.884 39.7014 119.181 39.8181C119.478 39.935 119.869 39.9933 120.354 39.9933C121.362 39.9933 122.117 39.6383 122.621 38.9282C123.124 38.2183 123.376 37.0454 123.376 35.4094C123.376 34.2231 123.178 33.3063 122.783 32.659C122.387 32.0119 121.748 31.6884 120.867 31.6884ZM111.937 41.4224C111.397 41.8538 110.664 42.2179 109.738 42.5146C108.811 42.8111 107.827 42.9594 106.783 42.9594C104.607 42.9594 103.015 42.3257 102.008 41.0584C101.001 39.7912 100.497 38.052 100.497 35.8408C100.497 33.4681 101.064 31.6884 102.197 30.502C103.33 29.3156 104.922 28.7223 106.972 28.7223C107.656 28.7223 108.321 28.8121 108.969 28.9919C109.616 29.1718 110.192 29.4683 110.695 29.8818C111.199 30.2952 111.604 30.8524 111.91 31.5537C112.215 32.2547 112.368 33.1266 112.368 34.1691C112.368 34.5466 112.346 34.9512 112.301 35.3826C112.256 35.814 112.188 36.2633 112.098 36.7307H104.004C104.058 37.8631 104.351 38.7171 104.881 39.2923C105.412 39.8675 106.271 40.1551 107.458 40.1551C108.195 40.1551 108.856 40.0429 109.441 39.8181C110.025 39.5933 110.471 39.3642 110.776 39.1305L111.937 41.4224ZM106.918 31.5266C106.001 31.5266 105.322 31.8008 104.881 32.3491C104.441 32.8972 104.175 33.6299 104.085 34.5466H109.104C109.175 33.576 109.027 32.8299 108.658 32.3086C108.29 31.7873 107.71 31.5266 106.918 31.5266ZM99.229 45.6559H96.6659L96.2611 42.5819H87.1959L86.7911 45.6559H84.228V39.4811H85.8199C85.9638 39.2834 86.1482 38.9462 86.3729 38.47C86.5978 37.9935 86.8225 37.3419 87.0475 36.515C87.2724 35.6881 87.4657 34.6633 87.6275 33.441C87.7894 32.2187 87.8703 30.7716 87.8703 29.0997H97.2594V39.4811H99.229V45.6559ZM93.752 39.6429V32.0658H90.9191C90.8832 32.7129 90.8201 33.4005 90.7302 34.1286C90.6403 34.8567 90.5278 35.5623 90.393 36.2454C90.258 36.9284 90.1007 37.5667 89.9208 38.1598C89.741 38.753 89.5431 39.2474 89.3273 39.6429H93.752ZM83.2029 41.4224C82.6633 41.8538 81.9302 42.2179 81.0038 42.5146C80.0777 42.8111 79.0928 42.9594 78.0496 42.9594C75.8731 42.9594 74.2813 42.3257 73.2741 41.0584C72.2669 39.7912 71.7633 38.052 71.7633 35.8408C71.7633 33.4681 72.3298 31.6884 73.4631 30.502C74.5962 29.3156 76.188 28.7223 78.2384 28.7223C78.922 28.7223 79.5875 28.8121 80.235 28.9919C80.8825 29.1718 81.458 29.4683 81.9616 29.8818C82.4654 30.2952 82.87 30.8524 83.1758 31.5537C83.4815 32.2547 83.6345 33.1266 83.6345 34.1691C83.6345 34.5466 83.612 34.9512 83.5671 35.3826C83.522 35.814 83.4547 36.2633 83.3647 36.7307H75.2707C75.3247 37.8631 75.6168 38.7171 76.1475 39.2923C76.6782 39.8675 77.5369 40.1551 78.7242 40.1551C79.4616 40.1551 80.1225 40.0429 80.7072 39.8181C81.2916 39.5933 81.7369 39.3642 82.0427 39.1305L83.2029 41.4224ZM78.1844 31.5266C77.2672 31.5266 76.5882 31.8008 76.1475 32.3491C75.7069 32.8972 75.4415 33.6299 75.3516 34.5466H80.3698C80.4417 33.576 80.2935 32.8299 79.9247 32.3086C79.5561 31.7873 78.976 31.5266 78.1844 31.5266ZM59.7032 42.7437C59.3974 42.8515 59.0782 42.9146 58.7454 42.9325C58.4125 42.9505 58.1113 42.9594 57.8415 42.9594C56.2048 42.9594 54.9456 42.3751 54.0643 41.2067C53.183 40.0383 52.7423 38.2497 52.7423 35.8408C52.7423 33.54 53.2279 31.7962 54.1993 30.6099C55.1705 29.4235 56.5734 28.8301 58.4082 28.8301C58.9118 28.8301 59.3434 28.8661 59.7032 28.938V23.707H63.1566V28.965C63.4804 28.9111 63.7681 28.8752 64.0199 28.8572C64.2717 28.8392 64.5147 28.8301 64.7485 28.8301C66.5291 28.8301 67.8691 29.3559 68.7684 30.4076C69.6679 31.4592 70.1175 33.1805 70.1175 35.5712C70.1175 36.7036 69.9959 37.7239 69.7533 38.6317C69.5103 39.5394 69.1552 40.3168 68.6875 40.9642C68.2199 41.6113 67.6487 42.1055 66.9743 42.447C66.2998 42.7887 65.5219 42.9594 64.6405 42.9594C64.4787 42.9594 64.2403 42.946 63.9255 42.9189C63.6108 42.892 63.3545 42.8427 63.1566 42.7708V47.9747H59.7032V42.7437ZM63.966 31.6076C63.7861 31.6076 63.6288 31.621 63.4938 31.6479C63.359 31.6749 63.1926 31.7063 62.9947 31.7423V40.1011C63.1386 40.1371 63.3051 40.1596 63.4938 40.1687C63.6828 40.1776 63.8851 40.1821 64.101 40.1821C64.9643 40.1821 65.5983 39.8272 66.0029 39.1171C66.4077 38.4069 66.6101 37.2251 66.6101 35.5712C66.6101 34.1691 66.4122 33.158 66.0166 32.5377C65.6209 31.9175 64.9372 31.6076 63.966 31.6076ZM58.7588 40.1821C58.9566 40.1821 59.141 40.1687 59.312 40.1416C59.4828 40.1148 59.6672 40.0832 59.865 40.0472V31.7154C59.5233 31.6435 59.1725 31.6076 58.8128 31.6076C57.9854 31.6076 57.3514 31.9266 56.9108 32.5648C56.4701 33.2028 56.2497 34.295 56.2497 35.8408C56.2497 37.2431 56.4521 38.3171 56.8569 39.0631C57.2614 39.8092 57.8955 40.1821 58.7588 40.1821ZM170.861 12.8349L170.996 10.9204H170.915L169.755 12.8888L164.952 18.9828H162.74V5.50059H166.247V11.9181L166.085 13.7518H166.193L167.299 11.8374L172.156 5.50059H174.368V18.9828H170.861V12.8349ZM167.11 0C167.236 0.701029 167.448 1.19545 167.744 1.48305C168.041 1.77066 168.423 1.91445 168.891 1.91445C169.395 1.91445 169.795 1.77066 170.092 1.48305C170.389 1.19545 170.591 0.710125 170.699 0.0270709L173.37 0.701021C173.154 1.86962 172.623 2.73698 171.778 3.30309C170.933 3.86941 169.943 4.15246 168.81 4.15246C168.253 4.15246 167.713 4.08965 167.191 3.96383C166.67 3.838 166.202 3.63573 165.788 3.35701C165.375 3.0785 165.024 2.72333 164.736 2.29192C164.448 1.86052 164.25 1.33015 164.143 0.701021L167.11 0ZM156.157 12.8349L156.291 10.9204H156.211L155.05 12.8888L150.248 18.9828H148.036V5.50059H151.543V11.9181L151.381 13.7518H151.489L152.595 11.8374L157.452 5.50059H159.664V18.9828H156.157V12.8349ZM139.294 13.4012H138.35V18.9828H134.842V5.50059H138.35V11.244L139.186 10.8665L142.343 5.50059H146.093L142.828 10.6239L141.452 11.6485L142.963 12.7002L146.606 18.9828H142.586L139.294 13.4012ZM132.711 18.1468C132.171 18.5423 131.519 18.8435 130.755 19.0501C129.99 19.257 129.203 19.3603 128.394 19.3603C127.315 19.3603 126.402 19.1896 125.656 18.8479C124.909 18.5063 124.302 18.0256 123.834 17.4053C123.367 16.7853 123.029 16.0347 122.823 15.1539C122.616 14.2731 122.512 13.3024 122.512 12.2417C122.512 9.95885 123.025 8.20162 124.05 6.97021C125.075 5.73881 126.568 5.12312 128.529 5.12312C129.518 5.12312 130.314 5.20412 130.917 5.36589C131.519 5.52767 132.063 5.73448 132.549 5.98613L131.713 8.84418C131.299 8.64645 130.89 8.49377 130.485 8.38592C130.08 8.27807 129.617 8.22415 129.095 8.22415C128.124 8.22415 127.387 8.54315 126.883 9.18137C126.38 9.81938 126.128 10.8396 126.128 12.2417C126.128 12.8169 126.191 13.3473 126.316 13.8326C126.442 14.3179 126.631 14.7404 126.883 15.0999C127.135 15.4594 127.463 15.7425 127.868 15.9493C128.273 16.1561 128.745 16.2594 129.284 16.2594C129.878 16.2594 130.381 16.183 130.795 16.0301C131.209 15.8774 131.578 15.6931 131.901 15.4774L132.711 18.1468ZM116.577 13.6708H112.179V18.9828H108.672V5.50059H112.179V10.57H116.577V5.50059H120.084V18.9828H116.577V13.6708ZM95.2086 6.28261C95.9283 5.95906 96.7825 5.70286 97.7719 5.51423C98.7611 5.32539 99.7954 5.23097 100.875 5.23097C101.81 5.23097 102.592 5.34337 103.222 5.56816C103.851 5.79274 104.351 6.11197 104.719 6.52539C105.088 6.93882 105.349 7.43325 105.502 8.00845C105.654 8.58365 105.731 9.23075 105.731 9.94975C105.731 10.7407 105.704 11.5361 105.65 12.3361C105.596 13.1361 105.564 13.9225 105.556 14.6954C105.546 15.4685 105.569 16.2189 105.623 16.947C105.677 17.6749 105.812 18.3625 106.028 19.0099H103.168L102.601 17.1493H102.466C102.107 17.7065 101.607 18.1873 100.969 18.5919C100.33 18.9962 99.5074 19.1985 98.5002 19.1985C97.8707 19.1985 97.3041 19.1041 96.8005 18.9154C96.2969 18.7266 95.8652 18.457 95.5055 18.1066C95.1458 17.7559 94.8669 17.3425 94.6691 16.8661C94.4712 16.3898 94.3724 15.8549 94.3724 15.2617C94.3724 14.4349 94.5566 13.7382 94.9254 13.1721C95.2942 12.6057 95.8247 12.1473 96.5173 11.7969C97.2098 11.4462 98.0371 11.2037 98.9995 11.0688C99.9616 10.934 101.036 10.8936 102.223 10.9475C102.349 9.94088 102.277 9.21733 102.008 8.77683C101.738 8.33633 101.135 8.1163 100.2 8.1163C99.4985 8.1163 98.7566 8.1882 97.9741 8.332C97.1918 8.4758 96.5487 8.66442 96.0451 8.8981L95.2086 6.28261ZM99.6604 16.3134C100.362 16.3134 100.919 16.1561 101.333 15.8415C101.747 15.5268 102.053 15.1898 102.251 14.8303V13.0776C101.693 13.0237 101.158 13.0146 100.645 13.0506C100.133 13.0865 99.6784 13.1675 99.2827 13.2933C98.887 13.4192 98.5722 13.5989 98.3384 13.8326C98.1046 14.0663 97.9877 14.363 97.9877 14.7225C97.9877 15.2258 98.1359 15.6167 98.4328 15.8954C98.7297 16.1741 99.1388 16.3134 99.6604 16.3134ZM85.0372 13.4012V10.9475H86.683C87.3125 10.9475 87.8297 10.8217 88.2343 10.57C88.6391 10.3184 88.8415 9.98571 88.8415 9.57228C88.8415 9.08695 88.6616 8.74087 88.3019 8.53427C87.9422 8.32745 87.3935 8.22415 86.6561 8.22415C85.9547 8.22415 85.3341 8.31402 84.7945 8.49377C84.2549 8.67352 83.823 8.86215 83.4993 9.05988L82.7439 6.39046C83.2835 6.08489 83.9986 5.81981 84.8887 5.59501C85.7791 5.37043 86.7281 5.25804 87.7353 5.25804C89.282 5.25804 90.4377 5.54564 91.2022 6.12084C91.9667 6.69605 92.3489 7.532 92.3489 8.62848C92.3489 8.93405 92.3084 9.24418 92.2273 9.55885C92.1465 9.87331 92.0161 10.1746 91.8362 10.4622C91.6563 10.7498 91.436 11.006 91.1753 11.2305C90.9144 11.4553 90.6041 11.6305 90.2444 11.7564V11.8642C91.1976 12.0799 91.8722 12.4619 92.2679 13.0103C92.6635 13.5584 92.8614 14.2911 92.8614 15.2078C92.8614 15.783 92.7446 16.3179 92.5108 16.8121C92.277 17.3065 91.9216 17.7334 91.4451 18.0929C90.9683 18.4524 90.3703 18.74 89.6508 18.9557C88.9314 19.1716 88.077 19.2795 87.0878 19.2795C86.0985 19.2795 85.2396 19.176 84.511 18.9694C83.7827 18.7625 83.1756 18.5243 82.6899 18.2547L83.4453 15.5313C83.859 15.765 84.3583 15.9539 84.9427 16.0977C85.5273 16.2415 86.1794 16.3134 86.8988 16.3134C88.5357 16.3134 89.354 15.7921 89.354 14.7493C89.354 14.282 89.1427 13.9404 88.7199 13.7247C88.2974 13.509 87.5103 13.4012 86.3592 13.4012H85.0372ZM70.1713 6.28261C70.8909 5.95906 71.7451 5.70286 72.7345 5.51423C73.7238 5.32539 74.758 5.23097 75.8372 5.23097C76.7724 5.23097 77.5549 5.34337 78.1844 5.56816C78.8139 5.79274 79.3132 6.11197 79.6818 6.52539C80.0506 6.93882 80.3113 7.43325 80.4643 8.00845C80.617 8.58365 80.6935 9.23075 80.6935 9.94975C80.6935 10.7407 80.6667 11.5361 80.6127 12.3361C80.5588 13.1361 80.5271 13.9225 80.5182 14.6954C80.5091 15.4685 80.5317 16.2189 80.5856 16.947C80.6396 17.6749 80.7746 18.3625 80.9904 19.0099H78.1305L77.5638 17.1493H77.429C77.0693 17.7065 76.57 18.1873 75.9317 18.5919C75.2931 18.9962 74.47 19.1985 73.4629 19.1985C72.8334 19.1985 72.2667 19.1041 71.7631 18.9154C71.2595 18.7266 70.8278 18.457 70.4681 18.1066C70.1084 17.7559 69.8295 17.3425 69.6317 16.8661C69.4338 16.3898 69.335 15.8549 69.335 15.2617C69.335 14.4349 69.5192 13.7382 69.888 13.1721C70.2568 12.6057 70.7873 12.1473 71.4799 11.7969C72.1724 11.4462 72.9998 11.2037 73.9621 11.0688C74.9242 10.934 75.999 10.8936 77.1861 10.9475C77.312 9.94088 77.2401 9.21733 76.9703 8.77683C76.7005 8.33633 76.0979 8.1163 75.1626 8.1163C74.4612 8.1163 73.7192 8.1882 72.9367 8.332C72.1544 8.4758 71.5113 8.66442 71.0077 8.8981L70.1713 6.28261ZM74.623 16.3134C75.3245 16.3134 75.882 16.1561 76.2957 15.8415C76.7096 15.5268 77.0153 15.1898 77.2132 14.8303V13.0776C76.6556 13.0237 76.1204 13.0146 75.6079 13.0506C75.0952 13.0865 74.641 13.1675 74.2453 13.2933C73.8496 13.4192 73.5348 13.5989 73.301 13.8326C73.0672 14.0663 72.9504 14.363 72.9504 14.7225C72.9504 15.2258 73.0986 15.6167 73.3955 15.8954C73.6923 16.1741 74.1015 16.3134 74.623 16.3134Z" fill="black"/>
</g>
<defs>
<filter id="filter0_d_54_375" x="0" y="0" width="216" height="71" filterUnits="userSpaceOnUse" color-interpolation-filters="sRGB">
<feFlood flood-opacity="0" result="BackgroundImageFix"/>
<feColorMatrix in="SourceAlpha" type="matrix" values="0 0 0 0 0 0 0 0 0 0 0 0 0 0 0 0 0 0 127 0" result="hardAlpha"/>
<feOffset dx="1" dy="1"/>
<feComposite in2="hardAlpha" operator="out"/>
<feColorMatrix type="matrix" values="0 0 0 0 0 0 0 0 0 0.815686 0 0 0 0 0.803922 0 0 0 1 0"/>
<feBlend mode="normal" in2="BackgroundImageFix" result="effect1_dropShadow_54_375"/>
<feBlend mode="normal" in="SourceGraphic" in2="effect1_dropShadow_54_375" result="shape"/>
</filter>
</defs>
</svg>
