<svg width="21" height="21" viewBox="0 0 21 21" fill="none" xmlns="http://www.w3.org/2000/svg">
<path d="M6.61964 15.4628L12.348 9.73446L12.348 14.7426H14.3848V6.25736H5.89949V8.29409L10.9077 8.29418L5.17935 14.0225L6.61964 15.4628Z" fill="black"/>
<path fill-rule="evenodd" clip-rule="evenodd" d="M17.2132 3.42893C21.1185 7.33425 21.1185 13.6658 17.2132 17.5711C13.3079 21.4764 6.97638 21.4764 3.07107 17.5711C-0.834247 13.6658 -0.834247 7.33425 3.07107 3.42893C6.97638 -0.476382 13.3079 -0.476382 17.2132 3.42893ZM18.1422 10.4999C18.1421 8.37842 17.2993 6.34342 15.799 4.84315C14.2987 3.34287 12.2637 2.50008 10.1422 2.49991C8.02038 2.50008 5.98547 3.34296 4.48528 4.84315C2.98492 6.3435 2.14221 8.37825 2.14221 10.4999C2.14204 12.6218 2.98501 14.6566 4.48528 16.1569C5.98555 17.6571 8.02038 18.5001 10.1422 18.4999C12.2639 18.4999 14.2986 17.6572 15.799 16.1569C17.2992 14.6567 18.1421 12.6218 18.1422 10.4999Z" fill="black"/>
</svg>
