<svg width="218" height="36" viewBox="0 0 218 36" fill="none" xmlns="http://www.w3.org/2000/svg">
<path d="M146.698 0.33506H152.318C171.925 27.8549 151.022 -1.48444 177.73 35.9999H171.935C149.663 4.52245 174.151 39.1487 146.698 0.33506Z" fill="url(#paint0_linear_96_124)"/>
<path d="M138.303 35.9999C173.738 0.794852 148.527 25.6701 174.198 0.33506H176.784C149.886 37.1483 171.782 7.18786 150.724 35.9999H138.303Z" fill="#373737"/>
<path d="M217.888 35.9999C182.453 0.794852 207.664 25.6701 181.994 0.33506H179.407C206.305 37.1483 184.409 7.18786 205.467 35.9999H217.888Z" fill="#373737"/>
<path d="M205.467 35.9999C161.786 0.794852 192.864 25.6701 161.219 0.33506H158.031C191.189 37.1483 164.197 7.18786 190.155 35.9999H205.467Z" fill="url(#paint1_linear_96_124)"/>
<path d="M10.7134 0.531028V13.5985C10.7134 13.768 10.5759 13.9055 10.4063 13.9055H8.68888C8.51934 13.9055 8.38183 13.768 8.38183 13.5985V2.23817H2.33151V13.5985C2.33151 13.768 2.194 13.9055 2.02446 13.9055H0.30705C0.137511 13.9055 0 13.768 0 13.5985V0.531028C0 0.361489 0.137511 0.223978 0.30705 0.223978H10.4063C10.5759 0.223978 10.7134 0.361489 10.7134 0.531028ZM13.2355 13.5985V0.531028C13.2355 0.361489 13.373 0.223978 13.5425 0.223978H22.279C22.4486 0.223978 22.5861 0.361489 22.5861 0.531028V1.89378C22.5861 2.06332 22.4486 2.20083 22.279 2.20083H15.567V5.99235H20.8229C20.9925 5.99235 21.13 6.12986 21.13 6.2994V7.60615C21.13 7.77568 20.9925 7.9132 20.8229 7.9132H15.567V11.9287H22.5404C22.7099 11.9287 22.8475 12.0662 22.8475 12.2357V13.5985C22.8475 13.768 22.7099 13.9055 22.5404 13.9055H13.5425C13.373 13.9055 13.2355 13.768 13.2355 13.5985ZM23.5028 1.93112V0.531028C23.5028 0.361489 23.6403 0.223978 23.8098 0.223978H33.7037C33.8733 0.223978 34.0108 0.361489 34.0108 0.531028V1.93112C34.0108 2.10066 33.8733 2.23817 33.7037 2.23817H29.9225V13.5985C29.9225 13.768 29.785 13.9055 29.6155 13.9055H27.898C27.7285 13.9055 27.591 13.768 27.591 13.5985V2.23817H23.8098C23.6403 2.23817 23.5028 2.10066 23.5028 1.93112ZM35.4315 13.5985V0.531028C35.4315 0.361489 35.569 0.223978 35.7385 0.223978H40.9282C42.2667 0.223978 43.3807 0.569191 44.2701 1.25953C44.7301 1.61654 45.0749 2.06893 45.3041 2.61628C45.5285 3.15231 45.6408 3.77642 45.6408 4.4886C45.6408 5.92007 45.1932 6.98095 44.2981 7.67103C43.8598 8.00893 43.3606 8.26185 42.8008 8.42964C42.2472 8.59557 41.6353 8.67856 40.9655 8.67856H37.763V13.5985C37.763 13.768 37.6255 13.9055 37.4559 13.9055H35.7385C35.569 13.9055 35.4315 13.768 35.4315 13.5985ZM37.763 6.73904H40.7415C41.1533 6.73904 41.5197 6.69048 41.8405 6.59361C42.1516 6.49962 42.4207 6.35958 42.6473 6.17394C42.8655 5.99518 43.0293 5.77024 43.1384 5.49944C43.2523 5.21672 43.3093 4.87973 43.3093 4.4886C43.3093 3.72668 43.0886 3.16484 42.6473 2.80331C42.1875 2.42659 41.5522 2.23817 40.7415 2.23817H37.763V6.73904ZM48.1858 12.1488C47.6534 11.4955 47.2546 10.7427 46.9896 9.89074C46.7264 9.04479 46.5948 8.10271 46.5948 7.06476C46.5948 6.02681 46.7264 5.08478 46.9896 4.23873C47.2546 3.38673 47.6534 2.63399 48.1858 1.98072C48.7241 1.32024 49.3751 0.824327 50.1386 0.493082C50.8963 0.164404 51.7588 0 52.7262 0C53.7015 0 54.5688 0.164012 55.3279 0.491907C56.0933 0.822499 56.7458 1.31884 57.2853 1.98072C57.8177 2.63399 58.2165 3.38678 58.4815 4.23878C58.7446 5.08478 58.8763 6.02681 58.8763 7.06476C58.8763 9.15271 58.3459 10.8474 57.2853 12.1488C56.7458 12.8107 56.0933 13.307 55.3278 13.6377C54.5687 13.9656 53.7015 14.1296 52.7262 14.1296C51.7589 14.1296 50.8963 13.9652 50.1386 13.6364C49.3751 13.3052 48.7241 12.8092 48.1858 12.1488ZM49.9503 3.3886C49.611 3.8594 49.3559 4.39922 49.185 5.00775C49.0126 5.62168 48.9263 6.30741 48.9263 7.06476C48.9263 7.82212 49.0126 8.50784 49.185 9.12177C49.3559 9.7303 49.611 10.2701 49.9503 10.741C50.2813 11.2004 50.6763 11.5442 51.135 11.7721C51.5954 12.0009 52.1259 12.1154 52.7262 12.1154C53.9291 12.1154 54.8606 11.6572 55.5208 10.741C55.86 10.2701 56.1152 9.7303 56.2861 9.12177C56.4585 8.50784 56.5447 7.82212 56.5447 7.06476C56.5447 6.30745 56.4585 5.62172 56.2861 5.00771C56.1152 4.39922 55.86 3.8594 55.5208 3.3886C54.8606 2.47237 53.9291 2.01419 52.7262 2.01419C51.5358 2.01419 50.6105 2.47237 49.9503 3.3886ZM68.3408 1.13882C70.1931 1.14343 71.6867 1.6185 72.8215 2.5641C73.4021 3.04791 73.8374 3.64217 74.1272 4.34661C74.4139 5.04357 74.5572 5.84391 74.5572 6.74744C74.5572 7.64492 74.4138 8.44061 74.1271 9.13426C73.8372 9.83574 73.4019 10.4284 72.8215 10.9121C72.2484 11.3897 71.5834 11.7473 70.8271 11.9847C70.0852 12.2175 69.2563 12.3351 68.3408 12.3374V13.5985C68.3408 13.768 68.2033 13.9055 68.0338 13.9055H66.3723C66.2028 13.9055 66.0653 13.768 66.0653 13.5985V12.3374C64.2168 12.336 62.7231 11.8609 61.5846 10.9121C61.0041 10.4284 60.5689 9.83565 60.279 9.13422C59.9923 8.44061 59.8489 7.64492 59.8489 6.74744C59.8489 5.84391 59.9923 5.04352 60.279 4.34665C60.5687 3.64217 61.004 3.04791 61.5846 2.5641C62.7231 1.61532 64.2168 1.14021 66.0653 1.13877V0.30705C66.0653 0.137511 66.2028 0 66.3723 0H68.0338C68.2033 0 68.3408 0.137511 68.3408 0.30705V1.13882ZM66.0653 10.3782V3.09796C65.5025 3.10771 64.9935 3.18617 64.5384 3.33329C64.0579 3.48869 63.6336 3.72154 63.266 4.03177C62.9066 4.33504 62.6366 4.70936 62.4563 5.15449C62.2724 5.60849 62.1805 6.13956 62.1805 6.74744C62.1805 7.34883 62.2724 7.87525 62.4563 8.32638C62.6365 8.76824 62.9064 9.141 63.266 9.4444C63.6336 9.75463 64.0579 9.98748 64.5384 10.1429C64.9935 10.29 65.5025 10.3685 66.0653 10.3782ZM68.3408 10.3782C68.9035 10.3685 69.4126 10.29 69.8677 10.1429C70.3482 9.98752 70.7724 9.75463 71.1401 9.4444C71.4997 9.141 71.7696 8.7682 71.9498 8.32642C72.1337 7.87525 72.2257 7.34888 72.2257 6.74744C72.2257 6.13952 72.1337 5.60845 71.9498 5.15444C71.7695 4.70932 71.4995 4.33499 71.1401 4.03177C70.7724 3.72154 70.3482 3.48865 69.8677 3.33329C69.4126 3.18612 68.9035 3.10771 68.3408 3.09796V10.3782ZM84.3494 0.223978H87.0376C87.2071 0.223978 87.3446 0.361489 87.3446 0.531028V13.5985C87.3446 13.768 87.2071 13.9055 87.0376 13.9055H85.3575C85.188 13.9055 85.0504 13.768 85.0504 13.5985V2.99509L79.544 13.7376C79.49 13.8434 79.3829 13.9042 79.2718 13.9043V13.9055H76.5836C76.4141 13.9055 76.2766 13.768 76.2766 13.5985V0.531028C76.2766 0.361489 76.4141 0.223978 76.5836 0.223978H78.2824C78.4519 0.223978 78.5894 0.361489 78.5894 0.531028V11.131L84.0772 0.391906C84.1312 0.286162 84.2383 0.225327 84.3494 0.22524V0.223978ZM96.8039 6.87908L96.8757 6.90166C97.4094 7.07346 97.8708 7.31198 98.2598 7.61707C99.0599 8.24479 99.4601 9.11859 99.4601 10.2383C99.4601 10.8575 99.3396 11.4099 99.0986 11.8952C98.8563 12.3833 98.4948 12.7979 98.0144 13.1386C97.5455 13.4712 96.9961 13.7202 96.3666 13.8854C95.7463 14.0481 95.051 14.1296 94.2807 14.1296C90.946 14.1296 89.1456 12.6736 88.8798 9.76185C88.8646 9.59366 88.9886 9.44488 89.1568 9.42965L89.1676 9.42886L89.1676 9.42843L90.7917 9.33508C90.9606 9.32582 91.105 9.45523 91.1143 9.62412L91.1144 9.62743C91.1955 10.4805 91.4908 11.1153 92.0003 11.5316C92.5221 11.9581 93.2824 12.1714 94.2807 12.1714C94.7526 12.1714 95.1688 12.1228 95.5293 12.0259C95.8794 11.9317 96.1768 11.7924 96.4213 11.6084C96.6554 11.4321 96.8312 11.2142 96.9484 10.9547C97.0685 10.689 97.1285 10.3755 97.1285 10.0143C97.1285 9.67033 97.0716 9.37038 96.9577 9.11459C96.8463 8.8642 96.6779 8.65014 96.4527 8.4726C96.2208 8.28983 95.9289 8.15184 95.5772 8.05871C95.2109 7.96172 94.7787 7.9132 94.2807 7.9132H92.6193C92.4497 7.9132 92.3122 7.77568 92.3122 7.60615V6.2994C92.3122 6.12986 92.4497 5.99235 92.6193 5.99235H94.262C94.6899 5.99235 95.0629 5.94618 95.3809 5.85392C95.6886 5.76463 95.9475 5.63247 96.1574 5.45762C96.3612 5.28773 96.5145 5.08373 96.617 4.84583C96.7215 4.60327 96.7738 4.32237 96.7738 4.00327C96.7738 3.66441 96.72 3.36906 96.6123 3.11745C96.5077 2.87298 96.3506 2.66554 96.1411 2.4953C95.9245 2.31928 95.6655 2.18634 95.3645 2.09661C95.0551 2.00435 94.6999 1.95818 94.2993 1.95818C93.8913 1.95818 93.5194 2.00744 93.1839 2.10596C92.8529 2.20318 92.5534 2.34905 92.2858 2.54343C92.029 2.72994 91.8271 2.96663 91.6805 3.25331C91.5287 3.54983 91.4329 3.90279 91.3931 4.31202C91.3774 4.4786 91.2308 4.60135 91.0646 4.58826L91.0645 4.58908L89.4404 4.45845C89.2715 4.44522 89.1453 4.29752 89.1586 4.12864C89.1593 4.11911 89.1605 4.10975 89.1621 4.10053C89.2296 3.42263 89.3933 2.8289 89.653 2.31937C89.9202 1.79508 90.2882 1.35958 90.7569 1.01323C91.2168 0.673239 91.7448 0.418799 92.3404 0.250044C92.9287 0.083377 93.5818 0 94.2993 0C95.7064 0 96.8507 0.308181 97.732 0.924414C98.1888 1.24382 98.5324 1.63817 98.7626 2.10714C98.9911 2.57272 99.1054 3.10527 99.1054 3.70457C99.1054 4.21667 99.0184 4.67951 98.8445 5.0927C98.6685 5.51102 98.4059 5.87229 98.0571 6.17616C97.7158 6.47346 97.298 6.70784 96.8039 6.87908ZM109.29 0.223978H111.978C112.147 0.223978 112.285 0.361489 112.285 0.531028V13.5985C112.285 13.768 112.147 13.9055 111.978 13.9055H110.298C110.128 13.9055 109.991 13.768 109.991 13.5985V2.99509L104.484 13.7376C104.43 13.8434 104.323 13.9042 104.212 13.9043V13.9055H101.524C101.354 13.9055 101.217 13.768 101.217 13.5985V0.531028C101.217 0.361489 101.354 0.223978 101.524 0.223978H103.223C103.392 0.223978 103.53 0.361489 103.53 0.531028V11.131L109.017 0.391906C109.071 0.286162 109.179 0.225327 109.29 0.22524V0.223978ZM125.587 13.9055H123.533C123.43 13.9055 123.34 13.8551 123.284 13.7777L118.772 7.9692H117.138V13.5985C117.138 13.768 117.001 13.9055 116.831 13.9055H115.114C114.944 13.9055 114.807 13.768 114.807 13.5985V0.531028C114.807 0.361489 114.944 0.223978 115.114 0.223978H116.831C117.001 0.223978 117.138 0.361489 117.138 0.531028V6.01102H118.751L122.99 0.34752C123.05 0.267494 123.142 0.225283 123.234 0.22524V0.223978H125.213C125.383 0.223978 125.52 0.361489 125.52 0.531028C125.52 0.61175 125.489 0.685249 125.438 0.740036L120.637 6.87621L125.826 13.4078C125.932 13.5403 125.91 13.733 125.777 13.8384C125.721 13.8832 125.653 13.9049 125.587 13.9049V13.9055ZM136.06 13.6725L134.981 10.4707H129.483L128.378 13.6968C128.335 13.8245 128.216 13.905 128.088 13.905V13.9055H126.371C126.201 13.9055 126.064 13.768 126.064 13.5985C126.064 13.5542 126.073 13.512 126.09 13.4739L130.655 0.430288C130.699 0.304004 130.818 0.224892 130.944 0.224892V0.223978H133.558C133.701 0.223978 133.821 0.321497 133.855 0.453569L138.42 13.4978C138.476 13.6574 138.392 13.8319 138.232 13.8875C138.199 13.8991 138.165 13.9046 138.131 13.9046V13.9055H136.358C136.214 13.9055 136.093 13.8063 136.06 13.6725ZM132.231 2.41737L130.141 8.54984H134.306L132.231 2.41737Z" fill="#373737"/>
<defs>
<linearGradient id="paint0_linear_96_124" x1="177.73" y1="18.1675" x2="146.698" y2="18.1675" gradientUnits="userSpaceOnUse">
<stop stop-color="#00C7D4"/>
<stop offset="1" stop-color="#02E7BD"/>
</linearGradient>
<linearGradient id="paint1_linear_96_124" x1="205.467" y1="18.1675" x2="158.031" y2="18.1675" gradientUnits="userSpaceOnUse">
<stop stop-color="#00C7D4"/>
<stop offset="1" stop-color="#02E7BD"/>
</linearGradient>
</defs>
</svg>
