<svg width="88" height="121" viewBox="0 0 88 121" fill="none" xmlns="http://www.w3.org/2000/svg">
<path fill-rule="evenodd" clip-rule="evenodd" d="M70.4066 9.41705L70.9244 23.1453L64.6253 25.2172L70.4066 9.41705ZM33.5431 111.802C33.6052 111.899 33.7304 111.932 33.8313 111.881H33.8318L48.4841 104.441L41.8613 114.489C41.7937 114.593 41.8223 114.732 41.9252 114.799C42.0281 114.867 42.1668 114.838 42.2344 114.735L49.0866 104.339L52.5915 113.031C52.6374 113.146 52.7678 113.202 52.8823 113.156C52.9968 113.11 53.0525 112.979 53.0065 112.865L49.3704 103.847L53.1284 90.4077L60.4015 98.7123C60.4827 98.8055 60.6241 98.8146 60.7168 98.7333C60.8096 98.6524 60.8191 98.5108 60.7378 98.4181L53.3323 89.9619L60.4141 83.0538L62.4311 92.2518C62.4572 92.3729 62.5765 92.4496 62.6974 92.4236C62.8182 92.3975 62.8952 92.2783 62.8691 92.1573L61.0407 83.8194L66.6192 92.7018C66.6849 92.8064 66.823 92.8374 66.9274 92.7721C67.0318 92.7063 67.0631 92.5679 66.9974 92.4633L61.1127 83.0931L70.5494 87.0708L73.8006 92.3217L74.185 92.3148L76.1974 88.7724L79.2191 89.6773L79.5054 89.4887L80.4998 81.1631C80.5143 81.0402 80.4265 80.9288 80.3037 80.9142C80.2483 80.9078 80.1953 80.9224 80.1524 80.9512L70.6837 86.6424L60.894 82.5161L71.7072 67.7379C71.7311 67.705 71.745 67.668 71.749 67.6306V67.6297C71.7505 67.6164 71.7506 67.6032 71.7498 67.5904L71.7496 67.5876L71.7493 67.5844L71.747 67.5675L71.7469 67.5662C71.745 67.5556 71.7423 67.5452 71.739 67.5351L71.7389 67.5346L71.7372 67.5296H71.7371C71.7225 67.489 71.6963 67.4524 71.659 67.425C71.6264 67.4013 71.5894 67.3871 71.5518 67.383H71.5512C71.5379 67.3816 71.5247 67.3816 71.5116 67.3825H71.5088L71.5059 67.383H71.5035L71.4981 67.3839L60.8526 68.4281L60.8828 63.2252C60.8832 63.1019 60.7837 63.0014 60.6604 63.001C60.6385 63.001 60.6173 63.0041 60.5973 63.0096L60.5939 63.0105L32.8707 71.0716L42.9598 54.3552L48.2626 54.7389C48.2823 54.7403 48.3015 54.7389 48.32 54.7357L59.078 53.2826L66.4706 55.1317L67.4692 59.9692L67.8634 60.0638L73.5733 52.9104L75.0393 59.4859C75.0658 59.6065 75.1852 59.6828 75.3056 59.6563C75.4259 59.6294 75.502 59.5101 75.4755 59.3895L74.0308 52.9104L83.5452 59.4151L83.724 59.6732L84.1067 59.4444L83.9936 59.2233C83.989 59.2123 83.9838 59.2018 83.9776 59.1917L77.3405 46.1964L82.4806 51.3911C82.5676 51.4783 82.7093 51.4788 82.7967 51.3915C82.8841 51.3047 82.8845 51.1631 82.7976 51.0754L76.7462 44.9604L79.434 37.6548L80.6963 39.776C80.7591 39.8819 80.8961 39.9167 81.002 39.8539C81.1079 39.7911 81.1427 39.654 81.0799 39.5481L79.6323 37.1157L82.4351 29.4973C82.4776 29.3812 82.418 29.2524 82.3019 29.2099C82.1859 29.1674 82.0571 29.2271 82.0147 29.3432L79.3374 36.6201L71.3752 23.2408L70.8109 8.27798C70.8132 8.18452 70.7567 8.0959 70.6642 8.06206C70.5481 8.01962 70.4194 8.07923 70.3769 8.19535L64.0832 25.3954L60.4123 26.6029L62.0215 7.72348L61.8787 7.4965L43.9228 0.5L43.6749 0.560384L37.2486 7.84056L37.26 8.05534L37.2655 8.15337L37.4464 8.31919C40.5407 11.1536 43.4281 13.705 46.31 16.1736L46.3086 16.1754L46.3072 16.1774L46.3054 16.1797L46.3044 16.1814L46.3024 16.1841L46.3017 16.1853L46.2967 16.1933H46.2965L46.2943 16.1974C46.2896 16.2055 46.2853 16.2138 46.2818 16.2226L46.2816 16.2227C46.2789 16.2294 46.2763 16.2364 46.2742 16.2437L46.2741 16.2444L46.2728 16.2489L46.2727 16.249L46.2715 16.2534L46.2686 16.2669L46.2677 16.2711V16.2715L46.2664 16.2807L46.266 16.2826L42.1133 51.2527H42.1138C42.1035 51.3408 42.1464 51.4303 42.2289 51.4751L43.2224 52.0164L39.957 53.7225L39.9699 53.7842L39.9246 53.7426L33.9081 58.3613L30.6758 52.2261L38.7672 20.4295C38.7976 20.3096 38.7251 20.1874 38.6052 20.157C38.5798 20.1506 38.5544 20.1488 38.5296 20.1511C38.4377 20.1596 38.3568 20.2247 38.333 20.3192L38.3294 20.3329L30.2203 52.1982C30.2053 52.259 30.2158 52.3202 30.2459 52.3695L30.2683 52.4115L25.6981 59.6513L25.7497 59.9464L28.8682 62.377L27.0073 66.9655C26.9611 67.0801 27.0164 67.2112 27.131 67.2574C27.2452 67.304 27.3763 67.2487 27.4225 67.134L29.3237 62.445L33.7596 59.0396L35.0085 61.4095L32.1677 71.3845L32.3664 71.4708L32.4038 71.6686L51.3311 69.8113L37.3774 80.0801L37.5775 80.4734L54.7164 75.0106L52.8216 89.776L38.9832 93.8072L26.7574 82.0749L26.3792 82.2411L26.4737 85.7018L18.5725 79.4702C19.4765 74.8954 20.3152 70.4111 21.1361 65.8194C21.158 65.6974 21.0767 65.5809 20.9547 65.559C20.8332 65.5375 20.7167 65.6184 20.6948 65.7403L19.4254 72.8426L18.1061 79.5182L18.1879 79.737L26.4897 86.2852L26.7953 97.4497L25.757 98.7703L17.9472 86.5323C17.8809 86.4281 17.743 86.3975 17.6393 86.4638C17.5351 86.53 17.5045 86.6684 17.5708 86.7721L25.4642 99.1421L16.6809 110.312L14.5783 95.0369C14.5623 94.9149 14.4495 94.8291 14.3271 94.845C14.2051 94.8615 14.1192 94.9743 14.1352 95.0967L16.31 110.895L16.7074 111.003L25.7195 99.5418L33.5431 111.802ZM32.0037 108.559L26.0119 99.17L26.9734 97.9476L32.0037 108.559ZM27.4348 97.8768L48.5252 103.918L33.835 111.378L27.4348 97.8768ZM48.1026 103.331L27.8267 97.5228L37.2559 94.7761L48.1026 103.331ZM49.02 103.44L39.3552 94.1644L52.7009 90.2766L49.02 103.44ZM37.784 94.6221L38.8595 94.3088L45.653 100.829L37.784 94.6221ZM26.8405 82.7747L38.4875 93.952L37.3532 94.2823L26.9305 86.0622L26.8405 82.7747ZM36.8247 94.4362L27.2361 97.2295L26.9465 86.6456L36.8247 94.4362ZM52.1482 38.2641L44.1362 51.5391L43.6994 51.767L42.6162 51.1773L50.6301 30.8176L52.1482 38.2641ZM43.692 52.275L42.7182 53.8884L40.8613 53.7541L43.692 52.275ZM42.4584 54.3187L33.0575 69.8944L35.4552 61.4775L40.1764 54.1533L42.4584 54.3187ZM43.2194 53.9249L44.0871 52.4874L47.2639 54.2177L43.2194 53.9249ZM44.3183 52.1041L44.4562 51.8757L53.3666 47.2201L58.634 52.8912L48.3208 54.2844L44.3183 52.1041ZM44.9004 51.1398L52.4866 38.5703L56.4815 39.7746L53.952 42.5741C53.8694 42.6655 53.8764 42.8068 53.9678 42.8895C54.0592 42.9721 54.2004 42.9652 54.283 42.8737L56.817 40.0691L59.5356 46.3293L59.9516 46.3124L63.1469 37.0817C63.177 37.0086 63.1656 36.9261 63.1206 36.8645L60.0144 32.141L62.8403 29.7424L67.2135 33.3428L62.8639 45.1363C62.8214 45.2524 62.881 45.3812 62.9971 45.4236C63.1131 45.4661 63.2419 45.4065 63.2843 45.2904L67.5796 33.6443L71.7684 37.0928C71.8636 37.1711 72.0043 37.1574 72.0826 37.0621C72.1609 36.9669 72.1472 36.826 72.052 36.7477L67.7433 33.2003L71.2022 23.8223L79.1392 37.1593L76.2768 44.9393L76.2771 44.9406C76.2569 44.9968 76.259 45.0607 76.2883 45.118L82.1943 56.6817L72.9465 43.3409C72.9024 43.2724 72.8223 43.2307 72.7358 43.2395C72.7004 43.2431 72.6678 43.255 72.6395 43.2729L72.637 43.2742L72.6326 43.2771L67.7931 46.3161C67.7857 46.3206 67.7782 46.3252 67.7712 46.3307L67.7701 46.3311L67.7667 46.3339L67.7623 46.3375L67.7614 46.3384L67.758 46.3412L67.7569 46.3421L67.7538 46.3448L67.7528 46.3458L67.7497 46.349L67.7485 46.3499L67.7458 46.3526L67.7445 46.354L67.7419 46.3567L67.7406 46.3581L67.7382 46.3608L67.7367 46.3622L67.7345 46.3649C67.7254 46.3755 67.7174 46.3869 67.7107 46.3987L67.7096 46.4006C67.6971 46.423 67.6888 46.4467 67.6845 46.4709L67.6837 46.475L67.6836 46.4764L67.683 46.4801L67.6828 46.4819C67.6815 46.4924 67.6808 46.5034 67.6811 46.5139V46.518L67.6812 46.5193L67.6813 46.5235L67.6815 46.5248L67.6817 46.5285L67.6819 46.5303L67.6822 46.534L67.6825 46.5358L67.6828 46.5394L67.6831 46.5408L67.6836 46.5445L67.684 46.5463L67.6845 46.5499L67.6849 46.5518L67.6855 46.555L67.6859 46.5573L67.6867 46.5605L67.6871 46.5623L67.688 46.5659L67.6886 46.5678L67.6893 46.571L67.69 46.5728L67.6908 46.576L67.6917 46.5783L67.6925 46.5815L67.6934 46.5837C67.7007 46.6048 67.7112 46.6249 67.725 46.6436L67.7257 46.6445L67.7285 46.6482L67.732 46.6523L67.7327 46.6532L67.7357 46.6568L67.7365 46.6577L67.7394 46.6609L67.7403 46.6619L67.7432 46.6651L67.7442 46.666C68.7834 47.7404 69.8158 48.8024 70.8538 49.8603L66.8025 54.4502L65.7462 48.3118C65.7378 48.262 65.7136 48.2191 65.6798 48.1871H65.6797L65.6759 48.1834H65.6756L65.6718 48.1798H65.6714L65.6677 48.1766L65.6671 48.1761L65.6636 48.1729H65.6629L65.6549 48.1665L65.654 48.1661L65.6368 48.1551L65.6356 48.1547C65.5924 48.13 65.5406 48.1195 65.4879 48.1286C65.4495 48.135 65.4152 48.151 65.3866 48.1739L59.8034 52.2576L62.3678 47.7563C62.4287 47.649 62.391 47.5124 62.2837 47.4517C62.1764 47.3904 62.0398 47.4284 61.9789 47.5357L59.0482 52.6797L53.5785 46.7902C53.5048 46.7112 53.3868 46.6975 53.298 46.7519L44.9004 51.1398ZM60.4057 68.472L52.9061 69.2079L60.4337 63.6683L60.4057 68.472ZM54.9068 74.4811L38.7372 79.6347L52.2019 69.7259L60.4031 68.9215L60.3239 82.5171L53.3276 89.3416L55.2035 74.7228L55.2041 74.7196L55.2042 74.7177L55.2047 74.7141L55.2048 74.7123L55.2052 74.7082V74.7068L55.2056 74.7022V74.7013L55.2059 74.6912V74.6903V74.6853L55.2057 74.6849L55.2056 74.6798L55.2055 74.6794L55.2052 74.6743L55.2051 74.6739L55.2047 74.6689L55.2046 74.6684L55.2041 74.6634L55.204 74.6625L55.2033 74.6579L55.2032 74.657L55.2025 74.6524L55.2022 74.6515L55.2014 74.6469L55.2011 74.646L55.2003 74.6419L55.1998 74.6405C55.1981 74.6332 55.1961 74.6259 55.1935 74.6186L55.1926 74.6159L55.1916 74.6131L55.1873 74.6026L55.1865 74.6008L55.185 74.5976L55.1842 74.5958L55.1826 74.5921L55.1819 74.5908L55.1801 74.5876L55.1794 74.5862L55.1774 74.5825L55.1746 74.5775L55.174 74.5766L55.1718 74.5729L55.1713 74.572L55.1687 74.5684L55.1684 74.5679L55.1657 74.5638L55.1654 74.5633L55.1625 74.5592H55.1623L55.1592 74.5551L55.1589 74.5547L55.1558 74.5506H55.1556L55.1523 74.5464H55.1522L55.1488 74.5423H55.1486L55.1451 74.5382L55.1414 74.5346H55.1413L55.1376 74.5309L55.1374 74.5305L55.1337 74.5273L55.1335 74.5268L55.1296 74.5236H55.1295L55.1255 74.52H55.1254L55.1171 74.5131H55.117L55.1128 74.5099H55.1126C55.1026 74.503 55.0917 74.4967 55.0804 74.4907H55.0802L55.0608 74.4825L55.06 74.482L55.0455 74.477L55.0441 74.4766L55.0351 74.4743L55.0331 74.4738L55.0298 74.4734L55.0246 74.472L55.0219 74.4715L55.0193 74.4711L55.0139 74.4702L55.0106 74.4697H55.0086L55.0049 74.4692H55.0031L54.9992 74.4688H54.9977L54.9935 74.4683H54.9923H54.9821H54.9813H54.9766H54.9758H54.971H54.9703L54.9654 74.4688H54.9648L54.9599 74.4692H54.9593L54.9545 74.4697L54.9537 74.4702L54.949 74.4706H54.9482L54.9435 74.4715H54.9426L54.9382 74.4724L54.9372 74.4729L54.9328 74.4738L54.9316 74.4743C54.9249 74.4756 54.9182 74.4775 54.9119 74.4798L54.9068 74.4811ZM60.8499 68.8776L71.0512 67.8768L60.774 81.9228L60.8499 68.8776ZM52.0353 69.2933L34.7568 70.9885L59.513 63.7903L52.0353 69.2933ZM71.2019 87.2759L75.7579 88.6404L73.9822 91.7667L71.2019 87.2759ZM79.9233 82.2128L79.0922 89.1716L76.4244 88.3727L79.9233 82.2128ZM75.9849 88.2412L71.251 86.8233L79.6619 81.7675L75.9849 88.2412ZM30.6141 53.068L33.5481 58.6376L29.4333 61.7968L30.6141 53.068ZM34.12 58.7633L39.1734 54.8837L35.2679 60.9422L34.12 58.7633ZM66.3822 54.6475L59.6091 52.9538L65.3662 48.743L66.3822 54.6475ZM73.3896 52.423L67.8107 59.4124L66.9025 55.0125L71.1675 50.1796C71.9033 50.9283 72.6426 51.6752 73.3896 52.423ZM72.5734 43.8422L73.4018 51.8008L71.3069 49.7055L68.2569 46.5527L72.5734 43.8422ZM73.9011 52.2795L73.0711 44.3053L82.8308 58.3846L73.9011 52.2795ZM62.5615 37.4079L59.7171 45.6248L57.1779 39.7774L62.5615 37.4079ZM50.6292 29.8205C50.5676 29.8406 50.5154 29.887 50.49 29.9518L42.7626 49.5835L46.6497 16.8499L56.0298 28.0443L50.6342 29.8188L50.6338 29.819L50.6292 29.8205ZM28.9696 61.8896L26.1841 59.7184L30.103 53.5106L28.9696 61.8896ZM7.30566 41.616C7.18415 41.5958 7.06858 41.6782 7.04848 41.8C7.02792 41.9218 7.11061 42.0373 7.23212 42.0575L16.3137 43.6012L16.5169 43.2315L8.41567 34.1595L23.9029 42.0262C24.013 42.0818 24.1473 42.0374 24.203 41.9272C24.2587 41.817 24.2139 41.6822 24.1039 41.6267L7.7885 33.3388L27.2982 5.37482C27.3686 5.27373 27.3439 5.13437 27.243 5.06378C27.142 4.99321 27.0027 5.01791 26.9319 5.11897L8.3234 31.7911L14.3773 16.0103C14.4212 15.8947 14.3632 15.7652 14.2476 15.7212C14.132 15.6772 14.0027 15.7353 13.9584 15.8509L7.24856 33.3423L7.40387 33.4244L7.2915 33.5709L15.7587 43.0529L7.30566 41.616ZM16.5142 32.9195C16.4722 33.0356 16.532 33.164 16.648 33.206C16.7645 33.2479 16.8929 33.1879 16.9345 33.0718L23.9175 13.9414L23.923 13.9269C23.9431 13.8715 23.9399 13.8131 23.9184 13.7627C23.8946 13.7078 23.8494 13.6623 23.7887 13.6405C23.6731 13.5985 23.5443 13.6585 23.5027 13.7746L16.5142 32.9195ZM63.8873 25.9311L62.7346 29.0811L60.3635 27.1752L60.371 27.0876L63.8873 25.9311ZM56.3394 28.4136L59.1195 31.7315L51.5326 29.9946L56.3394 28.4136ZM67.3772 32.899L63.1023 29.3795L64.4293 25.7529L70.7836 23.6628L67.3772 32.899ZM59.9496 26.7551L59.8724 26.7804L46.6387 16.1427L46.6365 16.1409L46.6263 16.1325L46.6262 16.1322L46.6253 16.1317L37.7282 7.97243L43.9064 0.973504L61.5608 7.85239L59.9496 26.7551ZM59.3658 26.947L56.4877 27.8936L47.5614 17.2408C51.3082 20.4214 55.0953 23.5108 59.3658 26.947ZM51.0157 30.4712L62.4426 36.9708L56.8695 39.4238L52.5768 38.1298L51.0157 30.4712ZM62.2428 36.3426L52.1309 30.5909L59.5821 32.2967L62.2428 36.3426ZM56.7974 28.263L59.7817 27.2815L59.8968 27.374L59.5418 31.5383L56.7974 28.263ZM9.75865 101.748C9.74129 101.626 9.62801 101.541 9.50558 101.558C9.38316 101.575 9.2982 101.689 9.31556 101.811L10.923 113.037C10.9404 113.159 11.0537 113.244 11.1761 113.227C11.2985 113.21 11.3835 113.096 11.3661 112.974L9.75865 101.748ZM60.3178 27.7124L62.4864 29.4556L59.9885 31.5761L60.3178 27.7124Z" fill="white"/>
<path fill-rule="evenodd" clip-rule="evenodd" d="M18.4301 80.9302L22.8391 98.3103L10.0575 101.42L14.5258 95.1981L14.5523 95.1511L17.955 86.7374L17.9705 86.6721L18.4301 80.9302ZM70.7571 8.14515C70.7381 8.12171 70.7143 8.10189 70.6859 8.08727L57.8416 1.47526C57.8127 1.45835 57.7794 1.44767 57.7437 1.44536L43.8493 0.5L43.7757 0.506985L27.0457 5.04469L27.0475 5.47746L37.3304 8.21367L43.5055 11.0162L27.5865 21.7806L20.027 22.9499L14.3395 15.8145C14.3198 15.7868 14.2943 15.7633 14.2627 15.7461C14.1536 15.6871 14.0174 15.7274 13.9585 15.8362L9.13795 24.7226L9.13566 24.7294C9.12789 24.7444 9.12241 24.7603 9.1183 24.7768L9.11601 24.7823L7.22579 33.3847L7.22488 33.3906C7.22215 33.4058 7.22077 33.4215 7.22123 33.4372L7.03211 41.8412L7.03257 41.8443C7.03257 41.8579 7.03349 41.8715 7.03577 41.8849L7.03669 41.891L8.92462 50.8593L8.92508 50.8616C8.92736 50.8772 8.93147 50.8918 8.93696 50.9059V50.9069L8.93787 50.9091L8.93878 50.9114L8.93969 50.9137L15.6409 68.4724L18.0884 79.5803L17.5265 86.6035L14.1472 94.9601L9.35493 101.632L0.0107117 110.703L0.197998 111.085L25.1737 107.512L26.4838 112.675C26.5135 112.795 26.6355 112.868 26.7552 112.838C26.8749 112.808 26.9479 112.687 26.9183 112.566L25.6196 107.448L39.7784 105.423L64.9865 120.5L65.3204 120.262L60.7957 98.5784L62.8026 92.4446L66.784 92.8064L66.8155 92.8073L73.9989 92.429L74.0899 92.4048L79.3831 89.6632L79.4874 89.5485L81.1887 85.3889L81.2026 85.2679L80.5057 81.1613L82.289 76.1804L82.2863 76.0223L81.1586 73.1729L82.984 71.2881L83.0427 71.0858L82.2437 67.3364L82.6499 65.1314L86.5229 63.3157L86.6386 63.1901L87.9438 59.6472L87.9245 59.4535L82.8326 51.1316L80.8315 47.1895L81.9064 44.5015L84.1986 40.5396L84.144 40.4945L84.2293 40.4275V35.7007L84.2285 35.6952L84.2275 35.6789C84.2262 35.6663 84.2241 35.654 84.2208 35.6421L84.2205 35.6404L82.4401 29.377L82.4379 29.3687L82.4364 29.3634L82.4359 29.3622L78.9314 17.0334C78.9221 16.9874 78.8985 16.9445 78.8626 16.912L70.7571 8.14515ZM57.0642 1.84787L48.4832 7.65035L37.4364 7.77875L27.968 5.2593L43.8578 0.949321L57.0642 1.84787ZM47.811 8.10481L43.9408 10.7218L38.4153 8.21417L47.811 8.10481ZM28.0744 21.9914L43.9841 11.2334L46.4545 12.3546L38.3934 20.2181L38.3898 20.2219C38.3829 20.2283 38.3761 20.2351 38.3701 20.2425L38.3697 20.2428L38.3665 20.247V20.2471L38.3628 20.2515L38.3532 20.2653L38.3528 20.2656L38.3505 20.27L38.345 20.2795L38.3445 20.2801L38.3377 20.2942L38.3372 20.2951C38.3276 20.3167 38.3217 20.339 38.319 20.3618V20.3633L38.3185 20.3671C38.3158 20.4031 38.3212 20.4393 38.3349 20.4728L38.3354 20.4739L38.3372 20.4777C38.3509 20.5078 38.371 20.5353 38.3975 20.5578L38.398 20.558L38.4021 20.5615L50.5523 30.219C50.6491 30.2959 50.7899 30.28 50.8668 30.1832C50.9437 30.0865 50.9277 29.9456 50.8309 29.8687L38.8794 20.369L46.8916 12.553L57.1575 17.2121L56.6549 39.6668C56.6526 39.7901 56.7506 39.8923 56.8739 39.8945C56.9972 39.8968 57.0993 39.7988 57.1016 39.6755L57.5999 17.4129L70.9347 23.4649L71.6833 36.942L71.9286 37.1522L79.7261 36.3602L80.6313 39.5912L78.7032 41.1847V41.1856C78.6529 41.2275 78.6213 41.291 78.6226 41.3615L78.6844 44.2062C78.6825 44.2466 78.6915 44.288 78.7127 44.3259L80.3909 47.3096L80.3919 47.3114C82.6537 51.7656 84.8322 55.2565 87.4861 59.5942L86.2498 62.9502L82.4288 64.7418L80.2835 64.2023L80.2336 64.1964C79.3623 64.1767 78.6434 64.1671 77.916 64.1767C77.8523 64.1365 77.7695 64.1292 77.6969 64.1649C77.6874 64.1699 77.6784 64.1749 77.6697 64.1809C77.1305 64.1914 76.5768 64.2133 75.9443 64.2503C75.821 64.2576 75.7269 64.3636 75.734 64.4869C75.7411 64.6102 75.8472 64.7043 75.9705 64.697L77.6613 64.5975L81.1101 71.5494L81.5314 71.4877L82.0394 68.5259L82.5798 71.062L80.7368 72.965L80.6886 73.2035L81.8384 76.1087L80.0641 81.0644L80.0546 81.1768L80.7509 85.2802L79.1055 89.3032L73.9274 91.985L66.8064 92.3596L62.6853 91.985L53.0785 89.7353L44.1871 86.4217L55.1057 74.8836L71.6109 67.816L71.6066 67.4026L60.7376 63.0224L60.4537 63.1307L54.7899 74.5679L43.7885 86.1938L37.6584 80.1052C37.5712 80.0179 37.4296 80.0184 37.3423 80.1056C37.2555 80.1933 37.256 80.3349 37.3432 80.4222L43.4367 86.4743L26.8803 96.9774C26.7762 97.0436 26.7451 97.1825 26.8114 97.2866C26.8228 97.3049 26.8365 97.3204 26.8516 97.3341L23.2744 98.2043L18.5338 79.5173L18.5333 79.5159L16.0758 68.361L16.0662 68.3295L10.0698 52.6185L14.6775 59.5426L14.7076 59.5247L14.7017 59.5732L20.7419 65.9391L21.1265 65.8102L21.6354 61.3579L27.0402 67.2062L27.4244 67.0153L26.0965 59.7372L26.0622 59.7148L26.0832 59.6906L23.5307 53.5914L24.1679 47.3548L24.1473 47.3425L24.1693 47.3338L24.2159 41.837C24.2168 41.7137 24.1176 41.6128 23.9943 41.6119C23.871 41.6109 23.77 41.7101 23.7691 41.8334L23.7271 46.8044L21.1581 44.2868L21.0649 44.2992L21.0507 44.228L16.5682 43.2118L16.9359 33.0136C16.94 32.8903 16.8436 32.7867 16.7203 32.7823C16.6011 32.7781 16.4997 32.8686 16.4896 32.9863C16.4101 32.9518 16.3142 32.9654 16.2475 33.0287L7.49074 41.3157L7.66523 33.5642L21.6231 25.6708L28.5764 34.3939L30.2296 52.5504C30.241 52.6733 30.3497 52.7637 30.4721 52.7528C30.595 52.7418 30.6859 52.6331 30.6745 52.5102L29.083 35.0294L42.1524 51.4258C42.2296 51.5226 42.3703 51.5386 42.467 51.4614C42.5637 51.3847 42.5798 51.2435 42.5029 51.1471L29.009 34.2186L27.9364 22.4365L52.2525 38.5001L52.2546 38.5016L52.2573 38.5033L52.2595 38.5048L52.2644 38.5078L62.5448 45.1491L59.6908 46.0276L53.3838 46.7285L53.3908 47.1744L62.1389 47.8765L65.4755 48.5763L65.6577 48.5343L68.0371 46.6952L68.0616 46.3631L66.0853 44.316L66.0817 44.3119L66.0797 44.3101L66.0778 44.3081L66.0757 44.306L66.074 44.3043L66.0716 44.3019L66.0701 44.3006L66.0674 44.2981L66.0661 44.2969L66.0631 44.2944L66.0621 44.2935L66.0587 44.2907L66.0579 44.2901L66.0543 44.2873L66.0536 44.2868L66.0497 44.284L66.0492 44.2836L66.0453 44.2807L66.0449 44.2805L66.0359 44.2747L66.0313 44.2719L66.0312 44.2718L66.0266 44.2692L66.0263 44.2691L66.0219 44.2667L66.0215 44.2666L66.0171 44.2643L66.0167 44.264L66.0123 44.262L66.0117 44.2617L66.0073 44.2598L66.0068 44.2596L66.0024 44.2578L66.0017 44.2574L65.9973 44.2557L65.9966 44.2555L65.9923 44.254L65.9915 44.2536L65.9872 44.2522L65.9865 44.2519L65.9819 44.2507L65.9812 44.2504L65.9768 44.2492L65.976 44.2489L65.9716 44.2477L65.9708 44.2476L65.9662 44.2466L65.9656 44.2465L65.961 44.2455L65.9602 44.2453L65.9557 44.2445H65.9549L65.9502 44.2437H65.9497L65.9449 44.2429H65.9443L65.9394 44.2424H65.939L65.9285 44.2416H65.9282C65.9175 44.2411 65.9068 44.2416 65.8961 44.2427H65.8952L65.8907 44.2432L65.8896 44.2433L65.8854 44.2439L65.884 44.244L65.88 44.2448L65.8784 44.245L65.8748 44.2458L65.8695 44.2468L65.8672 44.2474L65.8643 44.2482L65.8616 44.2487L65.859 44.2495L63.1075 44.9799L52.5066 38.1317L52.5018 38.1283L28.0744 21.9914ZM44.4194 10.939L48.6247 8.09531L50.8471 8.0695L46.7986 12.0188L44.4194 10.939ZM49.2969 7.64075L55.7814 3.25604L51.3106 7.61737L49.2969 7.64075ZM58.3989 2.26525L69.5266 7.99358L61.9171 7.50257L58.3989 2.26525ZM57.6108 16.926L57.8109 7.98847L61.7356 7.94288L78.3315 17.1233L75.2646 19.9276C75.1925 19.9848 75.1648 20.0784 75.1883 20.1628V20.1631L79.6036 35.9231L72.1171 36.6836L71.3745 23.3156C71.3743 23.2997 71.3724 23.2839 71.369 23.2685L71.3682 23.2654C71.3666 23.2582 71.3645 23.251 71.362 23.244L71.3616 23.2427L71.3582 23.2338L71.3578 23.2326C71.337 23.1811 71.2971 23.1372 71.2425 23.1127L57.6108 16.926ZM57.8209 7.54158L57.9365 2.37844L61.3771 7.50033L57.8209 7.54158ZM47.2359 12.2173L51.4954 8.06196L57.3639 7.99372L57.1684 16.7252L47.2359 12.2173ZM51.959 7.60987L57.4933 2.21097L57.3739 7.54684L51.959 7.60987ZM62.7759 8.00656L70.4807 8.50378L77.6053 16.2097L62.7759 8.00656ZM81.0922 39.9511L83.5318 40.5426L80.9062 42.8257L81.0922 39.9511ZM78.5955 17.4866L81.6662 28.2902L75.7024 20.132L78.5955 17.4866ZM82.0186 29.5301L83.7169 35.5053L80.0554 35.8772L75.9527 21.2325L82.0186 29.5301ZM83.7808 35.9483V40.1431L81.0662 39.4849L80.1779 36.3143L83.7808 35.9483ZM22.9492 98.7438L25.0632 107.076L0.816498 110.544L9.63631 101.982L22.9492 98.7438ZM25.509 107.012L23.3845 98.6378L26.974 97.7644L39.1681 105.058L25.509 107.012ZM60.3822 98.4035L49.0634 103.642L39.8711 104.958L27.1403 97.3432L43.8199 86.7616L52.9673 90.1693L62.3567 92.3683L60.3822 98.4035ZM9.33071 50.6163L7.49987 41.9213L16.4736 33.4291L16.1173 43.3231L11.6179 50.8032L9.33071 50.6163ZM7.77121 32.9904L9.52119 25.0267L19.8379 23.4311L21.3408 25.3166L7.77121 32.9904ZM9.74731 24.5398L14.1915 16.3472L19.5173 23.0287L9.74731 24.5398ZM40.4814 105.322L49.1591 104.081L49.2213 104.063L60.403 98.8872L64.7781 119.855L40.4814 105.322ZM79.0822 41.9504C79.4915 42.4015 79.8903 42.8386 80.297 43.2724L79.1239 43.859L79.0822 41.9504ZM80.6174 43.6114C80.8853 43.8925 81.1584 44.1736 81.4423 44.4574L80.5522 46.6829L79.2182 44.3111L80.6174 43.6114ZM82.1929 65.1442L81.7979 67.2884L81.795 67.3026L81.2061 70.7359L78.1606 64.597L80.1966 64.6422L82.1929 65.1442ZM83.1398 41.4762L81.6574 44.0383L80.9764 43.3574L83.1398 41.4762ZM80.6292 40.1738L80.4591 42.8051L79.1687 41.3809L80.6292 40.1738ZM27.4806 22.3584L28.5029 33.5832L22.0178 25.4477L27.4806 22.3584ZM20.3477 23.3523L26.4962 22.4013L21.7355 25.0935L20.3477 23.3523ZM12.1756 51.0005L20.2778 45.2356L15.8483 52.7633L12.1756 51.0005ZM9.58835 51.0868L11.5617 51.2476L12.7169 55.6137L12.7334 55.6566L13.0486 56.287L9.58835 51.0868ZM12.4821 50.2335L16.4467 43.6427L20.4646 44.5537L12.4821 50.2335ZM14.9511 59.094L13.4122 56.0152L17.1177 57.6688L14.9511 59.094ZM13.06 55.1605L12.0779 51.4486L15.5267 53.1045L13.06 55.1605ZM16.6627 52.2599L21.0489 44.8059L23.5987 47.305L16.6627 52.2599ZM20.736 65.2831L15.2101 59.4585L17.5658 57.9086L21.2321 60.9426L20.736 65.2831ZM17.6928 57.2801L16.264 53.3037L22.6627 53.8006L17.6928 57.2801ZM15.8346 53.4293L17.194 57.2129L13.3519 55.4986L15.8346 53.4293ZM18.1067 57.5359L23.2027 53.9678L25.4963 59.4471L18.1067 57.5359ZM23.1022 53.3854L16.5673 52.8779L23.6727 47.8016L23.1022 53.3854ZM18.4981 58.0986L24.9577 59.7696L21.5249 60.6037L18.4981 58.0986ZM21.8908 60.9746L25.6991 60.0496L26.8465 66.3378L21.8908 60.9746ZM19.61 72.6635C19.4871 72.6768 19.3985 72.7878 19.4122 72.9107C19.4254 73.0335 19.5364 73.1222 19.6589 73.1085L32.398 71.6727C32.5209 71.6595 32.6095 71.5485 32.5958 71.4256C32.5825 71.3027 32.4715 71.2141 32.3491 71.2278L19.61 72.6635ZM63.127 45.4378L65.8489 44.7151L67.5661 46.4938L65.4662 48.1168L62.2494 47.4425L60.291 46.3106L63.127 45.4378ZM55.7599 46.9149L59.6869 46.4787L61.1972 47.3512L55.7599 46.9149ZM75.365 59.6686L82.8403 59.7623L75.3238 62.9571L74.0769 61.3866L75.365 59.6686ZM83.9089 59.3288L75.2571 59.2205L75.0757 59.31L73.7036 61.1395L67.7358 59.7134C67.6159 59.6851 67.4953 59.7591 67.4668 59.8788C67.4383 59.9989 67.5124 60.1195 67.6323 60.1478L73.6666 61.5899L75.0793 63.3691L75.342 63.4358L83.9939 59.7582L83.9089 59.3288ZM70.9405 67.6169L55.4461 74.2509L60.7629 63.5148L70.9405 67.6169ZM75.4012 79.9133C75.4674 79.8087 75.4364 79.6703 75.3321 79.6041C75.2277 79.5378 75.0892 79.5689 75.0229 79.673L70.8176 86.2888L69.508 78.9545C69.4863 78.8326 69.3697 78.7512 69.248 78.7732C69.1262 78.7951 69.045 78.9116 69.0667 79.0331L70.4773 86.9343L70.8871 87.0147L75.4012 79.9133Z" fill="white" fill-opacity="0.6"/>
<path fill-rule="evenodd" clip-rule="evenodd" d="M83.9737 35.8994C84.0922 35.9341 84.2166 35.8663 84.2513 35.7479C84.286 35.6294 84.2183 35.5049 84.0998 35.4702L63.3558 29.3584C67.446 26.3375 71.5137 23.3301 75.5689 20.2661L75.4629 19.8658L49.5191 16.4746L70.6918 8.48065C70.8074 8.43714 70.8658 8.30799 70.8223 8.19245C70.7789 8.07686 70.6497 8.0184 70.5341 8.06187L48.578 16.3516L47.2032 16.1719L61.9307 7.89939C62.0385 7.83902 62.0771 7.70235 62.0167 7.59455C61.9563 7.48675 61.8196 7.44822 61.7118 7.50859L46.3972 16.1109L46.4778 16.5278L47.6913 16.6865L38.6435 20.1025L27.3058 5.11143C27.2313 5.0128 27.0911 4.99322 26.9924 5.06756C26.986 5.07241 26.9797 5.07762 26.9742 5.08282L14.0341 15.7557L14.2232 16.1472L23.5998 14.1049L27.4926 22.0762L27.7265 22.1996L37.4394 20.7639L16.3094 32.9814L16.2532 33.3222L20.7782 38.4735L16.1979 43.2176C16.1125 43.3066 16.1152 43.4484 16.2043 43.5339C16.2929 43.6195 16.435 43.6168 16.5204 43.5278L21.0747 38.8108L23.8314 41.9495L30.2836 52.6291L30.2841 52.6296C30.3293 52.7041 30.4129 52.7447 30.4979 52.736L42.3616 51.4936L42.3799 51.4922C42.4034 51.4894 42.4255 51.4831 42.446 51.4739L53.5166 47.143L53.6558 46.9712L54.3589 42.7531L54.0533 42.5096L47.2376 45.3316L52.5818 38.4356C52.6572 38.338 52.6391 38.1974 52.5415 38.122C52.4439 38.0466 52.3032 38.0647 52.2279 38.1623L46.4045 45.6765L42.111 47.4543L40.5552 34.7603L50.8083 30.2331C50.9214 30.1833 50.9727 30.051 50.9229 29.9379C50.8731 29.8248 50.7409 29.7734 50.6277 29.8232L40.4981 34.2959L38.833 20.7093L62.7832 29.6553L62.798 29.6602V29.6605L83.9737 35.8994ZM19.4558 72.9789L26.8093 97.2132L27.2131 97.2667L37.2799 81.0651L48.954 103.942L49.3 104.01L62.8198 92.3566C62.9131 92.2762 62.9233 92.1346 62.8425 92.0414C62.7618 91.9482 62.6204 91.9377 62.5271 92.0186L49.2238 103.485L37.5558 80.6206L37.7153 80.3639C37.7605 80.2917 37.7591 80.2031 37.7189 80.1337L37.7171 80.1305L37.7143 80.1259L32.9669 71.9676L73.9176 92.3886C74.0284 92.4434 74.163 92.3982 74.2182 92.2876C74.2733 92.1771 74.2282 92.0423 74.1174 91.9871L32.4968 71.2326C32.3858 71.1773 32.2515 71.2225 32.1963 71.3331L32.1912 71.3436L26.5841 81.8051L19.9665 72.9118L27.3638 67.2146L27.1756 66.8195L24.1169 67.5499L21.0468 65.5797L20.8225 65.5692L16.0641 68.0428L15.1354 59.6336L25.892 59.9831C26.0154 59.9867 26.1186 59.8899 26.1222 59.7666C26.1259 59.6432 26.0291 59.54 25.9057 59.5363L14.8915 59.1787L14.6622 59.4267L15.6552 68.4169C15.6598 68.4594 15.6767 68.5014 15.7068 68.5366L19.4558 72.9789ZM37.0419 80.5992L27.0934 96.6107L20.2419 74.0309L26.4347 82.3542C26.4543 82.3797 26.4795 82.4021 26.5096 82.4181C26.5553 82.4428 26.606 82.4492 26.6535 82.4409L37.0241 80.5635L37.0419 80.5992ZM37.1264 80.0912C37.1146 80.0921 37.1027 80.0944 37.0913 80.0976L27.0299 81.9188L32.4046 71.8913L37.1717 80.083L37.1264 80.0912ZM79.7494 79.6728L82.2896 76.2194L82.0567 75.87L78.5043 76.7315L73.5614 76.8699L69.6027 74.5567L80.9519 73.3265C81.0747 73.3133 81.1637 73.2032 81.1507 73.0803C81.1378 72.9574 81.0274 72.8684 80.9046 72.8816L70.4772 74.0117C73.1463 72.9241 75.5695 71.8904 78.2731 70.6456L81.2719 71.6451L81.3875 71.6519L82.9006 71.3335C83.0216 71.3089 83.0992 71.1901 83.0742 71.069C83.0491 70.9484 82.9306 70.8708 82.8096 70.8955L81.3544 71.2015L78.3294 70.1934L78.1656 70.202L74.0576 72.0941L69.2984 74.0076L71.7368 67.7376L76.1165 64.6397C76.2164 64.5698 76.2413 64.4327 76.1735 64.3318L75.4792 63.1035C75.4188 62.9961 75.2825 62.9582 75.1753 63.0185C75.0679 63.0788 75.0298 63.2149 75.0902 63.3223L75.5859 64.1993L61.5389 63.0578L67.8077 60.1165L67.7604 59.6949L60.2248 58.0582L59.5374 52.8694L59.2413 52.6867L50.4871 55.7719L48.426 54.3229L48.0851 54.576L48.388 55.4869L40.1239 53.6917C40.0029 53.6656 39.8837 53.7428 39.8576 53.8634C39.8316 53.9845 39.9083 54.1037 40.0294 54.1302L48.5524 55.9811L48.693 56.4041L35.1887 61.163L35.138 61.5599L54.8445 74.8408L60.3863 82.726L60.7261 82.7566L68.7231 74.8979L69.0942 78.9963L69.287 79.1977L75.2126 79.9971L75.2538 79.9989L79.5805 79.7641L79.7494 79.6728ZM81.5653 76.4492L79.4515 79.3229L75.2509 79.5513L69.5231 78.7784L69.1646 74.8202L73.3893 77.2888L73.5085 77.3185L78.5405 77.1773L78.5869 77.1714L81.5653 76.4492ZM68.712 74.2817L60.6009 82.2528L55.2045 74.5749L49.2556 56.6809L50.2153 56.3424L50.6568 56.4384L60.5534 63.3958L60.6294 63.4027L60.6647 63.4365L75.355 64.6301L71.4242 67.4101L71.3445 67.5129L68.712 74.2817ZM49.0596 56.0917L49.3816 56.1615L49.1143 56.2556L49.0596 56.0917ZM51.7832 56.6832L59.8232 58.4295L60.3937 62.7362L51.7832 56.6832ZM60.2874 58.53L67.0196 59.9927L60.8637 62.881L60.2874 58.53ZM59.7605 57.9572L51.0204 56.0588L59.1304 53.2006L59.7605 57.9572ZM49.7127 55.7746L48.8953 55.5974L48.723 55.0789L49.7127 55.7746ZM48.8342 56.8294L54.5844 74.1255L35.7579 61.4371L48.8342 56.8294ZM87.765 59.7766C87.8883 59.7771 87.9889 59.6775 87.9893 59.5542C87.9897 59.4308 87.8901 59.3303 87.7668 59.3299L83.9388 59.3121L83.7558 59.6642L86.2784 63.225C86.3495 63.3255 86.4888 63.3492 86.5894 63.2784C86.6899 63.2071 86.7139 63.0678 86.6428 62.9673L84.3711 59.7606L87.765 59.7766ZM42.5091 50.7028L42.1672 47.9146L45.8525 46.3887L42.5091 50.7028ZM41.6812 47.6321L30.5678 52.2336L24.338 41.921L40.1267 34.9495L41.6812 47.6321ZM31.9843 52.1308L41.7373 48.0926L42.1023 51.071L31.9843 52.1308ZM43.026 50.7663L46.6856 46.0439L53.8512 43.077L53.2352 46.7724L43.026 50.7663ZM16.2294 68.4617L20.9143 66.0265L23.9557 67.9784L24.1283 68.0081L26.2625 67.4987L19.6892 72.5609L16.2294 68.4617ZM21.3857 38.488L36.9232 22.3948L23.9917 41.4547L21.3857 38.488ZM37.2968 21.3631L21.0897 38.1507L16.7694 33.2323L37.2968 21.3631ZM40.07 34.4851L24.6367 41.2995L38.416 20.9897L40.07 34.4851ZM27.1889 5.69927L37.8687 19.8204L24.0114 13.7309L27.1889 5.69927ZM37.7646 20.263L27.8238 21.7326L24.1932 14.2991L37.7646 20.263ZM76.4289 45.2151C76.5431 45.2624 76.6742 45.2083 76.7215 45.0942C76.7688 44.98 76.7148 44.8489 76.6006 44.8017L72.9899 43.2972L72.1586 36.8893C72.1464 36.7767 72.0504 36.6895 71.9347 36.6904L62.9618 36.7667L62.756 37.0733L65.7398 44.5321L66.1225 44.5882L71.783 37.4667L72.5635 43.4824L72.6993 43.6611L76.4289 45.2151ZM71.4698 37.1411L66.0119 44.008L63.2927 37.2106L71.4698 37.1411ZM39.2017 20.37L48.6323 16.8094L74.8631 20.2381L71.0452 23.1227L62.8256 29.1942L39.2017 20.37ZM26.5991 5.97107L23.5596 13.655L15.0308 15.5126L26.5991 5.97107Z" fill="white" fill-opacity="0.4"/>
</svg>
