<svg width="236" height="156" viewBox="0 0 236 156" fill="none" xmlns="http://www.w3.org/2000/svg">
<path fill-rule="evenodd" clip-rule="evenodd" d="M34.0797 30.5C47.0824 48.7043 66.6382 75.1368 67.4343 92.2507C68.2303 109.365 52.526 125.5 34.1358 125.5C15.7457 125.5 0.837402 110.614 0.837402 92.2507C0.837402 73.8876 23.3178 44.8883 34.0797 30.5Z" fill="url(#paint0_radial_69_729)"/>
<path fill-rule="evenodd" clip-rule="evenodd" d="M56.2983 111.995C50.7682 118.509 49.9895 122.833 34.1375 122.833C18.2855 122.833 2.94897 110.524 2.94897 92.677C2.94897 74.8295 24.4488 44.4844 34.0874 30.5C24.4488 44.4844 10.3498 72.3288 10.3498 90.1763C10.3498 122.389 44.1962 124.587 56.2983 111.995Z" fill="#FCC300" fill-opacity="0.501961"/>
<path fill-rule="evenodd" clip-rule="evenodd" d="M34.1079 30.5C47.1106 48.7043 66.6664 75.1368 67.4625 92.2507C68.2585 109.365 52.5542 125.5 34.164 125.5C19.4737 125.5 7.00615 116.001 2.58374 102.818C6.43894 108.679 13.0774 112.552 20.6254 112.552C25.051 112.552 29.164 111.219 32.5881 108.937C38.2062 105.679 57.7941 86.2219 34.1079 30.5Z" fill="url(#paint1_radial_69_729)"/>
<path fill-rule="evenodd" clip-rule="evenodd" d="M34.0784 30.5C47.081 48.7043 66.6369 75.1368 67.4329 92.2507C68.229 109.365 52.5247 125.5 34.1345 125.5C25.6872 125.5 17.976 122.357 12.1055 117.181C18.0133 122.328 26.5476 124.813 34.9951 124.813C50.9756 124.813 67.0562 108.204 66.3142 92.2507C65.5462 75.737 47.081 48.7043 34.0784 30.5Z" fill="#00A8B8"/>
<path d="M79.1112 45.9717H77.4814V43.167H84.5691V45.9717H82.9393V69.5845H79.1112V45.9717Z" fill="white"/>
<path d="M92.9942 67.5757C92.9942 67.9295 92.9437 68.2327 92.8426 68.4854C92.7668 68.738 92.6278 68.9654 92.4257 69.1676C92.2488 69.3445 92.034 69.4834 91.7813 69.5845C91.5287 69.6603 91.2381 69.6982 90.9096 69.6982L90.5306 69.7361C90.4042 69.7108 90.2653 69.6856 90.1137 69.6603C89.9873 69.6603 89.8484 69.635 89.6968 69.5845C89.6209 69.5845 89.5451 69.5845 89.4693 69.5845C89.3935 69.5592 89.3177 69.534 89.2419 69.5087C89.1409 69.4834 89.0524 69.4582 88.9766 69.4329C88.9008 69.3824 88.825 69.3318 88.7492 69.2813V74.777H85.5276V47.9426H88.7492V48.3595C88.9766 48.309 89.204 48.2458 89.4314 48.17C89.6588 48.0942 89.861 48.0437 90.0379 48.0184C90.24 47.9679 90.4169 47.93 90.5685 47.9047C90.7201 47.8794 90.8717 47.8668 91.0233 47.8668L91.4023 47.8289C91.6803 47.8542 91.9077 47.9047 92.0846 47.9805C92.2867 48.0563 92.4509 48.17 92.5773 48.3216C92.7036 48.4732 92.8047 48.6754 92.8805 48.9281C92.9563 49.1555 92.9942 49.4334 92.9942 49.7619V67.5757ZM88.7492 50.8989V66.704C88.7492 66.8303 88.7618 66.9314 88.7871 67.0072C88.8124 67.0577 88.8503 67.1083 88.9008 67.1588C88.9514 67.1841 89.0019 67.222 89.0524 67.2725C89.103 67.2978 89.1661 67.323 89.2419 67.3483C89.3177 67.3483 89.3935 67.3357 89.4693 67.3104C89.5451 67.2599 89.6083 67.2093 89.6588 67.1588C89.7094 67.1083 89.7473 67.0577 89.7726 67.0072C89.8231 66.9314 89.8484 66.8429 89.8484 66.7419V50.8989C89.8484 50.8231 89.8231 50.7473 89.7726 50.6715C89.7473 50.5957 89.7094 50.5199 89.6588 50.4441C89.6083 50.3936 89.5451 50.3557 89.4693 50.3304C89.4188 50.2799 89.3556 50.242 89.2798 50.2167C89.204 50.242 89.1282 50.2799 89.0524 50.3304C89.0019 50.3557 88.9514 50.3936 88.9008 50.4441C88.8503 50.5199 88.8124 50.5957 88.7871 50.6715C88.7618 50.7473 88.7492 50.8358 88.7492 50.9368V50.8989Z" fill="white"/>
<path d="M96.7183 70.4941L94.141 47.9426H97.4006L98.0828 60.1849L98.6513 47.9426H101.873L99.6747 71.0248C99.5989 71.7323 99.4346 72.3261 99.1819 72.8062C98.9293 73.3115 98.5882 73.7158 98.1586 74.019C97.7543 74.297 97.1605 74.5117 96.3772 74.6633C95.6192 74.8149 94.6969 74.8908 93.6104 74.8908L93.1556 74.9287V72.6166C93.8378 72.5914 94.4063 72.5282 94.8612 72.4271C95.3412 72.3513 95.7076 72.225 95.9603 72.0481C96.213 71.8712 96.4025 71.6691 96.5288 71.4417C96.6552 71.2395 96.7183 70.9995 96.7183 70.7216V70.4941Z" fill="white"/>
<path d="M103.23 47.9426H110.658V67.2346H111.379V72.4271H108.195V69.5845H105.239V72.4271H102.055V67.1588C102.282 67.1588 102.472 67.1209 102.623 67.0451C102.775 66.9693 102.889 66.8682 102.964 66.7419C103.04 66.6155 103.091 66.4513 103.116 66.2492C103.167 66.047 103.204 65.8196 103.23 65.5669V47.9426ZM106.413 65.4911C106.413 65.668 106.401 65.8322 106.376 65.9838C106.376 66.1354 106.35 66.2871 106.3 66.4387C106.275 66.5903 106.224 66.7419 106.148 66.8935C106.098 67.0198 106.022 67.1462 105.921 67.2725L107.513 67.2346V50.2925H106.413V65.4911Z" fill="white"/>
<path d="M116.571 57.039V47.9426H119.755V69.5845H116.571V59.3889H115.472V69.5845H112.25V47.9426H115.472V57.039H116.571Z" fill="white"/>
<path d="M128.823 49.9893V67.6136C128.823 67.9674 128.735 68.2832 128.558 68.5612C128.381 68.8138 128.116 69.0286 127.762 69.2055C127.433 69.3824 127.08 69.5087 126.701 69.5845C126.322 69.635 125.917 69.6729 125.488 69.6982C125.463 69.6982 125.437 69.6982 125.412 69.6982C125.387 69.6982 125.361 69.6982 125.336 69.6982C125.311 69.6982 125.286 69.6982 125.26 69.6982L124.881 69.7361C124.427 69.7108 123.997 69.6603 123.593 69.5845C123.188 69.534 122.809 69.4203 122.456 69.2434C122.077 69.0665 121.799 68.8517 121.622 68.5991C121.445 68.3211 121.357 68.0053 121.357 67.6515V49.9893C121.357 49.6356 121.445 49.3197 121.622 49.0418C121.799 48.7385 122.077 48.4985 122.456 48.3216C122.809 48.1195 123.188 47.9805 123.593 47.9047C123.997 47.8036 124.427 47.7531 124.881 47.7531L125.26 47.7152C125.26 47.7405 125.26 47.7531 125.26 47.7531C125.286 47.7531 125.311 47.7531 125.336 47.7531C125.361 47.7531 125.387 47.7531 125.412 47.7531C125.437 47.7531 125.463 47.7531 125.488 47.7531C125.917 47.7784 126.322 47.8415 126.701 47.9426C127.08 48.0184 127.433 48.1574 127.762 48.3595C128.116 48.5364 128.381 48.7764 128.558 49.0797C128.735 49.3576 128.823 49.6735 128.823 50.0272V49.9893ZM125.639 50.7473C125.639 50.6968 125.614 50.6336 125.564 50.5578C125.538 50.482 125.5 50.4315 125.45 50.4062C125.399 50.3557 125.336 50.3178 125.26 50.2925C125.21 50.2673 125.147 50.242 125.071 50.2167C124.995 50.242 124.919 50.2673 124.843 50.2925C124.793 50.3178 124.742 50.3557 124.692 50.4062C124.641 50.4315 124.603 50.482 124.578 50.5578C124.553 50.6336 124.54 50.7094 124.54 50.7852V66.8177C124.54 66.944 124.553 67.0451 124.578 67.1209C124.603 67.1714 124.641 67.222 124.692 67.2725C124.742 67.2978 124.793 67.3357 124.843 67.3862C124.894 67.4115 124.957 67.4367 125.033 67.462C125.109 67.462 125.185 67.4494 125.26 67.4241C125.336 67.3736 125.399 67.323 125.45 67.2725C125.5 67.222 125.538 67.1714 125.564 67.1209C125.614 67.0451 125.639 66.9567 125.639 66.8556V50.7473Z" fill="white"/>
<path d="M130.425 69.5845V47.9426H133.23V58.1003L134.746 47.9426H137.891V69.5845H135.125V59.0478L133.646 69.5845H130.425Z" fill="white"/>
<path d="M146.96 49.9893V56.281C146.96 56.3315 146.96 56.3694 146.96 56.3947C146.96 56.42 146.96 56.4452 146.96 56.4705C146.96 56.4958 146.96 56.521 146.96 56.5463C146.934 56.5716 146.922 56.5968 146.922 56.6221C146.897 56.799 146.846 56.9632 146.77 57.1148C146.72 57.2664 146.644 57.418 146.543 57.5697C146.442 57.7213 146.315 57.8602 146.164 57.9866C146.012 58.0876 145.835 58.1761 145.633 58.2519C145.81 58.3277 145.962 58.4161 146.088 58.5172C146.24 58.593 146.366 58.6941 146.467 58.8204C146.568 58.9468 146.657 59.0857 146.732 59.2373C146.808 59.3637 146.859 59.5026 146.884 59.6542C146.884 59.6795 146.884 59.7048 146.884 59.7301C146.884 59.7553 146.897 59.768 146.922 59.768C146.922 59.7932 146.922 59.8185 146.922 59.8438C146.922 59.869 146.922 59.8943 146.922 59.9196C146.922 59.9448 146.922 59.9701 146.922 59.9954C146.922 60.0206 146.934 60.0459 146.96 60.0712C146.96 60.0964 146.96 60.1217 146.96 60.147C146.96 60.147 146.96 60.1596 146.96 60.1849V67.6515C146.96 68.0053 146.871 68.3211 146.694 68.5991C146.518 68.8517 146.252 69.0665 145.898 69.2434C145.57 69.4203 145.216 69.534 144.837 69.5845C144.458 69.6603 144.054 69.7108 143.624 69.7361C143.599 69.7361 143.574 69.7361 143.549 69.7361C143.523 69.7361 143.498 69.7361 143.473 69.7361C143.447 69.7361 143.422 69.7361 143.397 69.7361L143.018 69.774C142.993 69.7487 142.967 69.7361 142.942 69.7361C142.942 69.7361 142.93 69.7361 142.904 69.7361C142.879 69.7361 142.854 69.7361 142.828 69.7361C142.828 69.7361 142.816 69.7361 142.791 69.7361C142.386 69.7108 141.982 69.6603 141.578 69.5845C141.199 69.534 140.832 69.4203 140.479 69.2434C140.15 69.0665 139.897 68.8517 139.72 68.5991C139.544 68.3211 139.455 68.0179 139.455 67.6894L139.493 67.6136V60.2986H142.677V66.8177C142.677 66.944 142.689 67.0451 142.715 67.1209C142.74 67.1714 142.778 67.222 142.828 67.2725C142.879 67.2978 142.93 67.3357 142.98 67.3862C143.031 67.4115 143.094 67.4367 143.17 67.462C143.245 67.462 143.321 67.4494 143.397 67.4241C143.473 67.3736 143.536 67.323 143.586 67.2725C143.637 67.222 143.675 67.1714 143.7 67.1209C143.751 67.0451 143.776 66.9567 143.776 66.8556V60.147C143.776 60.0712 143.751 59.9954 143.7 59.9196C143.675 59.8185 143.624 59.7301 143.549 59.6542C143.473 59.5784 143.384 59.5279 143.283 59.5026C143.207 59.4521 143.119 59.4268 143.018 59.4268L142.298 59.3889V57.039H143.018C143.094 57.0643 143.17 57.0643 143.245 57.039C143.321 57.0138 143.397 56.9632 143.473 56.8874C143.549 56.8369 143.599 56.7737 143.624 56.6979C143.675 56.6221 143.713 56.5463 143.738 56.4705C143.738 56.4705 143.751 56.4579 143.776 56.4326C143.776 56.4073 143.776 56.3947 143.776 56.3947C143.776 56.3694 143.776 56.3442 143.776 56.3189V50.7473C143.776 50.6968 143.751 50.6336 143.7 50.5578C143.675 50.482 143.637 50.4315 143.586 50.4062C143.536 50.3557 143.473 50.3178 143.397 50.2925C143.346 50.2673 143.283 50.242 143.207 50.2167C143.132 50.242 143.056 50.2673 142.98 50.2925C142.93 50.3178 142.879 50.3557 142.828 50.4062C142.778 50.4315 142.74 50.482 142.715 50.5578C142.689 50.6336 142.677 50.7094 142.677 50.7852V56.1673H139.493V49.9893L139.455 49.9514C139.455 49.6229 139.544 49.3323 139.72 49.0797C139.897 48.8017 140.163 48.5743 140.516 48.3974C140.87 48.2206 141.237 48.0942 141.616 48.0184C142.02 47.9173 142.437 47.8542 142.866 47.8289C142.866 47.8289 142.879 47.8289 142.904 47.8289C142.93 47.8289 142.955 47.8289 142.98 47.8289L143.359 47.791C143.359 47.8163 143.359 47.8289 143.359 47.8289C143.384 47.8289 143.41 47.8289 143.435 47.8289C143.46 47.8289 143.485 47.8289 143.511 47.8289C143.536 47.8289 143.561 47.8289 143.586 47.8289C144.016 47.8542 144.42 47.9173 144.799 48.0184C145.178 48.0942 145.532 48.2332 145.861 48.4353C146.214 48.6122 146.48 48.827 146.657 49.0797C146.833 49.3323 146.922 49.6356 146.922 49.9893H146.96Z" fill="white"/>
<path d="M154.739 58.214C154.916 58.3151 155.068 58.4161 155.194 58.5172C155.32 58.593 155.434 58.6941 155.535 58.8204C155.636 58.9468 155.725 59.0857 155.801 59.2373C155.876 59.3637 155.927 59.5026 155.952 59.6542C155.952 59.6795 155.952 59.7048 155.952 59.7301C155.952 59.7553 155.965 59.768 155.99 59.768C155.99 59.7932 155.99 59.8185 155.99 59.8438C155.99 59.869 155.99 59.8943 155.99 59.9196C155.99 59.9448 155.99 59.9701 155.99 59.9954C155.99 60.0206 156.003 60.0459 156.028 60.0712C156.028 60.0964 156.028 60.1217 156.028 60.147C156.028 60.147 156.028 60.1596 156.028 60.1849V67.2346C156.028 67.2851 156.028 67.323 156.028 67.3483C156.028 67.3483 156.028 67.3609 156.028 67.3862C156.028 67.4115 156.028 67.4367 156.028 67.462C156.003 67.74 155.94 68.0053 155.838 68.2579C155.737 68.5106 155.586 68.7507 155.384 68.9781C155.207 69.2055 154.967 69.3697 154.664 69.4708C154.386 69.5466 154.057 69.5845 153.678 69.5845H148.561V47.9426H153.678C153.956 47.9679 154.221 48.0437 154.474 48.17C154.752 48.2964 155.017 48.4732 155.27 48.7006C155.523 48.9281 155.712 49.1807 155.838 49.4587C155.965 49.7114 156.028 49.9893 156.028 50.2925V56.281C156.028 56.3315 156.028 56.3694 156.028 56.3947C156.028 56.42 156.028 56.4452 156.028 56.4705C156.028 56.4958 156.028 56.521 156.028 56.5463C156.003 56.5716 155.99 56.5968 155.99 56.6221C155.965 56.799 155.927 56.9632 155.876 57.1148C155.826 57.2664 155.75 57.418 155.649 57.5697C155.548 57.7213 155.422 57.8602 155.27 57.9866C155.118 58.0876 154.941 58.1761 154.739 58.2519V58.214ZM152.124 67.2346C152.225 67.2599 152.314 67.2599 152.389 67.2346C152.491 67.1841 152.579 67.1209 152.655 67.0451C152.731 66.9693 152.781 66.8935 152.806 66.8177C152.857 66.7166 152.882 66.6155 152.882 66.5145V60.147C152.882 60.0712 152.857 59.9954 152.806 59.9196C152.781 59.8185 152.731 59.7301 152.655 59.6542C152.579 59.5784 152.491 59.5279 152.389 59.5026C152.314 59.4521 152.225 59.4268 152.124 59.4268L151.783 59.3889V67.2346H152.124ZM152.882 51.0127C152.882 51.0127 152.882 51 152.882 50.9748C152.882 50.9242 152.87 50.8863 152.844 50.861C152.844 50.8358 152.832 50.7979 152.806 50.7473C152.781 50.7221 152.756 50.6968 152.731 50.6715C152.705 50.621 152.68 50.5831 152.655 50.5578C152.629 50.5326 152.592 50.5073 152.541 50.482C152.516 50.4568 152.491 50.4315 152.465 50.4062C152.415 50.381 152.377 50.3683 152.352 50.3683C152.326 50.3431 152.288 50.3304 152.238 50.3304C152.213 50.3304 152.2 50.3304 152.2 50.3304C152.175 50.3304 152.162 50.3304 152.162 50.3304L151.783 50.2925V57.039H152.124C152.2 57.0643 152.276 57.0643 152.352 57.039C152.427 57.0138 152.503 56.9632 152.579 56.8874C152.655 56.8369 152.705 56.7737 152.731 56.6979C152.781 56.6221 152.819 56.5463 152.844 56.4705C152.844 56.4705 152.857 56.4579 152.882 56.4326C152.882 56.4073 152.882 56.3947 152.882 56.3947C152.882 56.3694 152.882 56.3442 152.882 56.3189V51.0127Z" fill="white"/>
<path d="M157.326 67.2346C157.326 67.2599 157.326 67.2725 157.326 67.2725C157.326 67.2725 157.339 67.2725 157.364 67.2725C157.39 67.2725 157.415 67.2725 157.44 67.2725C157.44 67.2725 157.44 67.2851 157.44 67.3104C157.44 67.3104 157.453 67.3104 157.478 67.3104C157.478 67.3104 157.491 67.3104 157.516 67.3104C157.617 67.2851 157.705 67.2472 157.781 67.1967C157.857 67.1462 157.908 67.0704 157.933 66.9693C157.983 66.8935 158.021 66.7798 158.047 66.6282C158.072 66.4513 158.084 66.2365 158.084 65.9838V47.9426H165.551V69.5845H162.367V50.2925H161.268V66.4387C161.268 66.9693 161.205 67.4367 161.079 67.841C160.952 68.2453 160.775 68.5864 160.548 68.8644C160.295 69.1676 159.992 69.3824 159.638 69.5087C159.31 69.635 158.918 69.6982 158.463 69.6982L158.084 69.7361C158.009 69.7108 157.933 69.6856 157.857 69.6603C157.807 69.6603 157.756 69.6603 157.705 69.6603C157.68 69.6603 157.642 69.6603 157.592 69.6603C157.566 69.6603 157.541 69.6603 157.516 69.6603C157.465 69.635 157.427 69.6224 157.402 69.6224C157.377 69.6224 157.352 69.6224 157.326 69.6224C157.301 69.6224 157.276 69.6224 157.251 69.6224C157.225 69.5971 157.2 69.5845 157.175 69.5845C157.175 69.5845 157.162 69.5845 157.137 69.5845C157.112 69.5845 157.086 69.5845 157.061 69.5845C157.036 69.5845 157.011 69.5845 156.985 69.5845C156.985 69.5845 156.973 69.5845 156.947 69.5845V67.2346H157.326Z" fill="white"/>
<path d="M167.105 49.9893C167.105 49.6356 167.194 49.3197 167.37 49.0418C167.547 48.7385 167.825 48.4985 168.204 48.3216C168.558 48.1195 168.937 47.9805 169.341 47.9047C169.746 47.8036 170.175 47.7531 170.63 47.7531L171.009 47.7152C171.009 47.7405 171.009 47.7531 171.009 47.7531C171.034 47.7531 171.059 47.7531 171.085 47.7531C171.11 47.7531 171.135 47.7531 171.161 47.7531C171.186 47.7531 171.211 47.7531 171.236 47.7531C171.666 47.7784 172.07 47.8415 172.449 47.9426C172.828 48.0184 173.182 48.1574 173.51 48.3595C173.864 48.5364 174.13 48.7764 174.306 49.0797C174.483 49.3576 174.572 49.6735 174.572 50.0272V59.3889H170.289V66.8177C170.289 66.944 170.301 67.0451 170.327 67.1209C170.352 67.1714 170.39 67.222 170.44 67.2725C170.491 67.2978 170.541 67.3357 170.592 67.3862C170.643 67.4115 170.706 67.4367 170.782 67.462C170.857 67.462 170.933 67.4494 171.009 67.4241C171.085 67.3736 171.148 67.323 171.198 67.2725C171.249 67.222 171.287 67.1714 171.312 67.1209C171.363 67.0451 171.388 66.9567 171.388 66.8556V61.8146H174.572V67.6136C174.572 67.9674 174.483 68.2832 174.306 68.5612C174.13 68.8138 173.864 69.0286 173.51 69.2055C173.182 69.3824 172.828 69.5087 172.449 69.5845C172.07 69.6603 171.666 69.7108 171.236 69.7361C171.211 69.7361 171.186 69.7361 171.161 69.7361C171.135 69.7361 171.11 69.7361 171.085 69.7361C171.059 69.7361 171.034 69.7361 171.009 69.7361L170.63 69.774C170.175 69.7487 169.746 69.6982 169.341 69.6224C168.937 69.5466 168.558 69.4203 168.204 69.2434C167.825 69.0665 167.547 68.8517 167.37 68.5991C167.194 68.3211 167.105 68.0053 167.105 67.6515V49.9893ZM171.388 57.039V50.7473C171.388 50.6968 171.363 50.6336 171.312 50.5578C171.287 50.482 171.249 50.4315 171.198 50.4062C171.148 50.3557 171.085 50.3178 171.009 50.2925C170.958 50.2673 170.895 50.242 170.819 50.2167C170.744 50.242 170.668 50.2673 170.592 50.2925C170.541 50.3178 170.491 50.3557 170.44 50.4062C170.39 50.4315 170.352 50.482 170.327 50.5578C170.301 50.6336 170.289 50.7094 170.289 50.7852V57.039H171.388Z" fill="white"/>
<path d="M176.173 69.5845V47.9426H179.357V54.4996L180.456 47.9426H183.829L181.821 57.3043L184.246 69.5845H180.797L179.357 60.526V69.5845H176.173Z" fill="white"/>
<path d="M185.242 60.7534C185.242 60.3744 185.254 60.0333 185.28 59.7301C185.305 59.4016 185.355 59.1236 185.431 58.8962C185.482 58.6688 185.595 58.454 185.772 58.2519C185.949 58.0245 186.189 57.8097 186.492 57.6076C186.644 57.5065 186.821 57.4054 187.023 57.3043C187.225 57.178 187.453 57.0643 187.705 56.9632C187.958 56.8369 188.236 56.7232 188.539 56.6221C188.842 56.4958 189.183 56.3568 189.562 56.2052V50.7473C189.562 50.6968 189.537 50.6336 189.487 50.5578C189.461 50.482 189.423 50.4189 189.373 50.3683C189.322 50.3178 189.259 50.2799 189.183 50.2546C189.133 50.2293 189.07 50.2041 188.994 50.1788C188.918 50.2041 188.842 50.2293 188.766 50.2546C188.691 50.2799 188.628 50.3178 188.577 50.3683C188.526 50.4189 188.489 50.482 188.463 50.5578C188.438 50.6336 188.425 50.7094 188.425 50.7852V55.2956H185.242V49.9893C185.242 49.6356 185.33 49.3197 185.507 49.0418C185.684 48.7385 185.962 48.4985 186.341 48.3216C186.72 48.1195 187.111 47.9805 187.516 47.9047C187.92 47.8036 188.35 47.7531 188.804 47.7531L189.183 47.7152C189.183 47.7405 189.183 47.7531 189.183 47.7531C189.183 47.7531 189.196 47.7531 189.221 47.7531C189.247 47.7531 189.272 47.7531 189.297 47.7531C189.727 47.7784 190.131 47.8415 190.51 47.9426C190.914 48.0184 191.293 48.1574 191.647 48.3595C192.001 48.5364 192.266 48.7764 192.443 49.0797C192.62 49.3576 192.708 49.6735 192.708 50.0272V69.5845H189.562V69.2434C189.31 69.3445 189.082 69.4203 188.88 69.4708C188.678 69.5213 188.476 69.5592 188.274 69.5845C188.097 69.635 187.92 69.6603 187.743 69.6603C187.592 69.6856 187.453 69.6982 187.326 69.6982L186.947 69.7361C186.644 69.7108 186.379 69.6729 186.151 69.6224C185.949 69.5719 185.785 69.4708 185.659 69.3192C185.507 69.1676 185.393 69.0033 185.317 68.8265C185.267 68.6243 185.242 68.3969 185.242 68.1442V60.7534ZM189.562 59.8438C189.562 59.7932 189.537 59.7301 189.487 59.6542C189.461 59.5784 189.423 59.5153 189.373 59.4647C189.322 59.4142 189.259 59.3763 189.183 59.351C189.133 59.3258 189.07 59.3005 188.994 59.2752C188.918 59.3005 188.842 59.3258 188.766 59.351C188.691 59.3763 188.628 59.4142 188.577 59.4647C188.526 59.5153 188.489 59.5784 188.463 59.6542C188.438 59.7301 188.425 59.8059 188.425 59.8817V66.704C188.425 66.805 188.438 66.8935 188.463 66.9693C188.489 67.0198 188.526 67.0704 188.577 67.1209C188.628 67.1714 188.678 67.222 188.729 67.2725C188.804 67.2978 188.88 67.323 188.956 67.3483C189.032 67.3483 189.108 67.3357 189.183 67.3104C189.259 67.2599 189.322 67.2093 189.373 67.1588C189.423 67.1083 189.461 67.0451 189.487 66.9693C189.537 66.8935 189.562 66.8177 189.562 66.7419V59.8438Z" fill="white"/>
<path d="M194.31 49.9893C194.31 49.6356 194.398 49.3197 194.575 49.0418C194.752 48.7385 195.03 48.4985 195.409 48.3216C195.763 48.1195 196.142 47.9805 196.546 47.9047C196.95 47.8036 197.38 47.7531 197.835 47.7531L198.214 47.7152C198.214 47.7405 198.214 47.7531 198.214 47.7531C198.239 47.7531 198.264 47.7531 198.29 47.7531C198.315 47.7531 198.34 47.7531 198.365 47.7531C198.391 47.7531 198.416 47.7531 198.441 47.7531C198.871 47.7784 199.275 47.8415 199.654 47.9426C200.033 48.0184 200.387 48.1574 200.715 48.3595C201.069 48.5364 201.334 48.7764 201.511 49.0797C201.688 49.3576 201.777 49.6735 201.777 50.0272V59.3889H197.494V66.8177C197.494 66.944 197.506 67.0451 197.532 67.1209C197.557 67.1714 197.595 67.222 197.645 67.2725C197.696 67.2978 197.746 67.3357 197.797 67.3862C197.847 67.4115 197.911 67.4367 197.986 67.462C198.062 67.462 198.138 67.4494 198.214 67.4241C198.29 67.3736 198.353 67.323 198.403 67.2725C198.454 67.222 198.492 67.1714 198.517 67.1209C198.568 67.0451 198.593 66.9567 198.593 66.8556V61.8146H201.777V67.6136C201.777 67.9674 201.688 68.2832 201.511 68.5612C201.334 68.8138 201.069 69.0286 200.715 69.2055C200.387 69.3824 200.033 69.5087 199.654 69.5845C199.275 69.6603 198.871 69.7108 198.441 69.7361C198.416 69.7361 198.391 69.7361 198.365 69.7361C198.34 69.7361 198.315 69.7361 198.29 69.7361C198.264 69.7361 198.239 69.7361 198.214 69.7361L197.835 69.774C197.38 69.7487 196.95 69.6982 196.546 69.6224C196.142 69.5466 195.763 69.4203 195.409 69.2434C195.03 69.0665 194.752 68.8517 194.575 68.5991C194.398 68.3211 194.31 68.0053 194.31 67.6515V49.9893ZM198.593 57.039V50.7473C198.593 50.6968 198.568 50.6336 198.517 50.5578C198.492 50.482 198.454 50.4315 198.403 50.4062C198.353 50.3557 198.29 50.3178 198.214 50.2925C198.163 50.2673 198.1 50.242 198.024 50.2167C197.948 50.242 197.873 50.2673 197.797 50.2925C197.746 50.3178 197.696 50.3557 197.645 50.4062C197.595 50.4315 197.557 50.482 197.532 50.5578C197.506 50.6336 197.494 50.7094 197.494 50.7852V57.039H198.593Z" fill="white"/>
<path d="M207.623 69.5845L206.145 59.1615V69.5845H203.34V47.9426H206.562L208.381 58.4414L210.201 47.9426H213.422V69.5845H210.617V59.1615L209.139 69.5845H207.623Z" fill="white"/>
<path d="M218.072 47.9426V55.106H219.285C219.765 55.1313 220.195 55.2071 220.574 55.3335C220.953 55.4598 221.269 55.6619 221.521 55.9399C221.799 56.1926 222.001 56.4958 222.128 56.8495C222.279 57.178 222.355 57.5444 222.355 57.9487V66.6282C222.355 67.083 222.292 67.4873 222.166 67.841C222.039 68.1948 221.85 68.5106 221.597 68.7886C221.344 69.0665 221.016 69.2687 220.612 69.395C220.233 69.5213 219.79 69.5845 219.285 69.5845H214.888V47.9426H218.072ZM218.072 67.2346H218.413C218.514 67.2599 218.603 67.2599 218.679 67.2346C218.78 67.1841 218.868 67.1209 218.944 67.0451C219.02 66.9693 219.07 66.8935 219.096 66.8177C219.146 66.7166 219.171 66.6155 219.171 66.5145V58.3277C219.171 58.2266 219.146 58.1382 219.096 58.0624C219.045 57.9613 218.982 57.8602 218.906 57.7592C218.805 57.6834 218.704 57.6202 218.603 57.5697C218.527 57.5191 218.439 57.4939 218.338 57.4939L218.072 57.4559V67.2346ZM222.999 69.5845V47.9426H226.183V69.5845H222.999Z" fill="white"/>
<path d="M227.696 49.9893C227.696 49.6356 227.784 49.3197 227.961 49.0418C228.138 48.7385 228.416 48.4985 228.795 48.3216C229.149 48.1195 229.528 47.9805 229.932 47.9047C230.336 47.8036 230.766 47.7531 231.221 47.7531L231.6 47.7152C231.6 47.7405 231.6 47.7531 231.6 47.7531C231.625 47.7531 231.65 47.7531 231.676 47.7531C231.701 47.7531 231.726 47.7531 231.751 47.7531C231.777 47.7531 231.802 47.7531 231.827 47.7531C232.257 47.7784 232.661 47.8415 233.04 47.9426C233.419 48.0184 233.773 48.1574 234.101 48.3595C234.455 48.5364 234.72 48.7764 234.897 49.0797C235.074 49.3576 235.163 49.6735 235.163 50.0272V59.3889H230.88V66.8177C230.88 66.944 230.892 67.0451 230.918 67.1209C230.943 67.1714 230.981 67.222 231.031 67.2725C231.082 67.2978 231.132 67.3357 231.183 67.3862C231.233 67.4115 231.297 67.4367 231.372 67.462C231.448 67.462 231.524 67.4494 231.6 67.4241C231.676 67.3736 231.739 67.323 231.789 67.2725C231.84 67.222 231.878 67.1714 231.903 67.1209C231.954 67.0451 231.979 66.9567 231.979 66.8556V61.8146H235.163V67.6136C235.163 67.9674 235.074 68.2832 234.897 68.5612C234.72 68.8138 234.455 69.0286 234.101 69.2055C233.773 69.3824 233.419 69.5087 233.04 69.5845C232.661 69.6603 232.257 69.7108 231.827 69.7361C231.802 69.7361 231.777 69.7361 231.751 69.7361C231.726 69.7361 231.701 69.7361 231.676 69.7361C231.65 69.7361 231.625 69.7361 231.6 69.7361L231.221 69.774C230.766 69.7487 230.336 69.6982 229.932 69.6224C229.528 69.5466 229.149 69.4203 228.795 69.2434C228.416 69.0665 228.138 68.8517 227.961 68.5991C227.784 68.3211 227.696 68.0053 227.696 67.6515V49.9893ZM231.979 57.039V50.7473C231.979 50.6968 231.954 50.6336 231.903 50.5578C231.878 50.482 231.84 50.4315 231.789 50.4062C231.739 50.3557 231.676 50.3178 231.6 50.2925C231.549 50.2673 231.486 50.242 231.41 50.2167C231.335 50.242 231.259 50.2673 231.183 50.2925C231.132 50.3178 231.082 50.3557 231.031 50.4062C230.981 50.4315 230.943 50.482 230.918 50.5578C230.892 50.6336 230.88 50.7094 230.88 50.7852V57.039H231.979Z" fill="white"/>
<path d="M85.5545 87.5506V93.8423C85.5545 93.8928 85.5545 93.9307 85.5545 93.956C85.5545 93.9813 85.5545 94.0065 85.5545 94.0318C85.5545 94.0571 85.5545 94.0823 85.5545 94.1076C85.5292 94.1329 85.5166 94.1581 85.5166 94.1834C85.4913 94.3603 85.4408 94.5245 85.365 94.6761C85.3145 94.8278 85.2387 94.9794 85.1376 95.131C85.0365 95.2826 84.9102 95.4215 84.7586 95.5479C84.607 95.649 84.4301 95.7374 84.2279 95.8132C84.4048 95.889 84.5564 95.9774 84.6828 96.0785C84.8344 96.1543 84.9607 96.2554 85.0618 96.3817C85.1629 96.5081 85.2513 96.647 85.3271 96.7986C85.4029 96.925 85.4534 97.0639 85.4787 97.2156C85.4787 97.2408 85.4787 97.2661 85.4787 97.2914C85.4787 97.3166 85.4913 97.3293 85.5166 97.3293C85.5166 97.3545 85.5166 97.3798 85.5166 97.4051C85.5166 97.4303 85.5166 97.4556 85.5166 97.4809C85.5166 97.5061 85.5166 97.5314 85.5166 97.5567C85.5166 97.5819 85.5292 97.6072 85.5545 97.6325C85.5545 97.6577 85.5545 97.683 85.5545 97.7083C85.5545 97.7083 85.5545 97.7209 85.5545 97.7462V105.213C85.5545 105.567 85.4661 105.882 85.2892 106.16C85.1123 106.413 84.847 106.628 84.4933 106.805C84.1648 106.982 83.811 107.095 83.432 107.146C83.053 107.222 82.6487 107.272 82.2192 107.297C82.1939 107.297 82.1686 107.297 82.1434 107.297C82.1181 107.297 82.0928 107.297 82.0676 107.297C82.0423 107.297 82.017 107.297 81.9917 107.297L81.6127 107.335C81.5875 107.31 81.5622 107.297 81.5369 107.297C81.5369 107.297 81.5243 107.297 81.499 107.297C81.4738 107.297 81.4485 107.297 81.4232 107.297C81.4232 107.297 81.4106 107.297 81.3853 107.297C80.981 107.272 80.5768 107.222 80.1725 107.146C79.7934 107.095 79.4271 106.982 79.0733 106.805C78.7448 106.628 78.4922 106.413 78.3153 106.16C78.1384 105.882 78.05 105.579 78.05 105.251L78.0879 105.175V97.8599H81.2716V104.379C81.2716 104.505 81.2843 104.606 81.3095 104.682C81.3348 104.733 81.3727 104.783 81.4232 104.834C81.4738 104.859 81.5243 104.897 81.5748 104.948C81.6254 104.973 81.6885 104.998 81.7643 105.023C81.8401 105.023 81.9159 105.011 81.9917 104.985C82.0676 104.935 82.1307 104.884 82.1813 104.834C82.2318 104.783 82.2697 104.733 82.295 104.682C82.3455 104.606 82.3708 104.518 82.3708 104.417V97.7083C82.3708 97.6325 82.3455 97.5567 82.295 97.4809C82.2697 97.3798 82.2192 97.2914 82.1434 97.2156C82.0676 97.1398 81.9791 97.0892 81.878 97.0639C81.8022 97.0134 81.7138 96.9881 81.6127 96.9881L80.8926 96.9502V94.6003H81.6127C81.6885 94.6256 81.7643 94.6256 81.8401 94.6003C81.9159 94.5751 81.9917 94.5245 82.0676 94.4487C82.1434 94.3982 82.1939 94.335 82.2192 94.2592C82.2697 94.1834 82.3076 94.1076 82.3329 94.0318C82.3329 94.0318 82.3455 94.0192 82.3708 93.9939C82.3708 93.9686 82.3708 93.956 82.3708 93.956C82.3708 93.9307 82.3708 93.9055 82.3708 93.8802V88.3086C82.3708 88.2581 82.3455 88.1949 82.295 88.1191C82.2697 88.0433 82.2318 87.9928 82.1813 87.9675C82.1307 87.917 82.0676 87.8791 81.9917 87.8538C81.9412 87.8286 81.878 87.8033 81.8022 87.778C81.7264 87.8033 81.6506 87.8286 81.5748 87.8538C81.5243 87.8791 81.4738 87.917 81.4232 87.9675C81.3727 87.9928 81.3348 88.0433 81.3095 88.1191C81.2843 88.1949 81.2716 88.2707 81.2716 88.3465V93.7286H78.0879V87.5506L78.05 87.5127C78.05 87.1842 78.1384 86.8937 78.3153 86.641C78.4922 86.363 78.7575 86.1356 79.1112 85.9587C79.465 85.7819 79.8314 85.6555 80.2104 85.5797C80.6147 85.4787 81.0316 85.4155 81.4611 85.3902C81.4611 85.3902 81.4738 85.3902 81.499 85.3902C81.5243 85.3902 81.5496 85.3902 81.5748 85.3902L81.9538 85.3523C81.9538 85.3776 81.9538 85.3902 81.9538 85.3902C81.9791 85.3902 82.0044 85.3902 82.0297 85.3902C82.0549 85.3902 82.0802 85.3902 82.1055 85.3902C82.1307 85.3902 82.156 85.3902 82.1813 85.3902C82.6108 85.4155 83.0151 85.4787 83.3941 85.5797C83.7731 85.6555 84.1269 85.7945 84.4554 85.9966C84.8091 86.1735 85.0744 86.3883 85.2513 86.641C85.4282 86.8937 85.5166 87.1969 85.5166 87.5506H85.5545Z" fill="white"/>
<path d="M87.1562 98.3147C87.1562 97.9357 87.1688 97.5946 87.1941 97.2914C87.2193 96.9629 87.2699 96.6849 87.3457 96.4575C87.3962 96.2301 87.5099 96.0153 87.6868 95.8132C87.8637 95.5858 88.1037 95.371 88.4069 95.1689C88.5585 95.0678 88.7354 94.9667 88.9375 94.8656C89.1397 94.7393 89.3671 94.6256 89.6198 94.5245C89.8724 94.3982 90.1504 94.2845 90.4536 94.1834C90.7568 94.0571 91.0979 93.9181 91.4769 93.7665V88.3086C91.4769 88.2581 91.4517 88.1949 91.4011 88.1191C91.3759 88.0433 91.338 87.9802 91.2874 87.9296C91.2369 87.8791 91.1737 87.8412 91.0979 87.8159C91.0474 87.7907 90.9842 87.7654 90.9084 87.7401C90.8326 87.7654 90.7568 87.7907 90.681 87.8159C90.6052 87.8412 90.542 87.8791 90.4915 87.9296C90.441 87.9802 90.4031 88.0433 90.3778 88.1191C90.3525 88.1949 90.3399 88.2707 90.3399 88.3465V92.8569H87.1562V87.5506C87.1562 87.1969 87.2446 86.881 87.4215 86.6031C87.5983 86.2999 87.8763 86.0598 88.2553 85.8829C88.6343 85.6808 89.026 85.5418 89.4303 85.466C89.8345 85.3649 90.2641 85.3144 90.7189 85.3144L91.0979 85.2765C91.0979 85.3018 91.0979 85.3144 91.0979 85.3144C91.0979 85.3144 91.1106 85.3144 91.1358 85.3144C91.1611 85.3144 91.1864 85.3144 91.2116 85.3144C91.6412 85.3397 92.0455 85.4028 92.4245 85.5039C92.8288 85.5797 93.2078 85.7187 93.5615 85.9208C93.9153 86.0977 94.1806 86.3378 94.3575 86.641C94.5344 86.9189 94.6228 87.2348 94.6228 87.5885V107.146H91.4769V106.805C91.2243 106.906 90.9969 106.982 90.7947 107.032C90.5926 107.083 90.3904 107.121 90.1883 107.146C90.0114 107.196 89.8345 107.222 89.6577 107.222C89.5061 107.247 89.3671 107.26 89.2407 107.26L88.8617 107.297C88.5585 107.272 88.2932 107.234 88.0658 107.184C87.8637 107.133 87.6994 107.032 87.5731 106.881C87.4215 106.729 87.3078 106.565 87.232 106.388C87.1814 106.186 87.1562 105.958 87.1562 105.706V98.3147ZM91.4769 97.4051C91.4769 97.3545 91.4517 97.2914 91.4011 97.2156C91.3759 97.1398 91.338 97.0766 91.2874 97.0261C91.2369 96.9755 91.1737 96.9376 91.0979 96.9123C91.0474 96.8871 90.9842 96.8618 90.9084 96.8365C90.8326 96.8618 90.7568 96.8871 90.681 96.9123C90.6052 96.9376 90.542 96.9755 90.4915 97.0261C90.441 97.0766 90.4031 97.1398 90.3778 97.2156C90.3525 97.2914 90.3399 97.3672 90.3399 97.443V104.265C90.3399 104.366 90.3525 104.455 90.3778 104.531C90.4031 104.581 90.441 104.632 90.4915 104.682C90.542 104.733 90.5926 104.783 90.6431 104.834C90.7189 104.859 90.7947 104.884 90.8705 104.91C90.9463 104.91 91.0221 104.897 91.0979 104.872C91.1737 104.821 91.2369 104.771 91.2874 104.72C91.338 104.67 91.3759 104.606 91.4011 104.531C91.4517 104.455 91.4769 104.379 91.4769 104.303V97.4051Z" fill="white"/>
<path d="M99.4082 87.8538V107.146H96.1865V85.5039H103.691V107.146H100.507V87.8538H99.4082Z" fill="white"/>
<path d="M105.293 98.3147C105.293 97.9357 105.305 97.5946 105.331 97.2914C105.356 96.9629 105.406 96.6849 105.482 96.4575C105.533 96.2301 105.646 96.0153 105.823 95.8132C106 95.5858 106.24 95.371 106.543 95.1689C106.695 95.0678 106.872 94.9667 107.074 94.8656C107.276 94.7393 107.504 94.6256 107.756 94.5245C108.009 94.3982 108.287 94.2845 108.59 94.1834C108.893 94.0571 109.234 93.9181 109.614 93.7665V88.3086C109.614 88.2581 109.588 88.1949 109.538 88.1191C109.512 88.0433 109.475 87.9802 109.424 87.9296C109.373 87.8791 109.31 87.8412 109.234 87.8159C109.184 87.7907 109.121 87.7654 109.045 87.7401C108.969 87.7654 108.893 87.7907 108.818 87.8159C108.742 87.8412 108.679 87.8791 108.628 87.9296C108.578 87.9802 108.54 88.0433 108.514 88.1191C108.489 88.1949 108.476 88.2707 108.476 88.3465V92.8569H105.293V87.5506C105.293 87.1969 105.381 86.881 105.558 86.6031C105.735 86.2999 106.013 86.0598 106.392 85.8829C106.771 85.6808 107.163 85.5418 107.567 85.466C107.971 85.3649 108.401 85.3144 108.855 85.3144L109.234 85.2765C109.234 85.3018 109.234 85.3144 109.234 85.3144C109.234 85.3144 109.247 85.3144 109.272 85.3144C109.298 85.3144 109.323 85.3144 109.348 85.3144C109.778 85.3397 110.182 85.4028 110.561 85.5039C110.965 85.5797 111.344 85.7187 111.698 85.9208C112.052 86.0977 112.317 86.3378 112.494 86.641C112.671 86.9189 112.759 87.2348 112.759 87.5885V107.146H109.614V106.805C109.361 106.906 109.133 106.982 108.931 107.032C108.729 107.083 108.527 107.121 108.325 107.146C108.148 107.196 107.971 107.222 107.794 107.222C107.643 107.247 107.504 107.26 107.377 107.26L106.998 107.297C106.695 107.272 106.43 107.234 106.202 107.184C106 107.133 105.836 107.032 105.71 106.881C105.558 106.729 105.444 106.565 105.369 106.388C105.318 106.186 105.293 105.958 105.293 105.706V98.3147ZM109.614 97.4051C109.614 97.3545 109.588 97.2914 109.538 97.2156C109.512 97.1398 109.475 97.0766 109.424 97.0261C109.373 96.9755 109.31 96.9376 109.234 96.9123C109.184 96.8871 109.121 96.8618 109.045 96.8365C108.969 96.8618 108.893 96.8871 108.818 96.9123C108.742 96.9376 108.679 96.9755 108.628 97.0261C108.578 97.0766 108.54 97.1398 108.514 97.2156C108.489 97.2914 108.476 97.3672 108.476 97.443V104.265C108.476 104.366 108.489 104.455 108.514 104.531C108.54 104.581 108.578 104.632 108.628 104.682C108.679 104.733 108.729 104.783 108.78 104.834C108.855 104.859 108.931 104.884 109.007 104.91C109.083 104.91 109.159 104.897 109.234 104.872C109.31 104.821 109.373 104.771 109.424 104.72C109.475 104.67 109.512 104.606 109.538 104.531C109.588 104.455 109.614 104.379 109.614 104.303V97.4051Z" fill="white"/>
<path d="M114.361 87.5506C114.361 87.1969 114.449 86.881 114.626 86.6031C114.803 86.2999 115.081 86.0598 115.46 85.8829C115.814 85.6808 116.193 85.5418 116.597 85.466C117.001 85.3649 117.431 85.3144 117.886 85.3144L118.265 85.2765C118.265 85.3018 118.265 85.3144 118.265 85.3144C118.29 85.3144 118.315 85.3144 118.341 85.3144C118.366 85.3144 118.391 85.3144 118.416 85.3144C118.442 85.3144 118.467 85.3144 118.492 85.3144C118.922 85.3397 119.326 85.4028 119.705 85.5039C120.084 85.5797 120.438 85.7187 120.766 85.9208C121.12 86.0977 121.385 86.3378 121.562 86.641C121.739 86.9189 121.828 87.2348 121.828 87.5885V94.1455H118.644V88.3086C118.644 88.2581 118.619 88.1949 118.568 88.1191C118.543 88.0433 118.505 87.9928 118.454 87.9675C118.404 87.917 118.341 87.8791 118.265 87.8538C118.214 87.8286 118.151 87.8033 118.075 87.778C118 87.8033 117.924 87.8286 117.848 87.8538C117.797 87.8791 117.747 87.917 117.696 87.9675C117.646 87.9928 117.608 88.0433 117.583 88.1191C117.557 88.1949 117.545 88.2707 117.545 88.3465V104.379C117.545 104.505 117.557 104.606 117.583 104.682C117.608 104.733 117.646 104.783 117.696 104.834C117.747 104.859 117.797 104.897 117.848 104.948C117.898 104.973 117.962 104.998 118.037 105.023C118.113 105.023 118.189 105.011 118.265 104.985C118.341 104.935 118.404 104.884 118.454 104.834C118.505 104.783 118.543 104.733 118.568 104.682C118.619 104.606 118.644 104.518 118.644 104.417V97.8599H121.828V105.175C121.828 105.529 121.739 105.845 121.562 106.122C121.385 106.375 121.12 106.59 120.766 106.767C120.438 106.944 120.084 107.07 119.705 107.146C119.326 107.222 118.922 107.272 118.492 107.297C118.467 107.297 118.442 107.297 118.416 107.297C118.391 107.297 118.366 107.297 118.341 107.297C118.315 107.297 118.29 107.297 118.265 107.297L117.886 107.335C117.431 107.31 117.001 107.26 116.597 107.184C116.193 107.108 115.814 106.982 115.46 106.805C115.081 106.628 114.803 106.413 114.626 106.16C114.449 105.882 114.361 105.567 114.361 105.213V87.5506Z" fill="white"/>
<path d="M126.575 85.5039V92.6673H127.788C128.268 92.6926 128.698 92.7684 129.077 92.8948C129.456 93.0211 129.771 93.2232 130.024 93.5012C130.302 93.7539 130.504 94.0571 130.631 94.4108C130.782 94.7393 130.858 95.1057 130.858 95.51V104.189C130.858 104.644 130.795 105.049 130.668 105.402C130.542 105.756 130.353 106.072 130.1 106.35C129.847 106.628 129.519 106.83 129.115 106.956C128.736 107.083 128.293 107.146 127.788 107.146H123.391V85.5039H126.575ZM126.575 104.796H126.916C127.017 104.821 127.106 104.821 127.182 104.796C127.283 104.745 127.371 104.682 127.447 104.606C127.523 104.531 127.573 104.455 127.598 104.379C127.649 104.278 127.674 104.177 127.674 104.076V95.889C127.674 95.7879 127.649 95.6995 127.598 95.6237C127.548 95.5226 127.485 95.4215 127.409 95.3205C127.308 95.2447 127.207 95.1815 127.106 95.131C127.03 95.0804 126.941 95.0552 126.84 95.0552L126.575 95.0173V104.796ZM131.502 107.146V85.5039H134.686V107.146H131.502Z" fill="white"/>
<path d="M146.034 94.6003V85.5039H149.218V107.146H146.034V96.9502H144.935V107.146H141.713V85.5039H144.935V94.6003H146.034Z" fill="white"/>
<path d="M150.819 87.5506C150.819 87.1969 150.908 86.881 151.084 86.6031C151.261 86.2999 151.539 86.0598 151.918 85.8829C152.272 85.6808 152.651 85.5418 153.055 85.466C153.46 85.3649 153.889 85.3144 154.344 85.3144L154.723 85.2765C154.723 85.3018 154.723 85.3144 154.723 85.3144C154.748 85.3144 154.774 85.3144 154.799 85.3144C154.824 85.3144 154.849 85.3144 154.875 85.3144C154.9 85.3144 154.925 85.3144 154.95 85.3144C155.38 85.3397 155.784 85.4028 156.163 85.5039C156.542 85.5797 156.896 85.7187 157.225 85.9208C157.578 86.0977 157.844 86.3378 158.021 86.641C158.197 86.9189 158.286 87.2348 158.286 87.5885V96.9502H154.003V104.379C154.003 104.505 154.016 104.606 154.041 104.682C154.066 104.733 154.104 104.783 154.155 104.834C154.205 104.859 154.256 104.897 154.306 104.948C154.357 104.973 154.42 104.998 154.496 105.023C154.571 105.023 154.647 105.011 154.723 104.985C154.799 104.935 154.862 104.884 154.913 104.834C154.963 104.783 155.001 104.733 155.026 104.682C155.077 104.606 155.102 104.518 155.102 104.417V99.376H158.286V105.175C158.286 105.529 158.197 105.845 158.021 106.122C157.844 106.375 157.578 106.59 157.225 106.767C156.896 106.944 156.542 107.07 156.163 107.146C155.784 107.222 155.38 107.272 154.95 107.297C154.925 107.297 154.9 107.297 154.875 107.297C154.849 107.297 154.824 107.297 154.799 107.297C154.774 107.297 154.748 107.297 154.723 107.297L154.344 107.335C153.889 107.31 153.46 107.26 153.055 107.184C152.651 107.108 152.272 106.982 151.918 106.805C151.539 106.628 151.261 106.413 151.084 106.16C150.908 105.882 150.819 105.567 150.819 105.213V87.5506ZM155.102 94.6003V88.3086C155.102 88.2581 155.077 88.1949 155.026 88.1191C155.001 88.0433 154.963 87.9928 154.913 87.9675C154.862 87.917 154.799 87.8791 154.723 87.8538C154.673 87.8286 154.609 87.8033 154.534 87.778C154.458 87.8033 154.382 87.8286 154.306 87.8538C154.256 87.8791 154.205 87.917 154.155 87.9675C154.104 87.9928 154.066 88.0433 154.041 88.1191C154.016 88.1949 154.003 88.2707 154.003 88.3465V94.6003H155.102Z" fill="white"/>
<path d="M164.095 112.263V106.956C163.918 107.057 163.753 107.121 163.602 107.146C163.45 107.196 163.299 107.234 163.147 107.26C162.995 107.31 162.856 107.335 162.73 107.335C162.604 107.361 162.477 107.373 162.351 107.373L161.972 107.411C161.644 107.386 161.34 107.323 161.062 107.222C160.81 107.121 160.582 106.969 160.38 106.767C160.203 106.565 160.064 106.337 159.963 106.085C159.862 105.807 159.812 105.503 159.812 105.175V87.2853C159.812 87.0074 159.837 86.7547 159.887 86.5273C159.963 86.2746 160.077 86.0598 160.229 85.8829C160.38 85.7313 160.57 85.6176 160.797 85.5418C161.025 85.4408 161.302 85.3902 161.631 85.3902L162.01 85.3523C162.136 85.3776 162.275 85.4029 162.427 85.4281C162.604 85.4281 162.781 85.4534 162.957 85.5039C163.134 85.5292 163.311 85.5671 163.488 85.6176C163.69 85.6682 163.892 85.7187 164.095 85.7692V80.5009H167.278V85.7313C167.48 85.7061 167.67 85.6682 167.847 85.6176C168.024 85.5671 168.201 85.5292 168.377 85.5039C168.554 85.4534 168.719 85.4281 168.87 85.4281C169.022 85.4029 169.161 85.3902 169.287 85.3902L169.666 85.3523C169.995 85.3776 170.273 85.4408 170.5 85.5418C170.753 85.6176 170.955 85.7313 171.106 85.8829C171.258 86.0598 171.372 86.2746 171.447 86.5273C171.523 86.7547 171.561 87.02 171.561 87.3232V105.137C171.561 105.491 171.511 105.807 171.41 106.085C171.309 106.337 171.157 106.565 170.955 106.767C170.778 106.969 170.55 107.121 170.273 107.222C170.02 107.323 169.729 107.373 169.401 107.373L169.022 107.411C168.895 107.386 168.756 107.361 168.605 107.335C168.479 107.335 168.34 107.31 168.188 107.26C168.036 107.234 167.885 107.196 167.733 107.146C167.582 107.121 167.43 107.07 167.278 106.994V112.263H164.095ZM164.095 88.4603C164.095 88.4097 164.069 88.3465 164.019 88.2707C163.993 88.1949 163.956 88.1318 163.905 88.0812C163.854 88.0307 163.791 87.9928 163.716 87.9675C163.665 87.9423 163.602 87.917 163.526 87.8917C163.45 87.917 163.374 87.9423 163.299 87.9675C163.248 87.9928 163.198 88.0307 163.147 88.0812C163.096 88.1318 163.059 88.1949 163.033 88.2707C163.008 88.3465 162.995 88.4224 162.995 88.4982V104.265C162.995 104.392 163.008 104.493 163.033 104.568C163.059 104.619 163.096 104.67 163.147 104.72C163.198 104.745 163.248 104.783 163.299 104.834C163.349 104.859 163.412 104.884 163.488 104.91C163.564 104.91 163.64 104.897 163.716 104.872C163.791 104.821 163.854 104.771 163.905 104.72C163.956 104.67 163.993 104.619 164.019 104.568C164.069 104.493 164.095 104.404 164.095 104.303V88.4603ZM167.278 104.265C167.278 104.392 167.291 104.493 167.316 104.568C167.341 104.619 167.379 104.67 167.43 104.72C167.48 104.745 167.531 104.783 167.581 104.834C167.632 104.859 167.695 104.884 167.771 104.91C167.847 104.91 167.923 104.897 167.998 104.872C168.074 104.821 168.137 104.771 168.188 104.72C168.238 104.67 168.276 104.619 168.302 104.568C168.352 104.493 168.377 104.404 168.377 104.303V88.4603C168.377 88.4097 168.352 88.3465 168.302 88.2707C168.276 88.1949 168.238 88.1318 168.188 88.0812C168.137 88.0307 168.074 87.9928 167.998 87.9675C167.948 87.9423 167.885 87.917 167.809 87.8917C167.733 87.917 167.657 87.9423 167.581 87.9675C167.531 87.9928 167.48 88.0307 167.43 88.0812C167.379 88.1318 167.341 88.1949 167.316 88.2707C167.291 88.3465 167.278 88.4224 167.278 88.4982V104.265Z" fill="white"/>
<path d="M173.974 107.146V87.8538H172.458V85.5039H178.674V87.8538H177.158V107.146H173.974Z" fill="white"/>
<path d="M179.616 107.146V85.5039H182.42V95.6616L183.936 85.5039H187.082V107.146H184.315V96.6091L182.837 107.146H179.616Z" fill="white"/>
<defs>
<radialGradient id="paint0_radial_69_729" cx="0" cy="0" r="1" gradientUnits="userSpaceOnUse" gradientTransform="translate(32.8156 101.747) rotate(-35.695) scale(37.6221 37.6304)">
<stop stop-color="#FCC300"/>
<stop offset="1" stop-color="#E41C3C"/>
</radialGradient>
<radialGradient id="paint1_radial_69_729" cx="0" cy="0" r="1" gradientUnits="userSpaceOnUse" gradientTransform="translate(33.7391 112.195) rotate(-31.856) scale(38.6671 25.8831)">
<stop stop-color="#00A9B9"/>
<stop offset="0.760784" stop-color="#204B99"/>
<stop offset="1" stop-color="#1E3E79"/>
</radialGradient>
</defs>
</svg>
