<svg width="274" height="118" viewBox="0 0 274 118" fill="none" xmlns="http://www.w3.org/2000/svg">
<path d="M230.101 82.6024C228.476 83.7351 226.334 84.5599 223.675 85.0767C221.017 85.5938 218.284 85.8525 215.477 85.8525C212.178 85.8525 209.014 85.3598 205.986 84.3753C202.958 83.3903 200.274 81.8146 197.936 79.6481C197.46 79.2074 197.004 78.7415 196.568 78.2496V56.4637H190.36C190.583 52.5261 191.348 49.1385 192.655 46.3009C194.23 42.8786 196.249 40.1212 198.711 38.0287C201.173 35.936 203.906 34.4221 206.909 33.4864C209.913 32.5507 212.867 32.083 215.772 32.083C218.973 32.083 221.669 32.28 223.86 32.6739C226.051 33.0678 227.861 33.5357 229.289 34.0772L227.147 43.2358C225.916 42.694 224.475 42.3003 222.826 42.054C221.176 41.8077 219.096 41.6848 216.585 41.6848C214.369 41.6848 212.363 42.0417 210.565 42.7557C208.768 43.4697 207.23 44.5407 205.949 45.9685C204.669 47.3965 203.672 49.1938 202.958 51.3603C202.244 53.5266 201.887 56.0624 201.887 58.9676C201.887 61.528 202.207 63.8671 202.847 65.9843C203.487 68.1014 204.447 69.9234 205.728 71.4497C207.008 72.9762 208.633 74.158 210.602 74.9952C212.572 75.8321 214.861 76.2507 217.471 76.2507C219.884 76.2507 221.915 76.0291 223.565 75.586C225.214 75.1428 226.679 74.5766 227.959 73.8872L230.101 82.6024ZM119.524 33.3496C121.765 32.9554 124.25 32.6469 126.979 32.4237C129.755 32.1964 132.532 32.083 135.309 32.083C138.137 32.083 140.989 32.2975 143.867 32.7266C146.745 33.1557 149.332 34.014 151.629 35.3014C153.927 36.5888 155.807 38.3813 157.271 40.6784C158.736 42.9755 159.468 46.0176 159.468 49.804C159.468 53.1363 158.836 55.9762 157.574 58.3238C156.312 60.6716 154.633 62.5774 152.538 64.0417C150.443 65.5057 148.057 66.5787 145.382 67.2601C142.706 67.942 139.954 68.2824 137.127 68.2824C136.874 68.2824 136.445 68.2824 135.839 68.2824C135.233 68.2824 134.59 68.2701 133.908 68.2446C133.227 68.2194 132.583 68.1816 131.977 68.1312C131.371 68.0806 130.917 68.0302 130.614 67.9798V85.8525H119.524C119.524 73.7795 119.524 44.4159 119.524 33.3496ZM136.067 41.928C135.006 41.928 133.984 41.9532 133 42.0036C132.015 42.0543 131.22 42.1553 130.614 42.3065V58.0589C130.816 58.1093 131.144 58.1597 131.598 58.2101C132.053 58.2608 132.532 58.2988 133.037 58.3238C133.542 58.349 134.009 58.3744 134.438 58.3996C134.868 58.4248 135.208 58.4374 135.461 58.4374C136.925 58.4374 138.389 58.3366 139.853 58.1345C141.317 57.9327 142.617 57.5036 143.753 56.8471C144.889 56.1907 145.811 55.2946 146.518 54.1586C147.224 53.0226 147.578 51.4956 147.578 49.5769C147.578 47.9612 147.25 46.6611 146.593 45.6766C145.937 44.6921 145.066 43.9223 143.98 43.3669C142.895 42.8115 141.658 42.4328 140.27 42.2309C138.881 42.0288 137.48 41.928 136.067 41.928ZM174.27 57.6383H195.393V80.8298C194.261 81.7161 193.018 82.4672 191.664 83.0827C190.31 83.698 188.881 84.2151 187.38 84.6335C185.878 85.0521 184.339 85.3598 182.763 85.5568C181.188 85.7537 179.637 85.8525 178.111 85.8525C174.565 85.8525 171.254 85.3354 168.177 84.3013C165.099 83.2674 162.415 81.6547 160.126 79.4635C157.836 77.2725 156.039 74.4781 154.734 71.0804C154.029 69.2446 153.515 67.2218 153.19 65.0126L153.208 65.0005C154.341 64.2086 155.355 63.3048 156.249 62.2894C157.145 61.2725 157.931 60.1352 158.606 58.8792C159.286 57.6146 159.796 56.2166 160.137 54.6855C160.473 53.1692 160.642 51.5419 160.642 49.804C160.642 47.8318 160.447 46.0345 160.056 44.4121C159.736 43.082 159.284 41.8792 158.701 40.8036C159.505 39.8412 160.374 38.9652 161.308 38.1763C163.844 36.0345 166.675 34.4835 169.801 33.5232C172.928 32.5631 176.043 32.083 179.144 32.083C182.345 32.083 185.164 32.317 187.602 32.7847C190.039 33.2524 191.947 33.7078 193.325 34.151L191.036 43.2358C189.706 42.7925 188.204 42.4232 186.53 42.1278C184.856 41.8324 182.763 41.6845 180.252 41.6845C177.938 41.6845 175.821 41.9923 173.9 42.6079C171.98 43.2234 170.306 44.2205 168.878 45.5992C167.45 46.9779 166.342 48.775 165.554 50.9909C164.767 53.2068 164.373 55.8901 164.373 59.0414C164.373 62.0942 164.767 64.7041 165.554 66.8706C166.342 69.0371 167.413 70.822 168.767 72.2254C170.121 73.6286 171.685 74.6504 173.457 75.2906C175.23 75.9306 177.101 76.2507 179.071 76.2507C180.4 76.2507 181.742 76.1031 183.096 75.8074C184.45 75.512 185.595 75.0443 186.53 74.4043V65.4672L174.27 64.2855V57.6383Z" fill="white"/>
<path fill-rule="evenodd" clip-rule="evenodd" d="M64.7988 15.6423C63.9982 18.0623 62.9388 21.3507 61.9057 25.1463C62.4012 25.1111 62.8936 25.1098 63.3821 25.1409C63.4857 24.5328 63.5888 23.9368 63.6896 23.3539C64.199 20.4106 64.6502 17.8016 64.7988 15.6423ZM76.5625 103.288C74.7382 103.775 72.9461 103.999 71.2007 104C71.5363 103.721 72.1657 103.164 72.8571 102.378C74.4075 102.39 75.9225 102.244 77.3007 102.026C76.7528 102.707 76.3769 103.108 76.3727 103.112L76.5625 103.288ZM70.7888 103.996C68.3865 103.949 66.0757 103.48 63.8945 102.687C64.3756 102.503 65.3378 102.049 66.3023 101.098C68.1517 101.925 70.1807 102.285 72.1767 102.362C71.3267 103.273 70.6389 103.788 70.6338 103.792L70.7888 103.996ZM63.5099 102.542C62.0739 101.992 60.6962 101.301 59.3872 100.499C60.0099 100.389 61.5545 100.098 63.2502 99.65C64.1126 100.082 64.9662 100.48 65.8003 100.868C64.5965 101.995 63.449 102.292 63.4423 102.294L63.5099 102.542ZM59.0544 100.293C57.2412 99.146 55.5653 97.7879 54.0562 96.2971C55.0004 96.1405 56.0268 95.932 57.1183 95.6785C58.8971 97.2163 60.7409 98.3469 62.5565 99.2952C60.6298 99.7744 59.0223 100.037 59.0131 100.038L59.0544 100.293ZM53.8292 96.0703C52.2898 94.5186 50.9304 92.8298 49.7841 91.0903C50.7614 90.9687 51.7439 90.8234 52.729 90.6571C53.9619 92.514 55.2804 94.0128 56.6426 95.2563C55.626 95.4861 54.6697 95.6748 53.7888 95.816L53.8292 96.0703ZM49.6252 90.8468C49.3442 90.412 49.076 89.9742 48.8225 89.5347C47.9447 88.0146 47.2054 86.4287 46.5796 84.7941C47.5088 85.0597 48.5826 85.123 49.7733 85.0201C50.5892 86.9931 51.4781 88.6978 52.4209 90.1824C51.4752 90.339 50.5323 90.4758 49.5938 90.5905L49.6252 90.8468ZM46.4572 84.4781C45.6555 82.3224 45.0623 80.079 44.6491 77.7749C45.4961 78.0292 46.4613 78.1208 47.5232 78.0776C48.129 80.4925 48.8171 82.6276 49.5715 84.5224C48.4283 84.6052 47.4068 84.5229 46.5351 84.2385L46.4572 84.4781ZM44.5949 77.4754C44.1781 75.0551 43.9603 72.5694 43.9117 70.0478C44.6288 70.2805 45.3709 70.423 46.1343 70.4868C46.2273 71.5101 46.36 72.5064 46.5354 73.4709C46.7984 74.9183 47.0866 76.2821 47.3978 77.5682C46.3834 77.5993 45.4678 77.4982 44.6717 77.2388L44.5949 77.4754ZM43.905 69.765C43.8677 67.1462 44.0107 64.4906 44.3051 61.8314C44.8882 61.9567 45.5092 62.0022 46.1638 61.9798C45.9337 64.7524 45.8951 67.4357 46.0905 69.9625C45.3652 69.8956 44.662 69.7544 43.9847 69.5264L43.905 69.765ZM44.3393 61.5489C44.6908 58.4845 45.2389 55.417 45.9363 52.3986L45.9136 52.6493C46.4492 52.6979 46.9933 52.7071 47.5448 52.6825C46.9308 55.6484 46.47 58.5989 46.2091 61.4602C45.5639 61.4861 44.9553 61.4429 44.3889 61.3185L44.3393 61.5489ZM45.9987 52.1374C46.4356 50.2714 46.928 48.4242 47.4659 46.6089L47.4718 46.6239C47.9328 46.4439 48.5173 46.1886 49.202 45.8831C48.6219 47.963 48.1007 50.0634 47.6549 52.1582C47.0931 52.1891 46.5405 52.1844 45.9987 52.1374ZM47.6526 45.9916C48.6209 42.7976 49.7247 39.7067 50.9006 36.7861L51.0255 37.0105C51.4009 36.801 51.8236 36.5955 52.2854 36.3965C51.4986 38.5175 50.7517 40.7093 50.0654 42.939C49.8314 43.6999 49.6044 44.4653 49.3851 45.2339C48.7201 45.5319 48.1375 45.7908 47.6526 45.9916ZM51.0525 36.4076C52.2304 33.5116 53.4774 30.7917 54.7296 28.3071L54.8813 28.5144C55.1994 28.2804 55.5162 28.0616 55.8322 27.8572C54.6988 30.3016 53.5834 32.9523 52.5335 35.7336C51.9928 35.9504 51.4953 36.1761 51.0525 36.4076ZM54.9834 27.8034C58.4026 21.1105 61.8273 16.2398 63.9781 14.5374C61.7712 16.7332 58.9673 21.2434 56.2335 27.002C55.818 27.2444 55.4015 27.5113 54.9834 27.8034ZM65.4 14C66.319 14.7989 67.1945 20.2206 68.4834 26.6829C68.0201 26.4296 67.5521 26.2054 67.0798 26.0118C66.7198 21.6386 66.3362 17.4953 65.4 14ZM68.5503 27.0161C69.037 29.4423 69.5829 32.0048 70.211 34.5169C69.5263 34.167 68.703 33.914 67.783 33.745C67.5267 31.4852 67.3418 29.2197 67.161 27.0045L67.1276 26.5944C67.5629 26.7834 67.9944 26.9994 68.4222 27.2416L68.5503 27.0161ZM70.2956 34.8566C70.7533 36.6616 71.255 38.4347 71.808 40.1089C70.8122 39.8564 69.7621 39.7278 68.6791 39.6985C68.3279 37.9189 68.0617 36.1036 67.8455 34.2817C68.7398 34.4581 69.5291 34.7203 70.1678 35.0818L70.2956 34.8566ZM71.905 40.4012C72.6187 42.5225 73.4192 44.472 74.3232 46.1088C73.0067 45.8283 71.6774 45.7478 70.3422 45.816C69.6883 44.0213 69.1843 42.143 68.7845 40.2189C69.8451 40.2554 70.8695 40.3925 71.8379 40.6529L71.905 40.4012ZM74.4922 46.4086C75.5284 48.2136 76.6985 49.607 78.0309 50.3763C78.8697 50.8605 79.6986 51.3989 80.5129 51.9862C78.2927 51.0829 75.8045 51.0304 73.1782 51.4994C72.1009 49.895 71.2354 48.1573 70.533 46.3274C71.8458 46.2724 73.1487 46.3675 74.4338 46.6642L74.4922 46.4086ZM81.6093 52.8144C83.2145 54.0799 84.7483 55.5322 86.1661 57.1276C83.8818 56.2351 81.344 56.291 78.6501 56.935C77.321 55.6741 75.9151 54.4348 74.4333 53.1875C74.1075 52.7918 73.7979 52.3857 73.5032 51.97C76.428 51.4822 79.1535 51.6774 81.4787 53.037L81.6093 52.8144ZM86.5592 57.5766C87.9538 59.1969 89.2281 60.9562 90.3366 62.8103C88.818 62.3832 86.7883 62.6031 84.4153 63.2479C82.8129 61.1673 81.0398 59.2379 79.0983 57.3634C81.7636 56.7731 84.251 56.7988 86.4507 57.8116L86.5592 57.5766ZM90.5336 63.1448C91.5168 64.8295 92.362 66.5898 93.0372 68.393C91.7194 68.0009 89.991 68.1392 87.9693 68.6501C86.9902 66.8834 85.9167 65.2414 84.7491 63.6863C87.0807 63.07 89.041 62.8944 90.4487 63.3881L90.5336 63.1448ZM93.1519 68.7031C93.6697 70.1314 94.079 71.5854 94.3647 73.0493L94.2076 72.8459C93.3095 73.5414 92.1889 74.322 90.8789 75.1584C90.8755 75.1145 90.8709 75.0733 90.8642 75.0355L90.8563 74.9882L90.8401 74.9443C90.0641 72.8428 89.1906 70.9118 88.2213 69.1111C90.1877 68.6257 91.8444 68.5177 93.067 68.9466L93.1519 68.7031ZM94.419 73.3367C94.691 74.8141 94.836 76.3001 94.836 77.779C94.836 78.3676 94.8149 78.9613 94.7748 79.5578L94.5943 79.374C93.8178 80.1371 92.4756 81.0561 90.7254 82.0658C90.5467 80.5668 90.2332 79.0407 89.7612 77.4581C90.072 77.2689 90.3104 77.0012 90.4863 76.7068C90.6575 76.4199 90.7681 76.0998 90.828 75.8033C92.2434 74.9111 93.4535 74.0775 94.419 73.3367ZM94.7463 79.9425C94.5858 81.9146 94.2084 83.9153 93.6165 85.8784L93.4074 85.7278C92.5625 86.9033 91.6868 87.9056 90.7881 88.7636C90.8645 87.7405 90.9097 86.5606 90.9097 85.1999C90.9097 84.3452 90.8699 83.4882 90.7858 82.6238C92.5252 81.6302 93.8926 80.7172 94.7463 79.9425ZM93.3774 86.6372C92.5656 89.0858 91.4176 91.4608 89.9386 93.6305C90.2312 92.7727 90.5343 91.4745 90.7223 89.5347C91.6302 88.7158 92.5178 87.7598 93.3774 86.6372ZM88.5949 95.4298C87.2198 97.1147 85.6202 98.6333 83.8003 99.913C84.0312 99.363 84.4649 98.2623 84.8817 96.8401C86.6034 96.2624 87.9346 95.7145 88.5949 95.4298ZM82.4396 100.799C80.7955 101.788 78.9908 102.59 77.0279 103.158C77.2624 102.89 77.6296 102.457 78.0613 101.897C79.9244 101.557 81.4785 101.109 82.4396 100.799ZM61.7622 25.6768C61.0808 28.2179 60.4169 30.9738 59.8526 33.8402C60.4229 33.7556 60.9952 33.6841 61.564 33.6275C61.7699 33.6072 61.9754 33.5887 62.1803 33.5723C62.4685 30.775 62.8807 28.1184 63.2954 25.6544C62.7881 25.6246 62.277 25.6315 61.7622 25.6768ZM57 26.5811C57.3988 26.3759 57.7963 26.1931 58.1923 26.0321C59.7921 22.2228 61.4069 18.9777 62.8293 16.6422C61.0472 18.9509 59.0136 22.4092 57 26.5811ZM58.8539 25.7832C59.2044 25.6618 59.5538 25.5575 59.9017 25.4698C61.0765 22.0811 62.2425 19.1466 63.2258 16.9765C61.8833 19.188 60.3666 22.2225 58.8539 25.7832ZM60.4933 25.3363C60.7818 25.2792 61.069 25.2335 61.3554 25.1988C62.2315 21.9621 63.1299 19.0869 63.8771 16.7911C62.8936 18.9131 61.7015 21.8757 60.4933 25.3363ZM63.9007 25.1862C64.2594 25.226 64.616 25.2836 64.9703 25.3584C65.1076 22.6062 65.2138 19.9755 65.1347 17.5272C64.9187 19.2937 64.5754 21.2776 64.201 23.4411C64.1026 24.0106 64.002 24.5925 63.9007 25.1862ZM65.4833 25.4785C65.8384 25.5703 66.1912 25.6791 66.5419 25.8048C66.3089 22.9903 66.0624 20.2761 65.6607 17.7836C65.7255 20.2005 65.6183 22.7823 65.4833 25.4785ZM66.5887 26.3746C66.2141 26.2321 65.8366 26.1095 65.4566 26.0074L65.4195 26.7315C65.3072 28.9232 65.1915 31.1841 65.1475 33.4856C65.8816 33.5067 66.5874 33.5625 67.2508 33.6581C67.0021 31.4397 66.8209 29.2184 66.6435 27.0449L66.5887 26.3746ZM64.9441 25.8827C64.5697 25.8009 64.1931 25.7392 63.8141 25.6981C63.4034 28.1369 62.9946 30.7663 62.7071 33.5342C63.3595 33.4925 64.0028 33.4728 64.6286 33.4766C64.6731 31.1689 64.7893 28.9026 64.9019 26.7053L64.9441 25.8827ZM61.2104 25.7398C60.9065 25.7822 60.6016 25.8382 60.2953 25.9077C59.4142 28.4681 58.5302 31.2831 57.7177 34.2199C58.2422 34.1112 58.7747 34.0122 59.3105 33.9248C59.8703 31.0527 60.5306 28.2904 61.2104 25.7398ZM59.6985 26.0599C59.3273 26.165 58.9539 26.2903 58.579 26.4358C57.5125 28.9929 56.4531 31.8025 55.464 34.7612C56.0091 34.6116 56.5722 34.4712 57.1471 34.3426C57.9491 31.425 58.8236 28.6216 59.6985 26.0599ZM57.9069 26.7181C57.4801 26.911 57.0512 27.1303 56.6203 27.3769C55.4424 29.8735 54.2768 32.606 53.1789 35.4866C53.7094 35.2924 54.2738 35.1068 54.8631 34.9327C55.827 32.0257 56.8612 29.2554 57.9069 26.7181ZM59.7479 34.3796C59.3039 36.6978 58.9277 39.0837 58.6628 41.4824C59.687 41.1469 60.7337 40.8386 61.7874 40.5755C61.7954 38.354 61.9255 36.1872 62.1278 34.0963C61.9574 34.1104 61.7861 34.1261 61.6149 34.1431C60.9939 34.2048 60.3691 34.2845 59.7479 34.3796ZM67.3115 34.1881C66.6321 34.0837 65.9022 34.0233 65.1388 34.0019C65.1113 35.9453 65.1385 37.9166 65.2658 39.8983C66.24 39.7679 67.2053 39.6933 68.1476 39.6913C67.7943 37.8816 67.5277 36.0373 67.3115 34.1881ZM64.6199 33.9934C63.9815 33.9898 63.323 34.0119 62.6544 34.0567C62.4529 36.1204 62.3217 38.2583 62.3094 40.4495C63.1227 40.2588 63.938 40.0968 64.7487 39.9723C64.6189 37.9619 64.5916 35.9635 64.6199 33.9934ZM59.2062 34.4665C58.6526 34.5599 58.1033 34.665 57.5636 34.7807C56.9244 37.1301 56.3333 39.5511 55.8281 41.9776C55.7892 42.164 55.7509 42.3505 55.7131 42.5369C56.4945 42.236 57.3016 41.9409 58.1257 41.6614C58.3864 39.2318 58.7613 36.8151 59.2062 34.4665ZM56.9931 34.9078C56.4014 35.0445 55.824 35.1937 55.2681 35.3528C54.3817 38.0475 53.5561 40.8581 52.838 43.7078C53.5687 43.3957 54.3391 43.0763 55.1397 42.7603C55.1986 42.4644 55.259 42.1682 55.3208 41.872C55.809 39.5267 56.3778 37.1854 56.9931 34.9078ZM54.6661 35.5316C54.0547 35.7203 53.4741 35.9208 52.9357 36.1304C52.0926 38.3795 51.2924 40.7131 50.5606 43.0912C50.3704 43.7101 50.1845 44.3321 50.0037 44.9562C50.6843 44.6507 51.4341 44.3151 52.2394 43.9657C52.9527 41.0936 53.7772 38.2563 54.6661 35.5316ZM58.6024 42.0473C58.3582 44.4172 58.2252 46.7956 58.2455 49.1303C59.5553 48.6227 60.88 48.1108 62.2127 47.6457C61.9265 45.4303 61.7995 43.245 61.7882 41.1083C60.7137 41.3803 59.6458 41.7002 58.6024 42.0473ZM68.2512 40.2094C67.2893 40.2058 66.301 40.2801 65.3013 40.4151C65.4483 42.4294 65.7024 44.4532 66.1107 46.4691C67.3415 46.1695 68.5739 45.9504 69.8017 45.8517C69.1507 44.0387 68.649 42.1458 68.2512 40.2094ZM64.7842 40.4894C63.9624 40.6169 63.1347 40.7841 62.3089 40.9808C62.3161 43.1028 62.4372 45.2729 62.7161 47.4724C63.6757 47.1468 64.6389 46.8488 65.6031 46.5971C65.1902 44.5625 64.9331 42.5209 64.7842 40.4894ZM58.0671 42.2283C57.2206 42.5194 56.3927 42.8267 55.5931 43.1388C55.1007 45.6445 54.7068 48.1424 54.4527 50.5591C55.5311 50.1781 56.6264 49.7574 57.7336 49.3288C57.7048 46.9879 57.83 44.6041 58.0671 42.2283ZM55.0212 43.3646C54.2041 43.6911 53.4204 44.02 52.6809 44.3391C52.0892 46.7447 51.577 49.173 51.1716 51.5774C52.0697 51.348 52.9848 51.0641 53.9133 50.7466C54.157 48.3425 54.5396 45.8582 55.0212 43.3646ZM52.0841 44.5982C51.3341 44.9263 50.6357 45.24 50.0029 45.5242L49.8173 45.6074C49.2069 47.7639 48.6595 49.9441 48.1925 52.1181C48.9863 52.0435 49.7978 51.9023 50.6241 51.7108C51.016 49.3486 51.5115 46.9633 52.0841 44.5982ZM58.2538 49.6824C58.3016 52.169 58.5266 54.6014 58.9817 56.9142L59.1588 56.8304C60.6535 56.12 62.1734 55.3979 63.6971 54.7181C63.0445 52.52 62.5871 50.3313 62.2834 48.1699C60.9484 48.6382 59.6204 49.1527 58.3078 49.6615L58.2538 49.6824ZM69.9881 46.3585C68.7367 46.4493 67.4773 46.6704 66.2171 46.9777C66.6494 48.9817 67.2377 50.9762 68.0291 52.944C69.587 52.3778 71.1269 51.9114 72.6252 51.6051C71.5501 49.9719 70.6877 48.2093 69.9881 46.3585ZM65.7096 47.106C64.734 47.361 63.7583 47.6644 62.7858 47.9961C63.0825 50.1457 63.5325 52.3215 64.1764 54.506C65.2995 54.0123 66.4231 53.5446 67.539 53.1252C66.7401 51.1387 66.1462 49.1264 65.7096 47.106ZM57.7426 49.8803C56.6133 50.3172 55.4961 50.744 54.3951 51.1282C54.1231 53.9475 54.0483 56.6468 54.2372 59.1052C55.6157 58.5055 57.0443 57.834 58.5009 57.1428C58.0352 54.8184 57.7994 52.3765 57.7426 49.8803ZM53.8582 51.3122C52.9185 51.629 51.9915 51.9101 51.0795 52.1345C50.6082 55.0449 50.2973 57.9149 50.1965 60.6618C51.323 60.3034 52.5081 59.8439 53.7361 59.3212C53.533 56.8515 53.596 54.1422 53.8582 51.3122ZM50.5344 52.2626C49.7024 52.4474 48.8837 52.5812 48.0804 52.648C47.4613 55.6144 46.9961 58.5649 46.7313 61.4244C47.649 61.3391 48.634 61.128 49.6733 60.822C49.7656 58.0643 50.069 55.1838 50.5344 52.2626ZM59.0889 57.4375C59.6338 59.9892 60.4648 62.3886 61.655 64.5467L61.7838 64.7801C62.6948 64.2916 63.6091 63.7918 64.5242 63.2919C65.2426 62.8993 65.9616 62.5066 66.6792 62.1189C65.489 59.8225 64.5618 57.5159 63.8493 55.218C62.3495 55.888 60.8523 56.5995 59.38 57.2991L59.0889 57.4375ZM72.9401 52.0715C71.4097 52.3688 69.8295 52.8419 68.2266 53.4238C69.1046 55.5137 70.2164 57.5717 71.6188 59.5767C73.3716 58.7403 75.0969 58.0108 76.7728 57.4673C75.8238 56.1691 74.8945 54.8829 74.0499 53.5374C73.6578 53.0625 73.2883 52.5734 72.9401 52.0715ZM67.7365 53.6053C66.6064 54.0295 65.4669 54.5042 64.3275 55.0061C65.0326 57.2937 65.952 59.5896 67.1348 61.8734C68.4798 61.1506 69.82 60.4497 71.1454 59.8051C69.7369 57.7825 68.6197 55.7091 67.7365 53.6053ZM58.6083 57.6655C57.1314 58.3662 55.683 59.0453 54.2838 59.65C54.4185 61.0781 54.6471 62.4195 54.9829 63.6493C55.3552 65.0126 55.781 66.3113 56.2472 67.5525C57.9108 66.8053 59.6111 65.938 61.3264 65.0244L61.2004 64.7963C60.004 62.627 59.1627 60.2214 58.6083 57.6655ZM53.7855 59.8629C52.5366 60.3908 51.3294 60.8523 50.1793 61.2092C50.1009 64.1669 50.2727 66.9737 50.7584 69.5238C52.3718 69.1289 54.0516 68.5141 55.7728 67.7623C55.2976 66.499 54.8633 65.1759 54.4838 63.7853C54.1532 62.5748 53.9248 61.2596 53.7855 59.8629ZM49.6579 61.3653C48.6124 61.6646 47.6173 61.869 46.685 61.9482C46.449 64.7475 46.4099 67.4545 46.6117 69.9974C47.7747 70.0473 48.9924 69.9149 50.2528 69.6408C49.7669 67.0973 49.5892 64.3047 49.6579 61.3653ZM62.0337 65.2332L62.6809 66.4062C63.6325 68.1305 64.5474 69.7881 65.4206 71.3795C66.5488 70.8498 67.6812 70.3114 68.8089 69.7753C69.3967 69.4958 69.9835 69.2168 70.5677 68.9401L69.892 67.7715C69.3564 66.8453 68.7969 65.8776 67.6061 63.8152C67.368 63.403 67.1397 62.9903 66.9196 62.5774C66.2045 62.9636 65.4879 63.3552 64.7719 63.7465C63.8578 64.2459 62.9442 64.7449 62.0337 65.2332ZM77.0953 57.9077C75.4193 58.4397 73.6871 59.1669 71.9232 60.0056C72.539 60.858 73.2078 61.7003 73.9352 62.5308C74.9869 63.7313 75.9469 64.9103 76.8237 66.0653C78.3809 65.3857 79.8845 64.7688 81.3077 64.2497C81.235 64.1193 81.1622 63.9892 81.0886 63.8599C79.8604 61.6928 78.465 59.7794 77.0953 57.9077ZM71.4478 60.2337C70.1036 60.8858 68.7423 61.5972 67.375 62.3318C67.5927 62.7409 67.819 63.1495 68.0545 63.5575C68.4737 64.2836 69.4366 65.9488 70.3404 67.5116L71.0377 68.7175C72.8419 67.8646 74.6197 67.0367 76.336 66.2792C75.4867 65.1653 74.559 64.0288 73.5457 62.8718C72.7854 62.004 72.0878 61.1241 71.4478 60.2337ZM61.5763 65.4777C59.8412 66.4021 58.1198 67.2799 56.4323 68.0364C57.2895 70.2425 58.2713 72.2637 59.3 74.1384C61.1402 73.358 63.0375 72.4939 64.95 71.5998C64.082 70.018 63.1723 68.3698 62.2263 66.6559L61.5763 65.4777ZM55.9579 68.2462C54.2123 69.0075 52.5055 69.6303 50.8599 70.0316C50.9569 70.4939 51.0643 70.9473 51.1834 71.3911C51.6879 73.2737 52.1926 74.9977 52.7004 76.5811C54.6098 76.0149 56.6725 75.2389 58.8192 74.341C57.794 72.4692 56.8152 70.4502 55.9579 68.2462ZM50.3544 70.1486C49.0796 70.4255 47.8436 70.5621 46.657 70.5184C46.7483 71.499 46.8766 72.4543 47.0447 73.3796C47.3124 74.8525 47.6063 76.2373 47.9243 77.5412C49.2174 77.4481 50.656 77.1596 52.2021 76.7251C51.6927 75.1371 51.187 73.4095 50.682 71.525C50.5617 71.0756 50.4526 70.6166 50.3544 70.1486ZM65.6702 71.8346C66.7147 73.7401 67.6977 75.5482 68.6102 77.2581C69.4296 76.8472 70.2501 76.4335 71.068 76.0211C71.998 75.5521 72.9247 75.0846 73.8439 74.6249C72.9399 73.0469 71.9379 71.3106 70.8279 69.3904C70.2308 69.6732 69.6312 69.9584 69.0301 70.244C67.9121 70.7757 66.7895 71.3093 65.6702 71.8346ZM81.5582 64.7051C80.1612 65.2136 78.6804 65.82 77.1431 66.4898C78.4182 68.2001 79.5107 69.8568 80.4461 71.4515C81.7024 70.8858 82.9176 70.37 84.0772 69.9231C83.2747 68.0502 82.4424 66.3298 81.5582 64.7051ZM76.6564 66.7032C74.9244 67.4663 73.1253 68.3043 71.2979 69.168C72.4051 71.0833 73.4053 72.8165 74.3083 74.393C76.2486 73.4254 78.1505 72.4975 79.972 71.6664C79.0342 70.072 77.9379 68.4148 76.6564 66.7032ZM65.2 72.0552C63.2903 72.9479 61.3943 73.8116 59.552 74.593C60.6517 76.5577 61.7969 78.3606 62.8949 80.0466C64.6171 79.2403 66.3786 78.374 68.1469 77.49C67.2328 75.7778 66.2472 73.9659 65.2 72.0552ZM59.0707 74.7959C56.8969 75.7053 54.8037 76.4929 52.8585 77.0694C53.6291 79.4244 54.4075 81.4598 55.2027 83.236C57.4451 82.4775 59.886 81.4425 62.4197 80.268C61.3189 78.5766 60.1722 76.768 59.0707 74.7959ZM52.3602 77.2131C50.8111 77.6487 49.3627 77.9413 48.0496 78.0454C48.6595 80.459 49.3532 82.5873 50.1135 84.472C51.4984 84.3154 53.0452 83.9387 54.7085 83.4C53.9112 81.614 53.1314 79.5714 52.3602 77.2131ZM68.8539 77.7155C70.1588 80.17 71.3138 82.4181 72.2914 84.4568L72.4416 84.3974C74.3518 83.6376 76.2036 82.8454 77.9762 82.0401C76.9626 80.1243 75.6888 77.8508 74.1016 75.0754C73.1746 75.539 72.2397 76.0105 71.3012 76.4839C70.4869 76.8945 69.67 77.3064 68.8539 77.7155ZM84.2775 70.3947C83.1395 70.8344 81.9441 71.3425 80.7063 71.8999C82.1763 74.4673 83.24 76.8701 84.007 79.0739L84.015 79.0973C85.1772 78.4902 86.28 77.8883 87.3146 77.3C86.8958 77.021 86.5898 76.641 86.5014 76.3104L86.4906 76.2669C85.7652 74.1361 85.034 72.1948 84.2775 70.3947ZM80.2327 72.1149C78.4143 72.9446 76.51 73.8738 74.5659 74.8434C76.1539 77.6206 77.4303 79.8998 78.448 81.8249C80.2412 81.0013 81.9492 80.1659 83.5506 79.3387L83.518 79.2444C82.7561 77.056 81.6978 74.6681 80.2327 72.1149ZM68.3906 77.9475C66.638 78.8237 64.8912 79.6828 63.1805 80.4842C63.3453 80.7365 63.5091 80.9864 63.6711 81.2337C64.8822 83.0812 66.0047 84.7947 66.9085 86.4426C68.5726 85.8748 70.2105 85.2724 71.8101 84.6466C70.8382 82.6235 69.6893 80.3894 68.3906 77.9475ZM62.7051 80.7059C60.1539 81.8891 57.6901 82.9341 55.4156 83.7044C56.376 85.7856 57.3623 87.4993 58.3908 88.9495C61.0934 88.2869 63.7819 87.4937 66.4084 86.6115C65.5216 85.0042 64.4222 83.3265 63.2368 81.5179C63.0615 81.2502 62.884 80.9794 62.7051 80.7059ZM54.9212 83.8688C53.2651 84.4064 51.7164 84.7893 50.3151 84.9626C51.1381 86.9267 52.0352 88.6178 52.9861 90.0863C54.6044 89.8052 56.2289 89.4669 57.8496 89.0804C56.8375 87.6292 55.8664 85.9242 54.9212 83.8688ZM72.5146 84.925C73.3081 86.601 73.9766 88.1314 74.5035 89.5139C75.1877 89.2473 75.8688 88.9776 76.544 88.705C77.852 88.1776 79.1389 87.641 80.3877 87.1028C79.876 85.8087 79.1692 84.3195 78.2174 82.4988C76.4285 83.3118 74.56 84.1117 72.6324 84.8785L72.5146 84.925ZM87.8654 77.5811C86.7197 78.2378 85.488 78.9119 84.1831 79.5928C84.8118 81.4862 85.2217 83.2262 85.4855 84.7911C87.2488 83.9459 88.8543 83.1213 90.2343 82.3453C90.0664 80.8234 89.7573 79.274 89.2816 77.6649L89.2657 77.6692C89.2035 77.686 89.1407 77.6996 89.0777 77.7104C88.654 77.7826 88.2357 77.7196 87.8654 77.5811ZM83.7177 79.8342C82.1369 80.6496 80.4538 81.4721 78.6889 82.2833C79.6385 84.1004 80.3471 85.5941 80.8642 86.8964C82.3051 86.2698 83.692 85.6419 84.9982 85.0232C84.7431 83.4653 84.3413 81.7279 83.7177 79.8342ZM72.0335 85.1148C70.4419 85.7383 68.8125 86.3384 67.1569 86.9046C67.9985 88.5031 68.6189 90.0451 68.8956 91.5943C70.5983 90.9949 72.3194 90.3586 74.0239 89.7001C73.4991 88.3237 72.8301 86.7943 72.0335 85.1148ZM66.6586 87.0738C64.0581 87.9496 61.3963 88.7394 58.7197 89.4026C59.9945 91.1171 61.3392 92.4531 62.7833 93.605C64.5931 93.0558 66.4817 92.4366 68.3983 91.7686C68.1355 90.2287 67.5118 88.6842 66.6586 87.0738ZM58.1746 89.5358C56.5503 89.9274 54.9217 90.2714 53.2987 90.5586C54.5509 92.4071 55.89 93.8876 57.2713 95.1107C58.7986 94.7492 60.4506 94.3013 62.1813 93.786C60.798 92.6498 59.5021 91.3315 58.2661 89.6605C58.2355 89.6193 58.2049 89.5774 58.1746 89.5358ZM74.6852 89.9991C75.3445 91.8003 75.7485 93.3379 75.8582 94.6083C76.2578 94.542 76.6615 94.4774 77.0683 94.4126C78.5125 94.182 79.9977 93.9447 81.4921 93.5911C81.5337 93.2605 81.5561 92.9306 81.5561 92.6027C81.5561 91.0204 81.2905 89.5167 80.5734 87.5865C79.3261 88.1244 78.0417 88.6597 76.7368 89.1861C76.0578 89.4599 75.3731 89.7312 74.6852 89.9991ZM90.2898 82.9035C88.9062 83.6746 87.3121 84.4897 85.5706 85.3223C85.8611 87.235 85.9347 88.8672 85.9347 90.175C85.9347 90.8348 85.8969 91.4917 85.831 92.1358C87.3296 91.4464 88.8075 90.5298 90.2335 89.2725C90.3302 88.1499 90.3901 86.8069 90.3901 85.1999C90.3901 84.4378 90.3577 83.6736 90.2898 82.9035ZM85.0807 85.555C83.8034 86.1587 82.4519 86.7701 81.0506 87.3798C81.7999 89.3853 82.0758 90.9466 82.0758 92.6027C82.0758 92.8869 82.0598 93.1725 82.0297 93.4587C83.1148 93.1807 84.2032 92.8341 85.2829 92.3778C85.3662 91.6573 85.4153 90.9181 85.4153 90.175C85.4153 88.9233 85.3466 87.3698 85.0807 85.555ZM74.2052 90.1853C72.4673 90.8569 70.7117 91.5053 68.9753 92.1152C69.028 92.5264 69.0555 92.9383 69.0555 93.3525C69.0555 94.6908 68.9031 95.8448 68.6493 96.8391C70.6371 95.6442 72.9155 95.1143 75.3442 94.6952C75.246 93.4628 74.8534 91.9576 74.2052 90.1853ZM68.4734 92.2908C66.7062 92.9054 64.9629 93.4785 63.2828 93.9938C64.733 95.0932 66.2835 96.0341 67.963 97.0037C67.9928 97.0209 68.0234 97.0363 68.0535 97.0533C68.3515 96.0248 68.5359 94.8032 68.5359 93.3525C68.5359 92.9979 68.5145 92.6444 68.4734 92.2908ZM62.6724 94.1791C60.9451 94.6991 59.291 95.1547 57.7547 95.5273C59.578 97.0551 61.4645 98.163 63.3122 99.0997C64.8899 98.6757 66.5648 98.1183 67.6984 97.4493C65.888 96.4041 64.2249 95.3907 62.6724 94.1791ZM75.8868 95.1285C75.8878 95.1809 75.8894 95.2334 75.8894 95.2848C75.8894 96.3806 75.6713 97.4089 75.3278 98.35C76.9559 98.2546 78.6059 97.9864 80.1674 97.6364C80.7197 96.5318 81.1784 95.3411 81.4044 94.145C79.9666 94.4741 78.5395 94.7019 77.1493 94.9241C76.7248 94.9917 76.3036 95.0591 75.8868 95.1285ZM90.16 90.023C88.7293 91.2153 87.2532 92.0859 85.7603 92.7423C85.5971 93.9968 85.3358 95.1884 85.0514 96.2387C87.1231 95.5255 88.5586 94.8837 88.8003 94.7739C88.9417 94.6366 89.7542 93.7012 90.16 90.023ZM85.2049 92.9766C84.1242 93.4137 83.0369 93.7462 81.9539 94.0141C81.7561 95.1997 81.3342 96.3807 80.8122 97.486C82.1274 97.1682 83.3668 96.7998 84.4593 96.4385C84.7501 95.4121 85.0252 94.2303 85.2049 92.9766ZM75.3687 95.2167C72.9396 95.6386 70.6723 96.1773 68.7339 97.3953C70.5072 98.1931 72.6051 98.4484 74.766 98.3762C75.1329 97.4325 75.3697 96.3945 75.3697 95.2848C75.3697 95.2624 75.3687 95.2393 75.3687 95.2167ZM67.7131 98.035C66.6902 98.5888 65.3349 99.0619 64.0023 99.4433C64.7166 99.7927 65.4229 100.121 66.1156 100.443L66.1878 100.476C66.7448 99.8698 67.2891 99.0738 67.7131 98.035ZM66.6797 100.699C68.5531 101.502 70.6129 101.822 72.6252 101.86C73.3004 101.07 74.0175 100.063 74.5495 98.8912C72.331 98.9429 70.1784 98.6513 68.3595 97.7941C67.918 99.036 67.312 99.9822 66.6797 100.699ZM73.2914 101.863C74.8683 101.846 76.4 101.667 77.7712 101.425C78.4148 100.58 79.1836 99.471 79.8599 98.2258C78.3246 98.551 76.7127 98.7925 75.1224 98.8701C74.6269 100.03 73.953 101.042 73.2914 101.863ZM78.5213 101.283C80.965 100.793 82.7751 100.147 83.2053 99.9871C83.3472 99.6654 83.8147 98.5698 84.2831 97.0368C83.1472 97.4027 81.8693 97.7694 80.5194 98.0797C79.893 99.2951 79.1674 100.397 78.5213 101.283Z" fill="white"/>
</svg>
