<svg width="150" height="151" viewBox="0 0 150 151" fill="none" xmlns="http://www.w3.org/2000/svg">
<path d="M133.023 2.7063H16.9765C9.04914 2.7063 2.6228 9.13264 2.6228 17.0599V133.107C2.6228 141.034 9.04914 147.46 16.9765 147.46H133.023C140.951 147.46 147.377 141.034 147.377 133.107V17.0599C147.377 9.13264 140.951 2.7063 133.023 2.7063Z" fill="white"/>
<path fill-rule="evenodd" clip-rule="evenodd" d="M0.8396 109.296L23.7812 108.844L47.0523 101.236L60.7545 83.5029L89.679 79.2475L105.086 78.6667L118.521 74.0991L133.298 67.9191L141.627 61.4715L147.377 55.2915V46.1562L138.403 56.6347L123.626 61.2023C123.626 61.2023 115.296 63.3522 112.341 64.6953C109.386 66.0384 101.056 69.5315 101.056 69.5315L91.922 73.5614L85.2043 75.1737L74.9996 75.0837L51.0823 79.4729L42.4847 95.0558L33.0809 98.0112L18.5725 99.0858L8.90034 100.967L2.62297 103.385L0.8396 109.296Z" fill="black" fill-opacity="0.5"/>
<path d="M112.273 41.6051L107.003 45.6351C106.716 45.8537 106.305 45.7994 106.086 45.5123C105.868 45.2253 105.922 44.814 106.209 44.5954L112.046 40.1312L114.02 28.9529L96.9005 26.2683L85.1802 38.9933L98.8318 49.5729C99.1174 49.793 99.1702 50.2042 98.9501 50.4897C98.7299 50.7753 98.3187 50.8282 98.0331 50.608L84.5621 40.1691L80.2221 54.1918C80.1165 54.5368 79.7499 54.7309 79.4048 54.6253C79.0597 54.5197 78.8656 54.1531 78.9712 53.808L83.6348 38.7382L96.0192 25.2926L97.7788 2.65808C97.8048 2.2974 98.1201 2.02673 98.4808 2.05276C98.8415 2.07878 99.1122 2.39406 99.0862 2.75474L97.3556 25.0174C103.234 25.9396 109.12 26.8446 114.995 27.7846C125.931 33.5741 136.813 39.6611 147.689 45.5823C148.006 45.7541 148.123 46.1519 147.951 46.4687C147.779 46.7855 147.381 46.9023 147.064 46.7305L115.268 29.4207L113.318 40.468L117.543 55.9603C117.638 56.3083 117.433 56.6682 117.085 56.7627C116.737 56.8571 116.377 56.6519 116.282 56.3038L112.273 41.6051ZM2.8301 54.3896C2.48801 54.5041 2.11693 54.319 2.0024 53.9769C1.88788 53.6348 2.07304 53.2637 2.41513 53.1492L24.1862 45.8284L36.1274 16.4332C36.2628 16.0978 36.6457 15.9364 36.9811 16.0718C37.3165 16.2071 37.4779 16.5901 37.3426 16.9255L25.6832 45.6269L56.4721 43.5342C56.8328 43.5104 57.1458 43.7833 57.1696 44.144C57.1934 44.5047 56.9206 44.8178 56.5599 44.8416L26.1257 46.9097L40.1521 61.5088L58.7953 64.871C59.1501 64.9342 59.3865 65.2747 59.3233 65.6295C59.2601 65.9842 58.9196 66.2207 58.5648 66.1575L39.961 62.8028L30.2814 68.8518C29.9742 69.0422 29.5697 68.9485 29.3793 68.6414C29.1889 68.3342 29.2826 67.9297 29.5898 67.7393L38.7957 61.9863L24.497 47.1038L2.8301 54.3896ZM2.97884 33.2997C2.67616 33.4961 2.27085 33.4105 2.07452 33.1079C1.87819 32.8052 1.96372 32.3999 2.26639 32.2035L14.125 24.4768C14.4277 24.2805 14.833 24.3659 15.0293 24.6686C15.2257 24.9713 15.1401 25.3766 14.8375 25.5729L2.97884 33.2997ZM121.338 93.2615L104.27 94.7198C103.909 94.7488 103.591 94.4804 103.562 94.1197C103.533 93.759 103.802 93.4415 104.162 93.4125L120.633 92.0054L114.956 75.3107C114.84 74.9686 115.024 74.596 115.366 74.48C115.708 74.364 116.081 74.5477 116.197 74.8898L122.077 92.1832L135.627 102.055L136.315 83.6264L132.659 68.068C132.577 67.7162 132.797 67.363 133.149 67.2812C133.5 67.1994 133.854 67.4188 133.935 67.7705L137.629 83.4911L136.901 102.983L147.761 110.894C148.053 111.106 148.117 111.515 147.905 111.807C147.693 112.098 147.284 112.162 146.992 111.95L121.338 93.2615ZM80.9249 143.135L81.1019 147.435C81.1153 147.796 80.8341 148.101 80.4735 148.114C80.1128 148.128 79.8079 147.846 79.7945 147.486L79.6331 143.573L65.5866 135.12C65.2772 134.933 65.1768 134.529 65.3635 134.22C65.5502 133.911 65.9539 133.81 66.2633 133.997L79.5684 142.004L78.8768 125.224L63.566 106.545C63.337 106.266 63.3771 105.854 63.656 105.625C63.9349 105.396 64.3468 105.436 64.5759 105.715L79.2255 123.587L83.2168 109.048C83.3113 108.7 83.6712 108.495 84.0193 108.589C84.3673 108.684 84.5726 109.044 84.4781 109.392L80.179 125.052L80.9249 143.135Z" fill="black"/>
<path fill-rule="evenodd" clip-rule="evenodd" d="M94.8232 105.712L94.8284 105.725L94.8269 105.722L94.8232 105.712ZM63.574 58.2896C63.574 59.4535 69.5695 60.3897 69.7167 66.3034C69.7598 68.2734 69.2044 69.4997 68.1379 70.6822C66.1761 72.8716 62.4644 73.0902 58.5824 73.1341C49.752 73.2657 38.5322 70.2003 36.1859 74.9732C35.2043 77.031 35.6311 75.8924 35.8022 78.1256C36.7399 88.0656 40.7506 91.5683 40.0679 99.8885C29.7011 107.201 14.3866 105.143 20.487 131.591C21.5534 136.32 22.0219 135.094 23.5591 138.072C26.4594 143.677 22.9181 144.815 28.2078 147.354C33.4983 149.982 37.9953 148.717 39.4886 148.63C43.584 149.681 43.3728 147.727 46.7863 148.734L52.311 142.013C53.7195 138.466 57.3881 134.262 57.3881 129.183C57.3881 123.622 54.017 122.615 55.3824 113.551C56.7478 104.661 58.497 110.003 56.2786 99.1441C54.9132 92.5313 57.1747 88.81 61.9097 86.2704C65.9627 84.9124 69.7167 88.1533 79.2722 89.4667C84.9457 90.255 83.1111 90.2111 84.2206 91.4367C89.8093 93.3643 88.8277 98.1372 88.9132 102.691C90.0651 108.164 89.2122 102.21 93.9903 110.748C96.933 116.002 96.1655 114.294 96.6779 120.075C97.3599 128.482 100.816 133.737 104.997 138.378C106.718 143.038 106.378 145.754 108.366 147.398C112.803 150.682 129.312 149.237 136.18 149.019L137.866 146.615C133.003 144.6 131.147 136.451 124.748 131.329C117.667 125.592 109.688 132.292 104.868 124.585C104.399 124.279 103.503 125.942 102.522 121.213C102.01 118.849 102.479 118.498 102.65 116.615C101.712 115.477 103.119 118.367 101.243 114.47C101.072 114.163 100.687 113.113 100.56 112.762C99.408 109.697 99.7917 110.792 99.1945 107.946L98.8532 107.377C95.4828 103.611 93.1373 99.4074 95.4405 93.7584C96.6623 90.7428 95.9648 90.8417 96.4221 87.2334C92.1125 77.5128 88.7429 80.0525 79.9549 74.7977C75.6036 72.2141 76.073 71.0324 76.2433 65.1648C76.3712 59.472 74.7507 57.7638 73.9825 52.3781C71.7641 36.2649 57.0468 39.6799 57.8574 24.1348C58.639 9.00924 77.1356 9.35507 80.062 2.05888C80.0196 2.05888 46.7253 -0.918054 39.7906 2.70662C39.4061 6.20933 47.576 14.8954 47.6608 20.5005C47.8319 31.7538 42.6701 27.857 53.1217 35.8708C64.8353 44.818 61.462 44.0869 63.574 58.2896ZM96.3916 107.335L96.3529 107.336L96.3559 107.307L96.3522 107.335H96.3916ZM96.17 108.292C96.3908 108.724 96.5999 109.14 96.7969 109.538C96.5999 109.138 96.3916 108.725 96.17 108.292ZM98.3452 112.855C98.5371 113.298 98.7066 113.711 98.8598 114.099C98.7066 113.711 98.5371 113.297 98.3452 112.855ZM98.8829 114.157C99.0413 114.562 99.1804 114.938 99.3023 115.289C100.399 118.463 100.059 119.583 99.9665 121.14C100.059 119.585 100.4 118.464 99.3023 115.289C99.1811 114.938 99.0413 114.562 98.8829 114.157Z" fill="url(#paint0_linear_29_396)"/>
<path fill-rule="evenodd" clip-rule="evenodd" d="M16.9759 0.0834961H133.024C137.696 0.0834961 141.941 1.99255 145.016 5.06764C148.091 8.14274 150 12.3876 150 17.0594V133.108C150 137.771 148.091 142.013 145.016 145.089V145.099C141.941 148.174 137.696 150.083 133.024 150.083H16.9759C12.3123 150.083 8.07037 148.174 4.99453 145.099L4.98415 145.089C1.90905 142.013 0 137.771 0 133.108V17.0594C0 12.3876 1.90905 8.14274 4.98415 5.06764H4.99453C8.07037 1.99255 12.3123 0.0834961 16.9759 0.0834961ZM16.9759 2.70647H133.024C140.918 2.70647 147.377 9.16529 147.377 17.0594V133.108C147.377 141.002 140.918 147.461 133.024 147.461H16.9759C9.08179 147.461 2.62298 141.002 2.62298 133.108V17.0594C2.62298 9.16529 9.08179 2.70647 16.9759 2.70647Z" fill="#2B2A29"/>
<defs>
<linearGradient id="paint0_linear_29_396" x1="137.866" y1="75.2157" x2="19.0952" y2="75.2157" gradientUnits="userSpaceOnUse">
<stop stop-color="#00C7D4"/>
<stop offset="1" stop-color="#02E7BD"/>
</linearGradient>
</defs>
</svg>
