<svg width="100" height="101" viewBox="0 0 100 101" fill="none" xmlns="http://www.w3.org/2000/svg">
<path fill-rule="evenodd" clip-rule="evenodd" d="M1.74854 18.5326H20.1664V98.3348H21.9155V18.5326H55.9396V98.3348H57.6887V18.5326H98.2512V11.7477C98.2512 6.29408 93.7892 1.83203 88.3356 1.83203H11.6642C6.21058 1.83203 1.74854 6.29408 1.74854 11.7477V18.5326Z" fill="black" fill-opacity="0.2"/>
<path fill-rule="evenodd" clip-rule="evenodd" d="M83.1839 6.67432H88.7585C89.1552 6.67432 89.4789 6.99812 89.4789 7.39475V12.9693C89.4789 13.3659 89.1552 13.6896 88.7585 13.6896H83.1839C82.7873 13.6896 82.4636 13.3659 82.4636 12.9693V7.39475C82.4636 6.99812 82.7873 6.67432 83.1839 6.67432ZM61.8405 6.67432H67.4151C67.8117 6.67432 68.1354 6.99812 68.1354 7.39475V12.9693C68.1354 13.3659 67.8117 13.6896 67.4151 13.6896H61.8405C61.4438 13.6896 61.1201 13.3659 61.1201 12.9693V7.39475C61.1201 6.99812 61.4438 6.67432 61.8405 6.67432ZM72.5122 6.67432H78.0868C78.4834 6.67432 78.8072 6.99812 78.8072 7.39475V12.9693C78.8072 13.3659 78.4834 13.6896 78.0868 13.6896H72.5122C72.1156 13.6896 71.7919 13.3659 71.7919 12.9693V7.39475C71.7919 6.99812 72.1156 6.67432 72.5122 6.67432Z" fill="url(#paint0_linear_30_144)"/>
<path d="M30.217 18.377L31.912 22.3952C31.97 22.533 31.9463 22.6808 31.8615 22.7948L30.042 25.552L33.9914 28.8558C34.1857 29.0189 34.1991 29.2955 34.0196 29.4725L31.7599 31.768L48.2942 33.5201C48.5575 33.5474 48.7469 33.7641 48.7166 34.0035C48.6938 34.1845 48.5525 34.3268 48.3711 34.3739L33.031 38.3407L43.4157 40.1512C43.676 40.1963 43.847 40.4254 43.7975 40.6619C43.7598 40.8409 43.6066 40.9733 43.4217 41.008L35.1678 42.9767L51.8872 45.8532C52.1474 45.8973 52.319 46.126 52.2704 46.3625C52.2303 46.5578 52.0513 46.6985 51.8435 46.7164L37.6691 48.4041L31.4192 50.0278L33.8163 51.9653C34.0142 52.1254 34.0315 52.4021 33.8555 52.582C33.8149 52.6232 33.7682 52.6553 33.7177 52.6791L30.9943 54.1655L35.803 57.172C36.0206 57.3088 36.0756 57.581 35.9249 57.7788C35.8833 57.8344 35.8293 57.8779 35.7693 57.9092L33.2254 59.3415L44.2759 61.5745C44.5342 61.626 44.6973 61.8591 44.6408 62.0936C44.6095 62.223 44.5168 62.3267 44.3973 62.3847L40.1004 64.4624L49.5366 66.5056C49.7949 66.5611 49.9551 66.7971 49.8941 67.0316C49.8569 67.1734 49.7473 67.283 49.6095 67.3351L40.9814 70.8734C40.9403 70.8903 40.8986 70.9012 40.8565 70.9071L31.9978 72.5784L27.2358 75.6905L29.7931 77.159L36.8372 78.8367C37.093 78.8972 37.2472 79.1356 37.1807 79.3682C37.1441 79.4961 37.0484 79.5963 36.9264 79.6503L31.1748 82.2025L41.7439 84.5367C42.0007 84.5932 42.1589 84.8293 42.0969 85.0628C42.0469 85.2512 41.8683 85.3811 41.6666 85.3944L30.4515 86.1907L37.9348 89.3409C38.1753 89.4415 38.2799 89.7013 38.1693 89.9199C38.1182 90.0206 38.03 90.095 37.9269 90.1361L28.6825 93.8574L37.3399 96.7082L46.9482 97.9025L46.8207 98.7672L37.1609 97.5664L37.0613 97.5441L27.2527 94.3146C27.1253 94.2779 27.0152 94.1936 26.9567 94.0736C26.8501 93.853 26.9602 93.5952 27.2026 93.498L36.5694 89.7281L28.4014 86.2893C28.2383 86.2288 28.1168 86.088 28.1035 85.917C28.0841 85.6765 28.2829 85.4663 28.5472 85.449L38.5917 84.737L29.688 82.7708C29.5407 82.748 29.4069 82.6632 29.3365 82.5318C29.2205 82.3151 29.3196 82.0534 29.5581 81.9478L35.3429 79.3821L29.4921 77.9884C29.4411 77.978 29.3905 77.9592 29.3439 77.9324L26.1238 76.0831C26.0737 76.0534 26.0276 76.0157 25.9909 75.9686C25.8362 75.7737 25.8853 75.501 26.1 75.3607L31.502 71.8293C31.5596 71.7877 31.6285 71.7575 31.7043 71.7431L40.6314 70.0589L47.9447 67.0594L38.6398 65.045C38.5099 65.0167 38.3934 64.9399 38.3255 64.8244C38.2016 64.6112 38.2908 64.3464 38.5253 64.2334L42.799 62.1685L31.8838 59.9627C31.7559 59.9409 31.6374 59.872 31.564 59.7634C31.4247 59.5587 31.4946 59.29 31.7197 59.1635L34.6532 57.5121L29.8352 54.4997C29.7807 54.465 29.7326 54.4198 29.6959 54.3643C29.5601 54.1581 29.6349 53.8899 29.8615 53.7665L32.6895 52.2235L30.1382 50.1606C30.0668 50.1066 30.0117 50.0327 29.9844 49.9455C29.912 49.7134 30.0603 49.4715 30.3151 49.4055L37.4326 47.5562L48.7632 46.2038L32.9002 43.4745C32.7237 43.4438 32.5724 43.3237 32.5244 43.1552C32.4579 42.9226 32.6121 42.6842 32.8679 42.6238L41.1574 40.6465L30.8873 38.8558C30.7053 38.832 30.5462 38.714 30.4926 38.5424C30.4202 38.3104 30.5685 38.0684 30.8233 38.0025L45.787 34.1339L30.7306 32.5385C30.6354 32.5276 30.5427 32.4919 30.4658 32.4294C30.269 32.2693 30.2522 31.9931 30.4282 31.8141L32.9934 29.2073L29.1049 25.954C28.9418 25.8167 28.9002 25.5891 29.0182 25.4091L30.9319 22.5093L29.3196 18.6883L30.217 18.377Z" fill="url(#paint1_linear_30_144)"/>
<path d="M46.4527 18.1838C46.4666 18.1913 51.3773 20.804 51.3773 24.2453C51.3773 26.4054 49.8483 26.8893 47.6356 27.5894C46.2455 28.0296 44.5449 28.568 42.836 29.7723C40.7195 31.2641 36.4835 32.1129 32.5554 32.8997C28.4052 33.7306 24.6224 34.4892 24.6224 35.6438C24.6224 36.4133 24.5202 37.1139 24.4235 37.7827C24.1811 39.4559 23.9684 40.9244 25.6685 43.0008C26.9773 44.5982 32.8231 45.6374 37.9609 46.5501C41.836 47.2387 45.3297 47.8604 46.5147 48.6953C47.648 49.4935 48.4824 50.4415 48.8057 51.3319C48.9628 51.7627 49.002 52.1866 48.9028 52.5788C48.7982 52.9928 48.5429 53.3701 48.1146 53.6844C47.6753 54.0077 47.0585 54.261 46.242 54.4142C45.1874 54.613 43.7388 54.7112 42.1811 54.8153C38.6823 55.0498 34.5856 55.3264 34.0224 56.8088C33.6868 57.6908 32.5688 58.5277 31.4682 59.3512C30.4979 60.077 29.539 60.7939 29.3209 61.3953C29.077 62.0661 29.9193 62.7191 33.2237 63.3428C34.6972 63.6209 36.0259 63.8624 37.1339 64.0631C39.5836 64.5074 40.9604 64.7572 42.006 65.0819C43.3927 65.5113 44.1404 66.0379 45.8375 67.2347L45.9505 67.3145C47.8607 68.6605 47.476 69.7275 46.242 70.6353C45.4909 71.1876 44.4076 71.6521 43.3952 72.0854C42.597 72.429 41.8439 72.7517 41.4205 73.0502C40.648 73.5955 40.1701 74.1132 40.3417 74.6322C40.537 75.2217 41.4755 75.9009 43.5563 76.7477C45.8414 77.6773 47.5434 78.4507 48.9435 79.3184C50.3674 80.2004 51.4765 81.1731 52.5543 82.4894C54.1046 84.3813 53.2613 85.2767 52.2097 86.3942C51.7323 86.8999 51.2028 87.4627 50.9187 88.2108C50.5151 89.2742 49.5866 89.8677 48.6991 90.4344C47.6282 91.119 46.6282 91.7581 47.2395 93.3669C48.6168 96.9886 26.1246 98.7635 26.0606 98.7685L25.9322 97.9008C25.9922 97.8964 47.0739 96.2315 46.0719 93.5959C45.2633 91.4661 46.5345 90.653 47.8979 89.7819C48.6525 89.3 49.4428 88.7948 49.7511 87.9817C50.0883 87.0947 50.6773 86.4686 51.2088 85.9054C52.0209 85.0422 52.6713 84.3506 51.5107 82.9336C50.5008 81.7011 49.471 80.7954 48.1562 79.9808C46.8191 79.1528 45.1765 78.4067 42.9629 77.5063C40.5479 76.5237 39.4319 75.6556 39.1602 74.8336C38.8652 73.9421 39.5063 73.1796 40.5707 72.4285C41.1037 72.0532 41.9168 71.7041 42.7785 71.3353C43.7209 70.9327 44.7304 70.5009 45.3789 70.0235C46.128 69.4727 46.3391 68.8083 45.1037 67.9377L44.9907 67.8578C43.4076 66.7423 42.712 66.252 41.5271 65.8852C40.5588 65.5847 39.2207 65.3418 36.8395 64.91C35.8013 64.7215 34.5579 64.496 32.9193 64.1866C28.7156 63.3929 27.7235 62.3457 28.1494 61.1762C28.4488 60.3517 29.5153 59.5545 30.5951 58.7464C31.5906 58.0017 32.602 57.2447 32.8549 56.5798C33.6397 54.5149 38.1875 54.2085 42.0725 53.9477C43.5737 53.8471 44.9713 53.7528 45.9381 53.5704C46.5305 53.4588 46.9609 53.2873 47.2494 53.0746C47.5008 52.8897 47.6505 52.6676 47.712 52.4251C47.7789 52.1609 47.7477 51.8634 47.6341 51.551C47.3664 50.8138 46.6485 50.0102 45.6654 49.3171C44.7179 48.6493 41.3769 48.0553 37.6719 47.3969C32.3011 46.443 26.191 45.3567 24.6249 43.445C22.7215 41.1212 22.9541 39.5189 23.2183 37.6934C23.311 37.0573 23.4077 36.391 23.4077 35.6438C23.4077 33.8278 27.6164 32.9835 32.2331 32.0589C36.0155 31.3013 40.0953 30.4833 41.9862 29.1506C43.8583 27.8313 45.6674 27.2586 47.1468 26.7901C48.9296 26.2259 50.1626 25.8352 50.1626 24.2453C50.1626 21.2428 45.7397 18.8874 45.7274 18.8809L46.4527 18.1838Z" fill="black" fill-opacity="0.5"/>
<path fill-rule="evenodd" clip-rule="evenodd" d="M61.6938 18.5326C61.6938 19.6427 61.727 21.6024 62.1192 23.4735C62.4994 25.2876 63.2144 27.0294 64.5564 27.8038C65.8703 28.5618 70.3581 29.2831 75.1171 30.0461C80.5747 30.9212 86.3858 31.8538 88.4472 33.0442C90.4388 34.1949 91.4294 35.2925 91.6807 36.3704C91.945 37.5037 91.4189 38.5563 90.3877 39.5875C89.8785 40.0947 89.2658 40.5796 88.6634 41.056C87.1994 42.2142 85.7958 43.3252 86.4482 44.4556C86.7278 44.94 86.4953 45.3579 85.8607 45.7248C84.4874 46.5175 80.5856 47.3118 76.4637 48.1497C70.9634 49.2682 65.0547 50.4704 64.7612 51.5666C64.4543 52.7134 64.9838 53.7981 65.8127 54.7277C66.6952 55.7173 67.9099 56.5328 68.8717 57.0876C69.4116 57.399 70.4186 57.7773 71.5663 58.2066C74.5717 59.3325 78.4939 60.8026 78.4939 62.8596C78.4939 65.3197 78.0744 65.5586 74.721 67.4684L73.4969 68.169C72.7463 68.6023 71.9064 69.0554 71.0359 69.5244C68.5847 70.8462 65.8707 72.3097 64.5058 73.6746C63.719 74.4614 63.4241 75.1972 64.0319 75.805C65.2049 76.978 68.5103 77.8972 71.7606 78.801C75.0199 79.7073 78.2286 80.5997 79.4448 81.8159C80.357 82.7281 81.7566 83.2665 83.2019 83.8218C85.3188 84.6353 87.533 85.4866 88.7596 87.61C89.1463 88.2784 89.3159 88.8823 89.3159 89.4222C89.3159 89.974 89.1408 90.4553 88.8414 90.8698C88.5563 91.2645 88.1592 91.5927 87.6956 91.8604C86.4329 92.5907 84.6327 92.8896 83.2966 92.8896C81.7229 92.8896 77.6124 93.3309 74.6402 94.196C72.8846 94.7072 71.5579 95.3254 71.5579 95.9967C71.5579 97.1321 74.5534 97.8951 77.0586 98.3348H88.3357C93.7893 98.3348 98.2513 93.8728 98.2513 88.4192V11.7478C98.2513 6.29415 93.7893 1.8321 88.3357 1.8321H11.6643C6.2107 1.8321 1.74865 6.29415 1.74865 11.7478V88.4192C1.74865 93.8728 6.2107 98.3348 11.6643 98.3348H73.6654C72.0031 97.7721 70.6833 97.0071 70.6833 95.9967C70.6833 94.8401 72.2812 93.975 74.3972 93.3592C77.4547 92.4693 81.6798 92.0151 83.2966 92.0151C84.5157 92.0151 86.1433 91.7508 87.2589 91.1063C87.6223 90.8976 87.9262 90.6497 88.1344 90.3612C88.3278 90.0934 88.4413 89.7811 88.4413 89.4222C88.4413 89.028 88.3084 88.5714 88.0055 88.0469C86.9341 86.1892 84.8667 85.3939 82.8905 84.6349C81.3521 84.0439 79.8623 83.4707 78.8261 82.4345C77.7686 81.377 74.6729 80.5159 71.5286 79.6419C68.1652 78.7068 64.7454 77.7559 63.4132 76.4237C62.3517 75.3623 62.7265 74.2164 63.8871 73.0558C65.3368 71.6061 68.1137 70.1085 70.6223 68.756C71.4949 68.2859 72.3363 67.8318 73.0596 67.4143L74.2906 66.7098C77.2495 65.0251 77.6193 64.8135 77.6193 62.8596C77.6193 61.4045 74.0204 60.0559 71.2619 59.0227C70.079 58.58 69.0403 58.1903 68.4374 57.8422C67.4117 57.2503 66.1137 56.3777 65.1603 55.3088C64.1534 54.1799 63.5188 52.8314 63.9174 51.3416C64.3502 49.7248 70.5331 48.4664 76.2892 47.2959C80.3387 46.4724 84.1726 45.6926 85.4234 44.9703C85.5751 44.8825 85.716 44.9291 85.6936 44.8899C84.6664 43.11 86.358 41.7695 88.124 40.3728C88.7006 39.9167 89.2881 39.4521 89.769 38.9707C90.5865 38.1512 91.0139 37.3575 90.8305 36.5687C90.6346 35.7239 89.7739 34.8161 88.0114 33.7988C86.0873 32.6887 80.3595 31.7695 74.9803 30.9069C70.1404 30.1305 65.5763 29.3977 64.1221 28.5583C62.5178 27.6322 61.6893 25.6728 61.2654 23.651C60.8539 21.6882 60.8192 19.6729 60.8192 18.5326H61.6938ZM5.36288 90.3616L5.85276 90.2947C5.90928 90.5729 6.00396 90.7737 6.13832 90.8962C6.27268 91.0186 6.43778 91.0796 6.63362 91.0796C6.86564 91.0796 7.06146 90.9997 7.21912 90.8401C7.37678 90.6805 7.45558 90.4832 7.45558 90.2477C7.45558 90.0231 7.38224 89.8371 7.235 89.6909C7.08824 89.5451 6.90179 89.4717 6.67472 89.4717C6.58201 89.4717 6.46652 89.4901 6.32869 89.5263L6.38321 89.0979C6.41593 89.1013 6.44269 89.1034 6.46203 89.1034C6.67175 89.1034 6.85917 89.0488 7.02724 88.9402C7.19432 88.8317 7.2776 88.6646 7.2776 88.439C7.2776 88.26 7.21615 88.1118 7.09469 87.9938C6.97322 87.8758 6.81653 87.8173 6.62466 87.8173C6.43329 87.8173 6.27463 87.8778 6.14771 87.9982C6.0203 88.1192 5.93901 88.3002 5.90282 88.5412L5.41299 88.4519C5.47298 88.1237 5.60831 87.8684 5.821 87.6874C6.0327 87.507 6.29695 87.4167 6.61227 87.4167C6.82942 87.4167 7.02973 87.4633 7.21268 87.557C7.39661 87.6497 7.5364 87.7766 7.63308 87.9372C7.73025 88.0984 7.77886 88.2695 7.77886 88.4505C7.77886 88.622 7.73225 88.7776 7.64053 88.9189C7.54782 89.0597 7.41049 89.1722 7.22953 89.2555C7.46502 89.3096 7.64797 89.4226 7.77886 89.5941C7.90875 89.7647 7.97368 89.9804 7.97368 90.2372C7.97368 90.5853 7.84628 90.8812 7.59294 91.1231C7.3391 91.3651 7.01783 91.4861 6.63013 91.4861C6.28011 91.4861 5.99006 91.381 5.75903 91.1722C5.527 90.9635 5.39511 90.6938 5.36288 90.3616ZM7.92909 31.3402V31.8077H5.2905C5.28653 31.6897 5.30588 31.5766 5.34802 31.4671C5.41545 31.2881 5.52405 31.1111 5.67328 30.9376C5.82301 30.764 6.03619 30.5638 6.31383 30.3362C6.74516 29.9808 7.03818 29.6996 7.19137 29.4919C7.34556 29.2841 7.42237 29.0873 7.42237 28.9019C7.42237 28.708 7.35296 28.545 7.21364 28.4111C7.07433 28.2782 6.89241 28.2117 6.66882 28.2117C6.43233 28.2117 6.24293 28.2821 6.10113 28.4229C5.95934 28.5632 5.88796 28.7581 5.88597 29.0075L5.38472 28.9574C5.41942 28.5826 5.5493 28.297 5.77389 28.1002C5.99897 27.9034 6.30042 27.8052 6.68019 27.8052C7.06244 27.8052 7.36588 27.9108 7.58848 28.1235C7.81208 28.3357 7.92314 28.5995 7.92314 28.9128C7.92314 29.0724 7.89089 29.2296 7.82495 29.3833C7.76 29.5385 7.65144 29.7006 7.50022 29.8716C7.34802 30.0412 7.09666 30.2757 6.74614 30.5727C6.45214 30.8196 6.26273 30.9866 6.17894 31.0749C6.09565 31.1626 6.02674 31.251 5.9722 31.3402H7.92909ZM8.45906 29.8409C8.45906 29.3704 8.50714 28.9901 8.60382 28.7026C8.701 28.414 8.84481 28.1919 9.03618 28.0372C9.22607 27.8821 9.4665 27.8052 9.75603 27.8052C9.96922 27.8052 10.1566 27.8478 10.3193 27.9341C10.4804 28.0204 10.6143 28.1448 10.7179 28.3069C10.822 28.4685 10.9038 28.6664 10.9628 28.899C11.0232 29.132 11.053 29.4463 11.053 29.8409C11.053 30.3085 11.0049 30.6867 10.9092 30.9748C10.8135 31.2633 10.6698 31.4849 10.4784 31.6406C10.2885 31.7968 10.0471 31.8746 9.75603 31.8746C9.37279 31.8746 9.07138 31.7383 8.85225 31.4646C8.58948 31.1305 8.45906 30.5896 8.45906 29.8409ZM8.95983 29.8429C8.95983 30.4988 9.03614 30.9346 9.18884 31.1497C9.34203 31.3659 9.53144 31.4735 9.75603 31.4735C9.98062 31.4735 10.1695 31.3649 10.3227 31.1488C10.4759 30.9316 10.5518 30.4968 10.5518 29.8429C10.5518 29.1865 10.4759 28.7507 10.3227 28.5355C10.1705 28.3194 9.97963 28.2117 9.75008 28.2117C9.52599 28.2117 9.34601 28.3069 9.21116 28.4973C9.04358 28.7397 8.95983 29.1884 8.95983 29.8429ZM11.5552 29.8409C11.5552 29.3704 11.6033 28.9901 11.7 28.7026C11.7972 28.414 11.9409 28.1919 12.1323 28.0372C12.3222 27.8821 12.5627 27.8052 12.8522 27.8052C13.0654 27.8052 13.2528 27.8478 13.4154 27.9341C13.5765 28.0204 13.7104 28.1448 13.814 28.3069C13.9181 28.4685 13.9999 28.6664 14.0589 28.899C14.1194 29.132 14.1492 29.4463 14.1492 29.8409C14.1492 30.3085 14.1011 30.6867 14.0054 30.9748C13.9097 31.2633 13.766 31.4849 13.5746 31.6406C13.3847 31.7968 13.1432 31.8746 12.8522 31.8746C12.469 31.8746 12.1675 31.7383 11.9484 31.4646C11.6856 31.1305 11.5552 30.5896 11.5552 29.8409ZM12.056 29.8429C12.056 30.4988 12.1323 30.9346 12.285 31.1497C12.4382 31.3659 12.6276 31.4735 12.8522 31.4735C13.0768 31.4735 13.2657 31.3649 13.4189 31.1488C13.5721 30.9316 13.6479 30.4968 13.6479 29.8429C13.6479 29.1865 13.5721 28.7507 13.4189 28.5355C13.2667 28.3194 13.0758 28.2117 12.8463 28.2117C12.6222 28.2117 12.4422 28.3069 12.3073 28.4973C12.1398 28.7397 12.056 29.1884 12.056 29.8429ZM14.6514 29.8409C14.6514 29.3704 14.6995 28.9901 14.7962 28.7026C14.8933 28.414 15.0371 28.1919 15.2285 28.0372C15.4184 27.8821 15.6588 27.8052 15.9484 27.8052C16.1616 27.8052 16.3489 27.8478 16.5116 27.9341C16.6727 28.0204 16.8066 28.1448 16.9102 28.3069C17.0143 28.4685 17.0961 28.6664 17.1551 28.899C17.2156 29.132 17.2453 29.4463 17.2453 29.8409C17.2453 30.3085 17.1973 30.6867 17.1016 30.9748C17.0059 31.2633 16.8621 31.4849 16.6707 31.6406C16.4808 31.7968 16.2394 31.8746 15.9484 31.8746C15.5651 31.8746 15.2637 31.7383 15.0445 31.4646C14.7818 31.1305 14.6514 30.5896 14.6514 29.8409ZM15.1521 29.8429C15.1521 30.4988 15.2285 30.9346 15.3812 31.1497C15.5344 31.3659 15.7238 31.4735 15.9484 31.4735C16.173 31.4735 16.3619 31.3649 16.5151 31.1488C16.6682 30.9316 16.7441 30.4968 16.7441 29.8429C16.7441 29.1865 16.6682 28.7507 16.5151 28.5355C16.3628 28.3194 16.172 28.2117 15.9424 28.2117C15.7183 28.2117 15.5384 28.3069 15.4035 28.4973C15.2359 28.7397 15.1521 29.1884 15.1521 29.8429ZM7.92909 51.2107V51.6782H5.2905C5.28653 51.5602 5.30588 51.4472 5.34802 51.3376C5.41545 51.1586 5.52405 50.9816 5.67328 50.8081C5.82301 50.6346 6.03619 50.4343 6.31383 50.2067C6.74516 49.8512 7.03818 49.5701 7.19137 49.3624C7.34556 49.1547 7.42237 48.9578 7.42237 48.7724C7.42237 48.5786 7.35296 48.4154 7.21364 48.2816C7.07433 48.1487 6.89241 48.0823 6.66882 48.0823C6.43233 48.0823 6.24293 48.1527 6.10113 48.2935C5.95934 48.4338 5.88796 48.6286 5.88597 48.878L5.38472 48.8279C5.41942 48.4531 5.5493 48.1676 5.77389 47.9707C5.99897 47.7739 6.30042 47.6757 6.68019 47.6757C7.06244 47.6757 7.36588 47.7813 7.58848 47.994C7.81208 48.2062 7.92314 48.4699 7.92314 48.7832C7.92314 48.9429 7.89089 49.1001 7.82495 49.2538C7.76 49.4089 7.65144 49.5711 7.50022 49.7422C7.34802 49.9117 7.09666 50.1462 6.74614 50.4432C6.45214 50.6901 6.26273 50.8572 6.17894 50.9454C6.09565 51.0332 6.02674 51.1214 5.9722 51.2107H7.92909ZM8.45906 50.6316L8.97121 50.5929C9.00889 50.8422 9.09716 51.0297 9.23449 51.1557C9.37183 51.2811 9.53988 51.344 9.7372 51.344C9.97567 51.344 10.1755 51.2553 10.3376 51.0778C10.4992 50.8998 10.5795 50.6643 10.5795 50.3708C10.5795 50.0917 10.5027 49.872 10.348 49.7104C10.1928 49.5488 9.98807 49.468 9.73275 49.468C9.5741 49.468 9.43228 49.5041 9.30586 49.5765C9.18043 49.6489 9.08228 49.7427 9.00989 49.8577L8.5478 49.7912L8.93204 47.7427H10.9082V48.2102H9.32271L9.11002 49.2855C9.34849 49.1175 9.59889 49.0341 9.86066 49.0341C10.2077 49.0341 10.5007 49.1547 10.7392 49.3961C10.9776 49.6371 11.0976 49.9469 11.0976 50.3257C11.0976 50.6866 10.9925 50.9979 10.7828 51.2607C10.528 51.5835 10.1789 51.7451 9.7372 51.7451C9.37528 51.7451 9.08028 51.6429 8.85123 51.4397C8.62218 51.2364 8.49128 50.9677 8.45906 50.6316ZM11.5552 49.7114C11.5552 49.2409 11.6033 48.8607 11.7 48.5731C11.7972 48.2846 11.9409 48.0625 12.1323 47.9078C12.3222 47.7526 12.5627 47.6757 12.8522 47.6757C13.0654 47.6757 13.2528 47.7184 13.4154 47.8047C13.5765 47.8909 13.7104 48.0153 13.814 48.1775C13.9181 48.3391 13.9999 48.5369 14.0589 48.7694C14.1194 49.0024 14.1492 49.3167 14.1492 49.7114C14.1492 50.1789 14.1011 50.5573 14.0054 50.8453C13.9097 51.1338 13.766 51.3554 13.5746 51.5111C13.3847 51.6673 13.1432 51.7451 12.8522 51.7451C12.469 51.7451 12.1675 51.6088 11.9484 51.3351C11.6856 51.0009 11.5552 50.46 11.5552 49.7114ZM12.056 49.7134C12.056 50.3693 12.1323 50.8051 12.285 51.0203C12.4382 51.2364 12.6276 51.344 12.8522 51.344C13.0768 51.344 13.2657 51.2355 13.4189 51.0193C13.5721 50.8022 13.6479 50.3674 13.6479 49.7134C13.6479 49.057 13.5721 48.6212 13.4189 48.406C13.2667 48.1898 13.0758 48.0823 12.8463 48.0823C12.6222 48.0823 12.4422 48.1775 12.3073 48.3678C12.1398 48.6103 12.056 49.059 12.056 49.7134ZM14.6514 49.7114C14.6514 49.2409 14.6995 48.8607 14.7962 48.5731C14.8933 48.2846 15.0371 48.0625 15.2285 47.9078C15.4184 47.7526 15.6588 47.6757 15.9484 47.6757C16.1616 47.6757 16.3489 47.7184 16.5116 47.8047C16.6727 47.8909 16.8066 48.0153 16.9102 48.1775C17.0143 48.3391 17.0961 48.5369 17.1551 48.7694C17.2156 49.0024 17.2453 49.3167 17.2453 49.7114C17.2453 50.1789 17.1973 50.5573 17.1016 50.8453C17.0059 51.1338 16.8621 51.3554 16.6707 51.5111C16.4808 51.6673 16.2394 51.7451 15.9484 51.7451C15.5651 51.7451 15.2637 51.6088 15.0445 51.3351C14.7818 51.0009 14.6514 50.46 14.6514 49.7114ZM15.1521 49.7134C15.1521 50.3693 15.2285 50.8051 15.3812 51.0203C15.5344 51.2364 15.7238 51.344 15.9484 51.344C16.173 51.344 16.3619 51.2355 16.5151 51.0193C16.6682 50.8022 16.7441 50.3674 16.7441 49.7134C16.7441 49.057 16.6682 48.6212 16.5151 48.406C16.3628 48.1898 16.172 48.0823 15.9424 48.0823C15.7183 48.0823 15.5384 48.1775 15.4035 48.3678C15.2359 48.6103 15.1521 49.059 15.1521 49.7134ZM5.36288 70.4912L5.85276 70.4242C5.90928 70.7023 6.00396 70.9032 6.13832 71.0256C6.27268 71.1481 6.43778 71.209 6.63362 71.209C6.86564 71.209 7.06146 71.1292 7.21912 70.9695C7.37678 70.8099 7.45558 70.6126 7.45558 70.3771C7.45558 70.1525 7.38224 69.9666 7.235 69.8203C7.08824 69.6746 6.90179 69.6012 6.67472 69.6012C6.58201 69.6012 6.46652 69.6195 6.32869 69.6557L6.38321 69.2274C6.41593 69.2309 6.44269 69.2329 6.46203 69.2329C6.67175 69.2329 6.85917 69.1784 7.02724 69.0698C7.19432 68.9612 7.2776 68.7941 7.2776 68.5685C7.2776 68.3895 7.21615 68.2413 7.09469 68.1233C6.97322 68.0053 6.81653 67.9468 6.62466 67.9468C6.43329 67.9468 6.27463 68.0073 6.14771 68.1278C6.0203 68.2488 5.93901 68.4297 5.90282 68.6706L5.41299 68.5814C5.47298 68.2532 5.60831 67.9978 5.821 67.8169C6.0327 67.6364 6.29695 67.5462 6.61227 67.5462C6.82942 67.5462 7.02973 67.5928 7.21268 67.6865C7.39661 67.7792 7.5364 67.9062 7.63308 68.0668C7.73025 68.2279 7.77886 68.3989 7.77886 68.5799C7.77886 68.7514 7.73225 68.9071 7.64053 69.0484C7.54782 69.1892 7.41049 69.3018 7.22953 69.3851C7.46502 69.4391 7.64797 69.5522 7.77886 69.7237C7.90875 69.8942 7.97368 70.1099 7.97368 70.3668C7.97368 70.7148 7.84628 71.0107 7.59294 71.2527C7.3391 71.4946 7.01783 71.6156 6.63013 71.6156C6.28011 71.6156 5.99006 71.5105 5.75903 71.3018C5.527 71.0931 5.39511 70.8234 5.36288 70.4912ZM8.45906 69.5819C8.45906 69.1114 8.50714 68.7311 8.60382 68.4436C8.701 68.155 8.84481 67.9329 9.03618 67.7782C9.22607 67.6231 9.4665 67.5462 9.75603 67.5462C9.96922 67.5462 10.1566 67.5888 10.3193 67.6751C10.4804 67.7614 10.6143 67.8858 10.7179 68.0479C10.822 68.2095 10.9038 68.4074 10.9628 68.6399C11.0232 68.873 11.053 69.1873 11.053 69.5819C11.053 70.0495 11.0049 70.4277 10.9092 70.7158C10.8135 71.0043 10.6698 71.2259 10.4784 71.3816C10.2885 71.5377 10.0471 71.6156 9.75603 71.6156C9.37279 71.6156 9.07138 71.4793 8.85225 71.2056C8.58948 70.8715 8.45906 70.3306 8.45906 69.5819ZM8.95983 69.5839C8.95983 70.2398 9.03614 70.6756 9.18884 70.8907C9.34203 71.1069 9.53144 71.2145 9.75603 71.2145C9.98062 71.2145 10.1695 71.1059 10.3227 70.8898C10.4759 70.6726 10.5518 70.2378 10.5518 69.5839C10.5518 68.9275 10.4759 68.4917 10.3227 68.2765C10.1705 68.0604 9.97963 67.9527 9.75008 67.9527C9.52599 67.9527 9.34601 68.0479 9.21116 68.2383C9.04358 68.4807 8.95983 68.9294 8.95983 69.5839ZM11.5552 69.5819C11.5552 69.1114 11.6033 68.7311 11.7 68.4436C11.7972 68.155 11.9409 67.9329 12.1323 67.7782C12.3222 67.6231 12.5627 67.5462 12.8522 67.5462C13.0654 67.5462 13.2528 67.5888 13.4154 67.6751C13.5765 67.7614 13.7104 67.8858 13.814 68.0479C13.9181 68.2095 13.9999 68.4074 14.0589 68.6399C14.1194 68.873 14.1492 69.1873 14.1492 69.5819C14.1492 70.0495 14.1011 70.4277 14.0054 70.7158C13.9097 71.0043 13.766 71.2259 13.5746 71.3816C13.3847 71.5377 13.1432 71.6156 12.8522 71.6156C12.469 71.6156 12.1675 71.4793 11.9484 71.2056C11.6856 70.8715 11.5552 70.3306 11.5552 69.5819ZM12.056 69.5839C12.056 70.2398 12.1323 70.6756 12.285 70.8907C12.4382 71.1069 12.6276 71.2145 12.8522 71.2145C13.0768 71.2145 13.2657 71.1059 13.4189 70.8898C13.5721 70.6726 13.6479 70.2378 13.6479 69.5839C13.6479 68.9275 13.5721 68.4917 13.4189 68.2765C13.2667 68.0604 13.0758 67.9527 12.8463 67.9527C12.6222 67.9527 12.4422 68.0479 12.3073 68.2383C12.1398 68.4807 12.056 68.9294 12.056 69.5839ZM14.6514 69.5819C14.6514 69.1114 14.6995 68.7311 14.7962 68.4436C14.8933 68.155 15.0371 67.9329 15.2285 67.7782C15.4184 67.6231 15.6588 67.5462 15.9484 67.5462C16.1616 67.5462 16.3489 67.5888 16.5116 67.6751C16.6727 67.7614 16.8066 67.8858 16.9102 68.0479C17.0143 68.2095 17.0961 68.4074 17.1551 68.6399C17.2156 68.873 17.2453 69.1873 17.2453 69.5819C17.2453 70.0495 17.1973 70.4277 17.1016 70.7158C17.0059 71.0043 16.8621 71.2259 16.6707 71.3816C16.4808 71.5377 16.2394 71.6156 15.9484 71.6156C15.5651 71.6156 15.2637 71.4793 15.0445 71.2056C14.7818 70.8715 14.6514 70.3306 14.6514 69.5819ZM15.1521 69.5839C15.1521 70.2398 15.2285 70.6756 15.3812 70.8907C15.5344 71.1069 15.7238 71.2145 15.9484 71.2145C16.173 71.2145 16.3619 71.1059 16.5151 70.8898C16.6682 70.6726 16.7441 70.2378 16.7441 69.5839C16.7441 68.9275 16.6682 68.4917 16.5151 68.2765C16.3628 68.0604 16.172 67.9527 15.9424 67.9527C15.7183 67.9527 15.5384 68.0479 15.4035 68.2383C15.2359 68.4807 15.1521 68.9294 15.1521 69.5839ZM8.45906 90.3726L8.97121 90.3338C9.00889 90.5832 9.09716 90.7707 9.23449 90.8966C9.37183 91.0221 9.53988 91.085 9.7372 91.085C9.97567 91.085 10.1755 90.9963 10.3376 90.8188C10.4992 90.6408 10.5795 90.4053 10.5795 90.1118C10.5795 89.8327 10.5027 89.613 10.348 89.4514C10.1928 89.2898 9.98807 89.2089 9.73275 89.2089C9.5741 89.2089 9.43228 89.2451 9.30586 89.3175C9.18043 89.3899 9.08228 89.4836 9.00989 89.5986L8.5478 89.5322L8.93204 87.4837H10.9082V87.9512H9.32271L9.11002 89.0265C9.34849 88.8584 9.59889 88.7751 9.86066 88.7751C10.2077 88.7751 10.5007 88.8956 10.7392 89.1371C10.9776 89.378 11.0976 89.6879 11.0976 90.0667C11.0976 90.4276 10.9925 90.7389 10.7828 91.0017C10.528 91.3245 10.1789 91.4861 9.7372 91.4861C9.37528 91.4861 9.08028 91.3839 8.85123 91.1806C8.62218 90.9774 8.49128 90.7087 8.45906 90.3726ZM11.5552 89.4524C11.5552 88.9819 11.6033 88.6017 11.7 88.3141C11.7972 88.0256 11.9409 87.8035 12.1323 87.6488C12.3222 87.4936 12.5627 87.4167 12.8522 87.4167C13.0654 87.4167 13.2528 87.4594 13.4154 87.5456C13.5765 87.6319 13.7104 87.7563 13.814 87.9185C13.9181 88.0801 13.9999 88.2779 14.0589 88.5104C14.1194 88.7434 14.1492 89.0577 14.1492 89.4524C14.1492 89.9199 14.1011 90.2982 14.0054 90.5863C13.9097 90.8748 13.766 91.0964 13.5746 91.2521C13.3847 91.4083 13.1432 91.4861 12.8522 91.4861C12.469 91.4861 12.1675 91.3497 11.9484 91.0761C11.6856 90.7419 11.5552 90.201 11.5552 89.4524ZM12.056 89.4544C12.056 90.1103 12.1323 90.5461 12.285 90.7613C12.4382 90.9774 12.6276 91.085 12.8522 91.085C13.0768 91.085 13.2657 90.9765 13.4189 90.7603C13.5721 90.5431 13.6479 90.1084 13.6479 89.4544C13.6479 88.798 13.5721 88.3622 13.4189 88.147C13.2667 87.9308 13.0758 87.8233 12.8463 87.8233C12.6222 87.8233 12.4422 87.9184 12.3073 88.1088C12.1398 88.3513 12.056 88.8 12.056 89.4544ZM14.6514 89.4524C14.6514 88.9819 14.6995 88.6017 14.7962 88.3141C14.8933 88.0256 15.0371 87.8035 15.2285 87.6488C15.4184 87.4936 15.6588 87.4167 15.9484 87.4167C16.1616 87.4167 16.3489 87.4594 16.5116 87.5456C16.6727 87.6319 16.8066 87.7563 16.9102 87.9185C17.0143 88.0801 17.0961 88.2779 17.1551 88.5104C17.2156 88.7434 17.2453 89.0577 17.2453 89.4524C17.2453 89.9199 17.1973 90.2982 17.1016 90.5863C17.0059 90.8748 16.8621 91.0964 16.6707 91.2521C16.4808 91.4083 16.2394 91.4861 15.9484 91.4861C15.5651 91.4861 15.2637 91.3497 15.0445 91.0761C14.7818 90.7419 14.6514 90.201 14.6514 89.4524ZM15.1521 89.4544C15.1521 90.1103 15.2285 90.5461 15.3812 90.7613C15.5344 90.9774 15.7238 91.085 15.9484 91.085C16.173 91.085 16.3619 90.9765 16.5151 90.7603C16.6682 90.5431 16.7441 90.1084 16.7441 89.4544C16.7441 88.798 16.6682 88.3622 16.5151 88.147C16.3628 87.9308 16.172 87.8233 15.9424 87.8233C15.7183 87.8233 15.5384 87.9184 15.4035 88.1088C15.2359 88.3513 15.1521 88.8 15.1521 89.4544ZM11.6643 0.0834961H88.3357C91.5454 0.0834961 94.4626 1.39584 96.5751 3.50837C98.6877 5.6209 100 8.53806 100 11.7478V88.4192C100 91.6289 98.6877 94.546 96.5751 96.6586C94.4626 98.7711 91.5454 100.083 88.3357 100.083H11.6643C8.45462 100.083 5.53741 98.7711 3.42487 96.6586C1.31234 94.546 0 91.6289 0 88.4192V11.7478C0 8.53806 1.31234 5.6209 3.42487 3.50837C5.53741 1.39584 8.45462 0.0834961 11.6643 0.0834961Z" fill="black"/>
<defs>
<linearGradient id="paint0_linear_30_144" x1="89.4789" y1="10.182" x2="61.1201" y2="10.182" gradientUnits="userSpaceOnUse">
<stop stop-color="#00C7D4"/>
<stop offset="1" stop-color="#02E7BD"/>
</linearGradient>
<linearGradient id="paint1_linear_30_144" x1="52.2786" y1="58.5721" x2="25.9006" y2="58.5721" gradientUnits="userSpaceOnUse">
<stop stop-color="#00C7D4"/>
<stop offset="1" stop-color="#02E7BD"/>
</linearGradient>
</defs>
</svg>
