<svg width="100" height="101" viewBox="0 0 100 101" fill="none" xmlns="http://www.w3.org/2000/svg">
<path fill-rule="evenodd" clip-rule="evenodd" d="M11.6642 1.83203H23.326C24.322 6.89844 26.0434 13.6907 28.5426 16.8875C32.8004 22.3342 36.1901 26.8066 39.1474 33.3033C42.1048 39.8001 48.8945 46.506 51.9595 48.0201C55.0244 49.5343 60.239 55.0261 58.6327 65.854C57.0263 76.6819 56.3174 75.2971 56.7329 81.8836C57.0269 86.5459 60.5712 93.4061 62.4284 98.3347H11.6642C6.21058 98.3347 1.74854 93.8726 1.74854 88.419V11.7477C1.74854 6.29408 6.21058 1.83203 11.6642 1.83203Z" fill="black" fill-opacity="0.2"/>
<path fill-rule="evenodd" clip-rule="evenodd" d="M11.6642 1.83203H20.8669V36.6146L46.4563 57.6755V98.3347H11.6642C6.21058 98.3347 1.74854 93.8726 1.74854 88.419V11.7477C1.74854 6.29408 6.21058 1.83203 11.6642 1.83203Z" fill="black" fill-opacity="0.2"/>
<path fill-rule="evenodd" clip-rule="evenodd" d="M57.416 1.83203H88.3356C93.7892 1.83203 98.2512 6.29408 98.2512 11.7477V88.419C98.2512 93.8726 93.7892 98.3347 88.3356 98.3347H82.4754C79.6727 91.4413 75.3564 81.0374 78.2216 75.9888C81.9385 69.44 84.4159 51.5645 81.1903 48.9869C77.9648 46.4093 75.0357 36.8745 76.1864 33.398C77.3371 29.9216 76.8056 21.4769 73.5231 17.6504C68.1463 11.3827 60.706 11.6133 57.416 1.83203Z" fill="black" fill-opacity="0.5"/>
<path fill-rule="evenodd" clip-rule="evenodd" d="M76.3286 1.83203H88.3355C93.7891 1.83203 98.2511 6.29408 98.2511 11.7477V88.419C98.2511 92.0596 96.2625 95.2574 93.3186 96.9817C91.1589 92.0646 92.4406 84.249 91.2765 79.4245C89.8521 73.5217 91.6835 58.0518 92.9274 49.4698C94.1713 40.8878 89.2408 34.0336 88.5962 19.6122C87.9517 5.19091 78.8601 6.96185 76.8338 2.96633C76.6474 2.59846 76.4798 2.21874 76.3286 1.83203Z" fill="black"/>
<path d="M69.2104 97.0947H67.4613V95.3461H69.2104V97.0947ZM69.2104 93.5975H67.4613V91.8488H69.2104V93.5975ZM69.2104 90.1002H67.4613V88.3516H69.2104V90.1002ZM69.2104 86.603H67.4613V84.8543H69.2104V86.603ZM69.2104 83.1057H67.4613V81.3571H69.2104V83.1057ZM69.2104 79.6085H67.4613V77.8598H69.2104V79.6085ZM69.2104 76.1112H67.4613V74.3626H69.2104V76.1112ZM69.2104 72.614H67.4613V70.8653H69.2104V72.614ZM69.2104 69.1167H67.4613V67.3681H69.2104V69.1167ZM69.2104 65.6195H67.4613V63.8709H69.2104V65.6195ZM69.2104 62.1222H67.4613V60.3736H69.2104V62.1222ZM69.2104 58.625H67.4613V56.8764H69.2104V58.625ZM69.2104 55.1277H67.4613V53.3791H69.2104V55.1277ZM69.2104 51.6305H67.4613V49.8823H69.2104V51.6305ZM69.2104 48.1336H67.4613V46.385H69.2104V48.1336ZM69.2104 44.6364H67.4613V42.8878H69.2104V44.6364ZM69.2104 41.1392H67.4613V39.3905H69.2104V41.1392ZM69.2104 37.6419H68.8787L68.3358 38.1848H66.9184V36.4357H69.2104V37.6419ZM65.1698 36.4357V38.1848H63.4211V36.4357H65.1698ZM61.6725 36.4357V38.1848H59.9239V36.4357H61.6725ZM58.1753 36.4357V38.1848H56.4266V36.4357H58.1753ZM54.6785 36.4357V38.1848H52.9299V36.4357H54.6785ZM51.1812 36.4357V38.1848H49.0623V36.8056H49.9368V36.4357H51.1812ZM50.8114 35.0569H49.0623V33.3083H50.8114V35.0569ZM50.8114 31.5602H49.0623V29.8116H50.8114V31.5602ZM50.8114 28.0629H49.0623V26.3142H50.8114V28.0629ZM50.8114 24.5656H49.0623V22.817H50.8114V24.5656ZM50.8114 21.0684H49.0623V19.3197H50.8114V21.0684ZM50.8114 17.5711H49.0623V15.8225H50.8114V17.5711ZM50.8114 14.0739H49.0623V12.3252H50.8114V14.0739ZM50.8114 10.5766H49.0623V8.82801H50.8114V10.5766ZM50.8114 7.07941H49.0623V5.3307H50.8114V7.07941ZM50.8114 3.5821H49.0623V1.8335H50.8114V3.5821Z" fill="url(#paint0_linear_30_152)"/>
<path fill-rule="evenodd" clip-rule="evenodd" d="M11.6643 0.0834961H88.3357C91.5454 0.0834961 94.4626 1.39584 96.5751 3.50837C98.6877 5.6209 100 8.53816 100 11.7479V88.4192C100 91.6289 98.6877 94.546 96.5751 96.6586C94.4626 98.7711 91.5454 100.083 88.3357 100.083H11.6643C8.45462 100.083 5.53741 98.7711 3.42487 96.6586C1.31234 94.546 0 91.6289 0 88.4192V11.7479C0 8.53816 1.31234 5.6209 3.42487 3.50837C5.53741 1.39584 8.45462 0.0834961 11.6643 0.0834961ZM11.6643 1.8322H88.3357C93.7893 1.8322 98.2513 6.29425 98.2513 11.7479V88.4192C98.2513 93.8728 93.7893 98.3348 88.3357 98.3348H11.6643C6.2107 98.3348 1.74865 93.8728 1.74865 88.4192V11.7479C1.74865 6.29425 6.2107 1.8322 11.6643 1.8322Z" fill="#2B2A29"/>
<defs>
<linearGradient id="paint0_linear_30_152" x1="69.2104" y1="49.4641" x2="49.0623" y2="49.4641" gradientUnits="userSpaceOnUse">
<stop stop-color="#00C7D4"/>
<stop offset="1" stop-color="#02E7BD"/>
</linearGradient>
</defs>
</svg>
