<svg width="125" height="126" viewBox="0 0 125 126" fill="none" xmlns="http://www.w3.org/2000/svg">
<path d="M110.853 2.26904H14.1469C7.54083 2.26904 2.18555 7.62432 2.18555 14.2304V110.936C2.18555 117.542 7.54083 122.897 14.1469 122.897H110.853C117.459 122.897 122.814 117.542 122.814 110.936V14.2304C122.814 7.62432 117.459 2.26904 110.853 2.26904Z" fill="url(#paint0_linear_30_130)"/>
<path fill-rule="evenodd" clip-rule="evenodd" d="M2.63297 99.6576C15.1788 99.5269 39.4387 99.2418 43.6993 98.9567C49.4938 98.5681 76.6807 97.7928 84.7037 97.7928C92.7267 97.7928 99.1334 95.5847 111.892 97.4048C115.944 97.983 119.488 98.7026 122.441 99.4147C122.684 98.5911 122.814 97.729 122.814 96.8409V12.6786C122.814 6.95294 117.432 2.26904 110.853 2.26904H14.1463C7.56789 2.26904 2.18555 6.95294 2.18555 12.6786V96.8409C2.18555 97.8163 2.3417 98.7615 2.63297 99.6576Z" fill="black" fill-opacity="0.2"/>
<path fill-rule="evenodd" clip-rule="evenodd" d="M2.18555 93.2991C15.5562 92.222 42.4921 90.1335 46.819 90.423C52.6135 90.8109 68.6589 92.3621 74.0072 92.7501C79.3554 93.138 93.6179 89.2591 100.304 89.2591C104.607 89.2591 115.556 90.7056 122.814 91.7362V12.6786C122.814 6.95294 117.432 2.26904 110.853 2.26904H14.1463C7.56789 2.26904 2.18555 6.95294 2.18555 12.6786V93.2991Z" fill="black" fill-opacity="0.2"/>
<path fill-rule="evenodd" clip-rule="evenodd" d="M2.18555 87.6454C15.4682 86.489 40.5374 84.4587 48.3361 84.8833C59.12 85.4701 75.2962 86.9364 75.2962 86.9364C75.2962 86.9364 88.4394 84.5901 96.5275 83.7101C102.913 83.0154 115.6 83.7844 122.814 85.0041V12.6786C122.814 6.95294 117.432 2.26904 110.853 2.26904H14.1463C7.56789 2.26904 2.18555 6.95294 2.18555 12.6786V87.6454Z" fill="black" fill-opacity="0.2"/>
<path fill-rule="evenodd" clip-rule="evenodd" d="M13.6004 2.26904H110.307C116.886 2.26904 122.268 6.95294 122.268 12.6786V74.6726C114.387 74.3336 101.25 73.6661 98.0038 72.8586C93.2858 71.6854 78.4575 69.0461 71.0437 66.6992C63.6299 64.3529 44.4202 66.1129 35.3213 66.4066C29.2157 66.6037 12.185 70.3667 1.63965 72.8202V12.6786C1.63965 6.95294 7.02199 2.26904 13.6004 2.26904Z" fill="black" fill-opacity="0.2"/>
<path fill-rule="evenodd" clip-rule="evenodd" d="M2.18555 65.7851C11.0954 63.4809 25.0753 60.1796 35.8672 59.074C53.0542 57.3146 60.8045 57.3146 71.9261 59.3678C83.0478 61.4203 94.8431 66.6992 103.605 66.993C110.136 67.2111 118.816 67.1039 122.814 67.0357V12.6786C122.814 6.95294 117.432 2.26904 110.853 2.26904H14.1463C7.56789 2.26904 2.18555 6.95294 2.18555 12.6786V65.7851Z" fill="black" fill-opacity="0.2"/>
<path fill-rule="evenodd" clip-rule="evenodd" d="M2.18555 43.2846C9.69666 43.7928 19.6656 44.4311 25.0827 44.6244C34.5187 44.9616 44.9661 44.2873 57.7721 45.6352C70.5782 46.9831 77.3184 45.9717 90.1245 46.9831C102.931 47.9945 105.801 49.3424 115.4 49.3424C118.042 49.3424 120.556 49.4955 122.814 49.7174V14.2298C122.814 7.65139 117.432 2.26904 110.853 2.26904H14.1463C7.56789 2.26904 2.18555 7.65139 2.18555 14.2298V43.2846Z" fill="black" fill-opacity="0.2"/>
<path fill-rule="evenodd" clip-rule="evenodd" d="M14.1463 2.26904H110.853C117.432 2.26904 122.814 7.65139 122.814 14.2298V32.4368C117.701 32.0383 110.15 31.4229 105.627 30.4704C99.2239 29.1225 89.1137 29.1219 82.0364 29.7961C74.9591 30.4704 63.838 36.1992 58.7829 36.5363C53.7278 36.8734 32.4971 35.8621 24.0719 35.5249C19.207 35.3304 9.51198 35.6978 2.18555 36.043V14.2298C2.18555 7.65139 7.56789 2.26904 14.1463 2.26904Z" fill="black" fill-opacity="0.2"/>
<path fill-rule="evenodd" clip-rule="evenodd" d="M14.1463 2.26904H110.853C117.432 2.26904 122.814 7.65139 122.814 14.2298V20.8485C113.62 21.7626 97.7372 22.1171 94.5053 21.3709C90.1238 20.3595 81.6992 20.6973 78.6663 22.3823C75.6333 24.0674 54.0649 26.7632 47.999 26.7632C43.413 26.7632 15.5227 27.3408 2.18555 27.6227V14.2298C2.18555 7.65139 7.56789 2.26904 14.1463 2.26904Z" fill="black" fill-opacity="0.2"/>
<path d="M26.5828 2.26904H20.7295V99.3607H26.5828V2.26904Z" fill="black"/>
<path fill-rule="evenodd" clip-rule="evenodd" d="M21.7412 99.3607V2.26904H25.5717C25.5717 34.6331 25.5717 66.9966 25.5717 99.3607C25.5717 102.478 29.1104 107.565 32.1712 107.565H115.62V111.395C85.1506 111.395 61.8755 111.395 31.4059 111.395C26.8459 111.395 21.7412 105.189 21.7412 99.3607Z" fill="white"/>
<path fill-rule="evenodd" clip-rule="evenodd" d="M14.5804 0.0834961H110.42C114.432 0.0834961 118.078 1.72392 120.719 4.36459C123.36 7.00525 125 10.6518 125 14.6639V110.503C125 114.515 123.36 118.162 120.719 120.802C118.078 123.443 114.432 125.083 110.42 125.083H14.5804C10.5683 125.083 6.92176 123.443 4.28109 120.802C1.64043 118.162 0 114.515 0 110.503V14.6639C0 10.6518 1.64043 7.00525 4.28109 4.36459C6.92176 1.72392 10.5683 0.0834961 14.5804 0.0834961ZM14.5804 2.26931H110.42C117.237 2.26931 122.814 7.84687 122.814 14.6639V110.503C122.814 117.32 117.237 122.898 110.42 122.898H14.5804C7.76338 122.898 2.18582 117.32 2.18582 110.503V14.6639C2.18582 7.84687 7.76338 2.26931 14.5804 2.26931Z" fill="#2B2A29"/>
<defs>
<linearGradient id="paint0_linear_30_130" x1="122.814" y1="62.5833" x2="2.18555" y2="62.5833" gradientUnits="userSpaceOnUse">
<stop stop-color="#00C7D4"/>
<stop offset="1" stop-color="#02E7BD"/>
</linearGradient>
</defs>
</svg>
