<svg width="125" height="126" viewBox="0 0 125 126" fill="none" xmlns="http://www.w3.org/2000/svg">
<path fill-rule="evenodd" clip-rule="evenodd" d="M14.1466 0.0834961H110.853C114.747 0.0834961 118.284 1.67431 120.847 4.23689C123.409 6.79947 125 10.3369 125 14.23V110.937C125 114.83 123.409 118.367 120.847 120.93C118.284 123.493 114.747 125.083 110.853 125.083H14.1466C10.2603 125.083 6.72531 123.493 4.16211 120.93H4.15346C1.59088 118.367 0 114.83 0 110.937V14.23C0 10.3369 1.59088 6.79947 4.15346 4.23689H4.16211C6.72531 1.67431 10.2603 0.0834961 14.1466 0.0834961ZM14.1466 2.26925H110.853C117.432 2.26925 122.814 7.65159 122.814 14.23V110.937C122.814 117.515 117.432 122.898 110.853 122.898H14.1466C7.56817 122.898 2.18582 117.515 2.18582 110.937V14.23C2.18582 7.65159 7.56817 2.26925 14.1466 2.26925Z" fill="#2B2A29"/>
<path fill-rule="evenodd" clip-rule="evenodd" d="M75.2027 51.1396H81.3479V55.9735C82.9288 56.1216 84.4732 56.3181 85.9779 56.5623C93.1767 57.7317 99.4756 59.9943 105.465 61.3522C110.807 62.5637 117.743 63.0545 122.814 63.4673V77.0301C114.689 75.5012 104.647 73.9773 98.6606 72.5172C92.1646 70.9332 88.0025 69.4241 82.5477 68.7449C82.1548 68.6966 81.7551 68.6519 81.3479 68.6116V78.3154C83.3577 78.7045 85.3811 79.1762 87.4386 79.7172C90.9766 80.6468 94.6138 81.7822 98.0856 82.9231C98.7474 78.4486 92.1306 76.6297 87.0569 75.4454C86.8524 75.702 86.6485 75.9586 86.4452 76.2145L83.2672 73.7343L88.0974 74.1384L87.5105 74.8759C93.2609 75.9585 100.082 78.4399 99.1211 83.2651C101.931 84.1972 104.613 85.12 107.024 85.9257C107.159 85.1033 107.168 84.3937 107.242 83.7225C106.747 83.7231 106.252 83.7231 105.758 83.7244L107.766 80.6747L109.766 83.7207L108.342 83.7213C108.284 84.3949 108.391 85.1739 108.16 86.3031C109.106 86.6148 110.002 86.9036 110.84 87.1626C115.271 88.5341 120.483 88.9741 122.814 89.393V103.196C117.052 101.752 110.126 100.277 104.036 98.327C101.264 97.4402 98.4283 96.4536 95.5682 95.4812C90.4685 96.4982 84.7639 96.9432 81.3479 96.9432V99.2461C98.7357 99.2461 80.6805 99.3149 98.5689 99.2461L98.6154 98.4113L103.092 99.6935L98.4834 100.763C98.4995 100.473 98.5163 100.182 98.5324 99.8918C77.5143 99.9712 103.201 99.9142 81.3479 99.8386V100.79C84.1491 100.956 86.9019 101.319 89.5791 101.926C89.6851 101.951 89.7905 101.975 89.8958 102C93.269 102.407 96.9973 103.131 101.449 104.371C109.928 106.732 111.234 107.14 112.774 108.021L113.631 107.415L115.732 110.359L111.218 109.123C111.515 108.912 111.814 108.701 112.111 108.49C110.11 107.377 108.303 106.978 100.947 105.001C99.1998 104.532 97.4838 104.122 95.8099 103.771C101.918 105.965 107.353 108.939 111.421 110.743C115.608 112.6 119.985 113.218 122.523 113.555C121.32 118.885 116.533 122.897 110.853 122.897H14.1463C7.5679 122.897 2.18555 117.515 2.18555 110.937V107.226C8.46093 108.33 17.7439 108.476 24.2554 108.466C29.1308 108.458 34.823 107.708 43.1633 106.432C51.5042 105.156 55.5672 103.245 62.3328 102.101C69.0977 100.956 70.942 100.866 75.2027 100.722V99.8386C53.3504 99.9142 60.4804 99.9712 39.4629 99.8918C39.4784 100.182 39.4951 100.473 39.5112 100.763L34.9029 99.6935L39.3792 98.4113L39.4257 99.2461C57.3142 99.3149 57.8149 99.2461 75.2027 99.2461V96.9432C69.5731 96.9432 57.7263 95.7347 52.6135 92.7452C50.1067 93.3909 47.2362 94.0354 43.4589 94.5281C34.2597 95.7285 29.9351 96.259 22.3435 95.8444C16.1951 95.5091 7.43094 95.2544 2.18555 95.0158V83.1623C8.3345 83.6487 18.063 84.3894 24.2554 84.3404C29.6439 84.2983 34.823 83.5831 43.3467 82.0437C45.3236 81.6873 47.062 81.29 48.6473 80.8823L48.7848 80.6747L48.8815 80.8216C53.3312 79.6633 56.5884 78.4245 60.5993 77.7378C62.9134 76.3391 66.1156 75.4268 69.0401 74.8759L68.4538 74.1384L73.2846 73.7343L70.106 76.2145C69.9021 75.9586 69.6982 75.702 69.4943 75.4454C67.3748 75.9406 64.9858 76.546 62.9698 77.4093C69.1119 76.7121 71.1552 76.9767 75.2027 77.3938V68.334C71.3535 68.3415 68.6986 68.4332 62.3018 69.2736C55.9043 70.1133 52.4257 71.2201 42.6966 72.2389C32.9668 73.2571 27.3497 74.403 19.7574 73.9878C13.2985 73.6345 6.58501 72.9268 2.18555 72.167V60.1115C7.72097 61.196 14.9005 62.2117 21.6692 62.4838C29.1487 62.7856 33.5296 61.1117 42.5838 59.7539C51.6381 58.3967 55.4067 57.1139 62.0198 56.3367C68.6342 55.5583 70.9972 55.5664 75.2027 55.6376V51.1396ZM94.2278 95.0264C92.2552 94.3614 90.2739 93.7107 88.2975 93.1108C85.7895 94.2734 83.2908 95.0065 81.3479 95.0065V96.3501C84.428 96.3501 89.5376 95.9064 94.2278 95.0264ZM87.3934 92.8399C86.2617 92.5059 85.132 92.1899 84.0078 91.8992C83.1197 91.6705 82.2347 91.4567 81.3479 91.2621V94.4135C83.0584 94.4135 85.2088 93.8142 87.3934 92.8399ZM62.7666 90.4025C59.4616 90.8364 56.837 91.6228 53.7538 92.4458C58.5902 95.0357 69.9027 96.3501 75.2027 96.3501V95.0065C71.9733 95.0065 67.2063 92.9819 63.4123 90.3201C63.2022 90.3468 62.9872 90.3734 62.7666 90.4025ZM75.2027 94.4135V90.2346C71.7105 89.851 69.5061 89.6236 64.4714 90.1931C67.9648 92.6181 72.2422 94.4135 75.2027 94.4135Z" fill="url(#paint0_linear_30_53)"/>
<path fill-rule="evenodd" clip-rule="evenodd" d="M81.3478 100.79C84.149 100.956 86.9018 101.319 89.579 101.926C89.685 101.951 89.7904 101.975 89.8957 102C93.2689 102.407 96.9972 103.131 101.449 104.371C109.928 106.732 111.234 107.14 112.774 108.021L113.631 107.415L115.732 110.359L111.217 109.123C111.515 108.912 111.814 108.701 112.111 108.49C110.11 107.377 108.303 106.978 100.947 105.001C99.1997 104.532 97.4837 104.122 95.8098 103.771C101.918 105.965 107.353 108.939 111.421 110.743C115.774 112.674 120.334 113.265 122.817 113.594C124.34 113.796 122.817 113.482 122.817 112.926C122.817 109.744 122.817 106.448 122.817 104.291C122.817 103.722 122.817 103.902 122.817 103.515C122.817 104.343 123.982 103.488 122.817 103.196C117.055 101.752 110.127 100.278 104.035 98.327C101.264 97.4402 98.4282 96.4536 95.5681 95.4812C90.4684 96.4982 84.7638 96.9432 81.3478 96.9432V99.2461C98.7355 99.2461 80.6804 99.3149 98.5688 99.2461L98.6153 98.4113L103.092 99.6935L98.4833 100.763C98.4994 100.473 98.5162 100.182 98.5323 99.8918C77.5142 99.9712 103.201 99.9142 81.3478 99.8386V100.79ZM94.2276 95.0264C92.2551 94.3614 90.2738 93.7107 88.2974 93.1108C85.7894 94.2734 83.2907 95.0065 81.3478 95.0065V96.3501C84.4279 96.3501 89.5375 95.9064 94.2276 95.0264ZM87.3933 92.8399C86.2616 92.5059 85.1319 92.1899 84.0077 91.8992C83.1196 91.6705 82.2346 91.4567 81.3478 91.2621V94.4135C83.0583 94.4135 85.2087 93.8142 87.3933 92.8399ZM81.3478 78.3154C83.3576 78.7045 85.381 79.1762 87.4385 79.7172C90.9765 80.6468 94.6137 81.7822 98.0855 82.9231C98.7473 78.4486 92.1305 76.6297 87.0568 75.4454C86.8522 75.702 86.6484 75.9586 86.4451 76.2145L83.2671 73.7343L88.0973 74.1384L87.5104 74.8759C93.2608 75.9585 100.082 78.4399 99.121 83.2651C101.931 84.1972 104.613 85.12 107.024 85.9257C107.159 85.1033 107.168 84.3937 107.242 83.7225C106.747 83.7231 106.252 83.7231 105.758 83.7244L107.766 80.6747L109.765 83.7207L108.342 83.7213C108.284 84.3949 108.391 85.1739 108.16 86.3031C109.106 86.6148 110.002 86.9036 110.84 87.1627C115.273 88.5347 120.487 88.9747 122.817 89.3937C125.115 89.8064 122.817 89.09 122.817 88.2503V78.9079C122.817 77.8977 124.257 77.3009 122.817 77.0307C114.691 75.5018 104.647 73.9773 98.6605 72.5172C92.1645 70.9332 88.0024 69.4241 82.5476 68.7449C82.1547 68.6966 81.755 68.6519 81.3478 68.6116V78.3154ZM122.817 52.909C122.817 51.786 124.5 51.1396 122.817 51.1396H81.3478V55.9735C82.9287 56.1216 84.4731 56.3181 85.9778 56.5623C93.1766 57.7317 99.4755 59.9943 105.465 61.3522C110.808 62.5637 117.746 63.0545 122.817 63.4673C124.001 63.5646 122.817 63.5299 122.817 62.3865C122.817 59.664 122.817 53.665 122.817 52.909ZM62.7665 90.4025C59.4614 90.8364 56.8368 91.6228 53.7537 92.4458C58.5901 95.0357 69.9026 96.3501 75.2026 96.3501V95.0065C71.9732 95.0065 67.2062 92.9819 63.4122 90.3201C63.2021 90.3468 62.9871 90.3734 62.7665 90.4025ZM52.6134 92.7452C50.1066 93.3909 47.2361 94.0354 43.4588 94.5281C34.2595 95.7285 29.935 96.259 22.3433 95.8444C16.138 95.5061 7.26781 95.2495 2.03977 95.009C-0.618867 94.8875 2.03977 95.1181 2.03977 96.9072C2.03977 99.6123 2.03977 102.317 2.03977 105.023C2.03977 106.159 0.269205 106.882 2.03977 107.2C8.31639 108.328 17.6936 108.476 24.2553 108.466C29.1307 108.458 34.8228 107.708 43.1632 106.432C51.5041 105.156 55.5671 103.245 62.3326 102.101C69.0976 100.956 70.9419 100.866 75.2026 100.722V99.8386C53.3503 99.9142 60.4803 99.9712 39.4628 99.8918C39.4783 100.182 39.495 100.473 39.5111 100.763L34.9028 99.6935L39.3791 98.4113L39.4256 99.2461C57.3141 99.3149 57.8148 99.2461 75.2026 99.2461V96.9432C69.5729 96.9432 57.7262 95.7347 52.6134 92.7452ZM75.2026 94.4135V90.2346C71.7104 89.851 69.506 89.6236 64.4713 90.1931C67.9647 92.6181 72.2421 94.4135 75.2026 94.4135ZM62.9697 77.4093C69.1118 76.7121 71.1551 76.9767 75.2026 77.3938V68.334C71.3534 68.3415 68.6985 68.4332 62.3017 69.2736C55.9042 70.1133 52.4256 71.2201 42.6965 72.2389C32.9667 73.2571 27.3496 74.403 19.7573 73.9878C13.2272 73.6308 6.43613 72.9113 2.03977 72.1416C-0.0468568 71.776 2.03977 72.4075 2.03977 73.1475V80.037C2.03977 82.2463 0.300191 83.0123 2.03977 83.1505C8.18005 83.6364 18.014 84.39 24.2553 84.3404C29.6438 84.2983 34.8228 83.5831 43.3466 82.0437C45.3235 81.6873 47.0619 81.2901 48.6472 80.8823L48.7847 80.6747L48.8814 80.8216C53.3311 79.6633 56.5883 78.4245 60.5992 77.7378C62.9133 76.3391 66.1154 75.4268 69.0399 74.8759L68.4537 74.1384L73.2845 73.7343L70.1059 76.2145C69.902 75.9586 69.6981 75.702 69.4942 75.4454C67.3747 75.9406 64.9857 76.546 62.9697 77.4093ZM75.2026 55.6376V51.1396H45.4797C45.4301 51.1409 45.3806 51.1409 45.3316 51.1396H33.9255H33.9137H2.03977C0.32746 51.1396 2.03977 51.6621 2.03977 53.2312V58.6378C2.03977 59.247 0.613155 59.8016 2.03977 60.083C7.59502 61.178 14.8409 62.2092 21.6691 62.4838C29.1486 62.7856 33.5295 61.1117 42.5837 59.7539C51.638 58.3967 55.4066 57.1139 62.0197 56.3367C68.6341 55.5583 70.9971 55.5664 75.2026 55.6376Z" fill="black" fill-opacity="0.5"/>
<path fill-rule="evenodd" clip-rule="evenodd" d="M71.7764 41.5054L77.3651 44.8805L70.3745 49.1405H70.2673L71.7764 41.5054ZM81.3481 122.897H75.2029V51.1397H67.0559V49.1405H69.3613L75.7247 16.9475C74.2293 16.091 73.2216 14.4797 73.2216 12.6335C73.2216 9.88999 75.4458 7.66577 78.1893 7.66577C80.9329 7.66577 83.1571 9.88999 83.1571 12.6335C83.1571 14.4723 82.1575 16.078 80.6726 16.9369L87.0384 49.1405H89.3432V51.1397H81.3481V122.897ZM86.1225 49.0946L79.1375 44.8761L84.6277 41.5309L86.1225 49.0946ZM84.2422 39.5818L78.8791 34.9952L82.6898 31.7261L84.2422 39.5818ZM82.207 29.285L78.651 24.8645L80.7928 22.1284L82.207 29.285ZM80.5077 20.6856H75.892L76.5557 17.3261C77.0676 17.504 77.6173 17.6013 78.1893 17.6013C78.7688 17.6013 79.3253 17.5015 79.8421 17.3193L80.5077 20.6856ZM75.5685 22.3199L77.6248 24.8757L74.1983 29.2541L75.5685 22.3199ZM73.7112 31.7193L77.543 34.9971L72.1488 39.6239L73.7112 31.7193ZM72.1396 49.1405L78.2519 45.4159L84.4189 49.1405H72.1396ZM81.9344 30.2319H74.4499L78.141 25.5164L81.9344 30.2319ZM76.3605 22.0181H79.8614L78.1354 24.2237L76.3605 22.0181ZM83.5271 40.1148H72.9105L78.211 35.5678L83.5271 40.1148ZM74.867 31.5644H81.5446L78.211 34.4238L74.867 31.5644ZM73.4596 41.4472H83.0003L78.2513 44.3413L73.4596 41.4472ZM78.1664 9.35017C80.0076 9.35017 81.4999 10.8431 81.4999 12.6844C81.4999 14.5262 80.0076 16.0185 78.1664 16.0185C76.3246 16.0185 74.8322 14.5262 74.8322 12.6844C74.8322 10.8431 76.3246 9.35017 78.1664 9.35017Z" fill="black" fill-opacity="0.2"/>
<path fill-rule="evenodd" clip-rule="evenodd" d="M78.618 94.414H79.7162V107.474H76.7545V94.414H78.0374V51.139H78.4904V94.414H78.618ZM68.4538 74.1384L73.284 73.7343L70.106 76.2151C69.9021 75.9585 69.6982 75.7019 69.4944 75.446C64.2149 76.6774 57.2622 78.5967 58.5803 83.4802C59.8985 88.3636 69.7695 94.414 75.2027 94.414C75.2027 95.0071 75.2027 94.4141 75.2027 95.0071C69.4423 95.0071 58.7879 88.5644 57.4945 83.5514C56.2006 78.5378 63.1774 75.9796 69.0401 74.8758L68.4538 74.1384ZM46.7856 83.7206L48.7843 80.674L50.7934 83.7243C50.2989 83.7237 49.8037 83.7231 49.3092 83.7225C49.5 85.4626 49.2559 87.4681 51.904 91.0086C54.5521 94.5498 68.998 96.3501 75.2027 96.3501C75.2027 96.9426 75.2021 96.5174 75.2027 96.9425C68.6243 96.9425 53.5556 95.2941 50.6633 91.0799C47.7716 86.8658 48.3257 85.0778 48.2085 83.7218L46.7856 83.7206ZM50.3187 117.192L52.0694 120.238L53.8282 117.188C53.395 117.188 52.9619 117.189 52.5287 117.189C52.696 115.449 52.4822 113.444 54.8006 109.903C57.1196 106.362 69.7695 104.562 75.2027 104.562C75.2027 103.969 75.2021 104.395 75.2027 103.969C69.4423 103.969 56.247 105.618 53.7142 109.832C51.182 114.046 51.6672 115.834 51.565 117.19L50.3187 117.192ZM42.9198 107.414L40.8189 110.36L45.333 109.123C45.0355 108.912 44.7374 108.701 44.4393 108.49C46.4404 107.377 48.2476 106.978 55.6038 105.001C62.9606 103.024 69.7695 102.114 75.2027 102.114C75.2027 101.521 75.2021 101.947 75.2027 101.521C69.4423 101.521 63.5809 102.008 55.1017 104.371C46.6232 106.732 45.3169 107.14 43.7769 108.021L42.9198 107.414ZM39.3793 98.4113L34.9029 99.6935L39.5113 100.763C39.4945 100.473 39.4784 100.182 39.4623 99.8918C60.4804 99.9711 53.3498 99.9135 75.2027 99.8391C75.2027 99.2461 75.2021 99.6718 75.2027 99.246C57.815 99.246 57.3142 99.3155 39.4263 99.246L39.3793 98.4113ZM88.0974 74.1384L83.2666 73.7343L86.4446 76.2151C86.6491 75.9585 86.853 75.7019 87.0569 75.446C92.3358 76.6774 99.2885 78.5967 97.9703 83.4802C96.6521 88.3636 86.7817 94.414 81.3486 94.414C81.3486 95.0071 81.3486 94.4141 81.3486 95.0071C87.1083 95.0071 97.7627 88.5644 99.0567 83.5514C100.351 78.5378 93.3738 75.9796 87.5105 74.8758L88.0974 74.1384ZM109.765 83.7206L107.766 80.674L105.757 83.7243C106.252 83.7237 106.747 83.7231 107.241 83.7225C107.051 85.4626 107.295 87.4681 104.647 91.0086C101.999 94.5498 87.5527 96.3501 81.3486 96.3501C81.3486 96.9426 81.3486 96.5174 81.3486 96.9425C87.9264 96.9425 102.996 95.2941 105.887 91.0799C108.78 86.8658 108.225 85.0778 108.342 83.7218L109.765 83.7206ZM106.232 117.192L104.482 120.238L102.722 117.188C103.156 117.188 103.589 117.189 104.022 117.189C103.855 115.449 104.068 113.444 101.75 109.903C99.4316 106.362 86.7817 104.562 81.3486 104.562C81.3486 103.969 81.3486 104.395 81.3486 103.969C87.1083 103.969 100.304 105.618 102.836 109.832C105.369 114.046 104.883 115.834 104.986 117.19L106.232 117.192ZM113.631 107.414L115.732 110.36L111.218 109.123C111.516 108.912 111.814 108.701 112.111 108.49C110.111 107.377 108.303 106.978 100.947 105.001C93.5907 103.024 86.7817 102.114 81.3486 102.114C81.3486 101.521 81.3486 101.947 81.3486 101.521C87.1083 101.521 92.9703 102.008 101.449 104.371C109.928 106.732 111.234 107.14 112.774 108.021L113.631 107.414ZM98.6155 98.4113L103.092 99.6935L98.4835 100.763C98.5002 100.473 98.5163 100.182 98.5324 99.8918C77.5149 99.9711 103.201 99.9135 81.3486 99.8391C81.3486 99.2461 81.3486 99.6718 81.3486 99.246C98.7363 99.246 80.6805 99.3155 98.5684 99.246L98.6155 98.4113ZM38.7019 40.872C39.22 40.8738 40.6757 40.7734 41.0054 40.9965C41.3946 41.2599 41.301 42.5241 41.2266 43.1166L38.7137 43.1197L38.7019 40.872ZM53.7632 44.2866L72.9388 11.643C73.0423 9.15049 75.5782 7.25537 78.3844 7.25537V7.66939C76.3207 8.053 73.8386 9.40954 73.2778 11.8624C73.2778 11.9882 72.9934 12.1128 73.0027 12.2361L53.9379 44.7775L53.7662 44.6795L53.7997 48.8125H51.4801L50.8461 46.8455C50.4445 46.2908 50.152 45.9921 49.4796 45.883C49.0662 45.8161 48.568 45.9184 48.1484 46.0163C47.6012 46.144 47.4488 46.2809 47.1029 46.659C46.9158 46.9763 46.7299 47.091 46.6047 47.6599C46.583 47.7572 46.3041 48.7816 46.2898 48.8125C45.9713 48.9328 41.7882 48.9352 41.4783 48.8156C41.3519 48.4023 41.4138 48.5126 41.2657 47.9778C41.0606 47.707 40.9509 46.2264 39.2776 45.9221C38.4806 45.7771 37.7165 46.0833 37.269 46.4749C36.4051 47.231 36.697 47.9307 36.3618 48.0565C36.2056 47.79 36.2657 46.548 36.4083 46.2419C36.6481 45.7256 37.0794 45.6389 37.8243 45.6464L41.5786 45.6321C41.7286 45.6029 41.6573 45.6259 41.7491 45.5683C41.723 45.2033 41.8817 45.3011 40.8902 45.3036L37.543 45.3011C36.8204 45.3049 36.368 45.5534 36.1009 46.0721C35.7997 46.6571 36.0153 47.3574 35.9211 48.0428C32.9185 48.3447 33.3208 47.6189 33.3177 45.6376C33.3158 44.0809 33.7056 42.8507 34.1376 41.3888C34.4834 40.2163 35.1056 40.7889 35.6398 40.3173C36.0897 39.92 36.9425 40.0601 37.8944 40.0595C41.9982 40.0595 40.2283 40.0236 41.2427 40.546C53.7328 40.546 41.2428 40.546 53.7328 40.546L53.7632 44.2866ZM78.3869 9.35815V16.0109C78.3137 16.0159 78.24 16.0184 78.1663 16.0184C78.1074 16.0184 78.0491 16.0171 77.9915 16.014V9.355C78.0491 9.35191 78.1074 9.35004 78.1663 9.35004C78.24 9.35004 78.3137 9.35319 78.3869 9.35815ZM78.3869 17.5968V20.6855H77.9915V17.5968C78.0572 17.5999 78.1228 17.6011 78.1891 17.6011C78.2555 17.6011 78.3212 17.5999 78.3869 17.5968ZM78.3869 22.0179V23.9019L78.1353 24.2235L77.9915 24.0451V22.0179H78.3869ZM78.3869 25.8225V30.2318H77.9915V25.7072L78.1409 25.5163L78.3869 25.8225ZM78.3869 31.5642V34.2725L78.2109 34.4237L77.9915 34.2359V31.5642H78.3869ZM78.3869 35.7183V40.1147H77.9915V35.7561L78.2109 35.5677L78.3869 35.7183ZM78.3869 41.4471V44.2581L78.2511 44.3412L77.9915 44.1844V41.4471H78.3869ZM78.3869 45.4976V49.1404H77.9915V45.5745L78.2518 45.4158L78.3869 45.4976ZM34.3086 43.0992C34.3303 42.7621 34.5261 42.1728 34.6296 41.8276C34.7808 41.3206 34.8391 41.0418 35.3113 40.9085C35.6968 40.8001 37.8436 40.8701 38.4137 40.8664C38.5116 41.211 38.4806 42.6964 38.4373 43.1172L34.3086 43.0992ZM48.4266 46.8071C50.3131 46.1774 51.2018 48.9514 49.3947 49.6176C47.5609 50.2937 46.4807 47.4572 48.4266 46.8071ZM48.4973 46.1074C45.5995 46.7054 46.5712 50.8979 49.3445 50.3148C52.0701 49.7415 51.2334 45.5422 48.4973 46.1074ZM38.3877 46.799C40.2958 46.2165 41.13 48.9352 39.3638 49.6083C37.4835 50.3247 36.456 47.389 38.3877 46.799ZM38.4124 46.1192C35.5394 46.7866 36.6109 50.8923 39.2931 50.3129C40.3677 50.0811 41.205 49.0666 40.9366 47.7422C40.7334 46.7364 39.6631 45.8292 38.4124 46.1192ZM39.9736 48.6335C40.2599 47.9505 39.7523 47.2694 39.3092 47.089C38.6071 46.8021 37.9136 47.2316 37.7171 47.7596C37.1637 49.2457 39.3353 50.1543 39.9736 48.6335ZM48.4465 47.1095C47.7183 47.446 47.5175 48.1147 47.7865 48.7047C48.0083 49.1906 48.6491 49.6467 49.3767 49.3164C50.8008 48.6694 49.8551 46.4575 48.4465 47.1095Z" fill="black"/>
<defs>
<linearGradient id="paint0_linear_30_53" x1="122.814" y1="87.0185" x2="2.18555" y2="87.0185" gradientUnits="userSpaceOnUse">
<stop stop-color="#00C7D4"/>
<stop offset="1" stop-color="#02E7BD"/>
</linearGradient>
</defs>
</svg>
