<svg width="326" height="137" viewBox="0 0 326 137" fill="none" xmlns="http://www.w3.org/2000/svg">
<path d="M23.3008 50.6444C23.3012 50.6336 23.3007 50.6228 23.2988 50.6127C23.3021 50.6209 23.3022 50.6327 23.3008 50.6444C23.3003 50.6556 23.2989 50.6667 23.297 50.6766C23.295 50.6868 23.2885 50.6953 23.2863 50.7051C23.2851 50.7103 23.2861 50.7025 23.2862 50.7007C23.2864 50.6924 23.2919 50.6853 23.2941 50.6773C23.2964 50.669 23.2994 50.6567 23.3008 50.6444Z" fill="white"/>
<path fill-rule="evenodd" clip-rule="evenodd" d="M23.8823 43.3716C24.5717 42.6525 25.7057 42.6693 26.3726 43.4105C27.9127 45.1226 32.167 49.9966 36.2577 55.9938C40.3283 61.9617 44.324 69.1651 45.2171 75.5154C46.2232 82.6697 44.1278 87.8513 40.3218 91.264C36.5564 94.6404 31.2257 96.1887 25.8994 96.3549C20.4374 96.5253 14.8037 95.421 10.7656 92.17C6.67181 88.8743 4.37807 83.5044 5.3783 75.5282C6.26443 68.4619 10.1603 61.2061 14.1535 55.3692C18.1599 49.5131 22.3326 44.9882 23.8823 43.3716ZM13.7307 67.8869L12.9544 69.5426C11.6616 72.2235 11.1674 74.1805 10.8321 76.8562C10.1294 82.4637 11.7498 85.7717 14.1699 87.7215C15.7625 89.0046 17.8335 89.8076 20.1399 90.1959C20.3052 90.2028 20.4729 90.2102 20.6428 90.2176L20.6429 90.2176L20.644 90.2177C23.3587 90.3364 26.6275 90.4794 29.3561 89.5552C30.8097 89.0628 31.7867 88.4916 32.4175 87.0957C32.8122 86.2221 32.1693 84.3241 31.6812 83.8388C29.8502 82.2565 27.2152 80.3598 23.5547 78.1137C21.1084 76.6126 19.3162 75.2679 18.0994 74.0545C16.929 72.8874 16.0639 71.6187 15.9601 70.2606C15.8397 68.6869 16.7535 67.5811 17.8103 66.9407C18.805 66.3379 20.0793 66.0245 21.3366 65.8679C23.8877 65.55 27.0582 65.7976 29.7078 66.4196C31.0362 66.7315 32.3127 67.1556 33.352 67.6996C34.3129 68.2027 35.423 68.9892 35.8603 70.201C35.8782 70.2506 35.8937 70.3005 35.9068 70.3505C35.6497 70.1967 35.3227 70.0102 35.1664 69.9326C35.1664 69.9326 34.4332 69.6501 33.8803 69.4211C33.2938 69.1781 32.4226 68.9096 32.4226 68.9096C31.7367 68.6823 29.8506 68.398 29.8506 68.398C29.8506 68.398 26.7635 67.9718 26.5063 67.9718H24.0197C23.3052 67.9718 20.9081 68.3313 19.9038 69.1653C19.8589 69.2026 19.819 69.2355 19.7835 69.2648L19.7825 69.2656L19.7816 69.2663C19.5885 69.4257 19.5264 69.4769 19.492 69.5426C19.4757 69.5738 19.4656 69.6082 19.4508 69.659C19.4373 69.7051 19.4199 69.7646 19.3904 69.8473C19.3131 70.0636 19.4508 70.3841 19.5623 70.5736C19.7197 70.841 20.0598 71.1122 20.5623 71.6132C21.5099 72.5582 23.0489 73.74 25.3812 75.1712C31.0434 78.6455 34.6381 81.4969 36.6104 83.8699C37.5985 85.0588 38.2775 86.2429 38.5213 87.4267C38.7799 88.6825 38.5269 89.8529 37.8162 90.8211C37.1514 91.7269 36.1791 92.3318 35.1923 92.7486C34.1905 93.1716 33.041 93.4566 31.8594 93.6468C29.5214 94.0232 26.8415 94.0622 24.4421 93.9218C20.0592 94.0462 15.3944 93.1586 11.9803 90.4079C8.43435 87.551 6.56333 82.9537 7.38097 76.4287C8.19779 69.9102 12.1156 63.2904 15.6591 58.4307C17.4523 55.9714 19.1947 53.9029 20.4891 52.4484C21.137 51.7204 21.6744 51.1444 22.0521 50.7481C22.2409 50.5499 22.39 50.3966 22.4931 50.2915C22.5446 50.239 22.5847 50.1985 22.6125 50.1705C22.6264 50.1565 22.6373 50.1456 22.645 50.1379L22.6542 50.1288L22.6579 50.1251C22.6579 50.1251 22.6582 50.1248 22.7473 50.2134L22.4766 50.7517L22.1336 51.3485L21.5334 52.4567L19.99 55.1847L18.8753 57.1455L17.4177 59.9587L16.646 61.5784L15.8743 63.2834L15.1026 64.8179L14.3309 66.4376L13.7307 67.8869ZM22.6585 50.1245L22.7475 50.2131L22.8888 49.932C22.808 49.9885 22.7309 50.0527 22.6585 50.1245Z" fill="white"/>
<path fill-rule="evenodd" clip-rule="evenodd" d="M26.3889 36.5412C25.731 35.8431 24.6342 35.8115 23.9437 36.4979C22.1684 38.2624 16.8374 43.7477 11.6659 50.9373C6.50973 58.1054 1.43478 67.0724 0.295399 75.7887C-0.971315 85.4791 1.93766 91.961 7.07042 95.9252C12.1401 99.8406 19.2291 101.182 26.1353 100.975C32.8622 100.774 39.5722 98.8982 44.3039 94.8279C49.0819 90.7179 51.7361 84.4594 50.4631 75.7754C49.3167 67.9551 44.1218 59.0501 38.8683 51.7117C33.592 44.3413 28.1579 38.4182 26.3889 36.5412ZM13.0803 51.943C18.147 44.8991 23.3757 39.5092 25.1444 37.7492C26.9127 39.6269 32.263 45.4663 37.4516 52.7142C42.6871 60.0276 47.6603 68.6432 48.7424 76.0247C49.9388 84.186 47.4503 89.8353 43.1662 93.5205C38.8359 97.2455 32.5643 99.0529 26.083 99.2469C19.3797 99.4475 12.7583 98.1289 8.13717 94.5598C3.57916 91.0396 0.81708 85.2123 2.0198 76.0115C3.10256 67.7283 7.97035 59.0469 13.0803 51.943Z" fill="white"/>
<path d="M256.733 96.0576H266.31V100.56H249.695V96.5258L258.474 87.809C260.36 85.936 261.013 84.8554 261.013 83.1625C261.013 81.3254 259.816 80.2088 257.93 80.2088C255.753 80.2088 254.592 81.5416 254.592 84.2791H249.586C249.586 78.8401 252.778 75.7063 257.93 75.7063C262.827 75.7063 266.238 78.696 266.238 82.8383C266.238 86.008 264.968 87.845 261.775 91.0148L256.733 96.0576Z" fill="white"/>
<path d="M277.821 100.92C271.944 100.92 268.57 96.3457 268.57 88.3133C268.57 80.2809 271.944 75.7063 277.821 75.7063C283.698 75.7063 287.072 80.2809 287.072 88.3133C287.072 96.3457 283.698 100.92 277.821 100.92ZM277.821 96.4178C280.542 96.4178 281.848 93.8243 281.848 88.3133C281.848 82.8023 280.542 80.2088 277.821 80.2088C275.1 80.2088 273.794 82.8023 273.794 88.3133C273.794 93.8243 275.1 96.4178 277.821 96.4178Z" fill="white"/>
<path d="M296.324 96.0576H305.902V100.56H289.286V96.5258L298.066 87.809C299.952 85.936 300.605 84.8554 300.605 83.1625C300.605 81.3254 299.408 80.2088 297.522 80.2088C295.345 80.2088 294.184 81.5416 294.184 84.2791H289.178C289.178 78.8401 292.37 75.7063 297.522 75.7063C302.419 75.7063 305.829 78.696 305.829 82.8383C305.829 86.008 304.56 87.845 301.367 91.0148L296.324 96.0576Z" fill="white"/>
<path d="M317.957 83.9549C322.565 83.9549 325.939 87.2327 325.939 92.0954C325.939 97.2822 322.093 100.92 316.869 100.92C312.044 100.92 308.416 97.7865 307.908 93.284H313.168C313.495 95.1931 314.837 96.4178 316.869 96.4178C319.263 96.4178 320.714 94.7969 320.714 92.3835C320.714 89.9702 319.263 88.2773 316.869 88.2773C315.381 88.2773 314.003 89.0337 313.422 90.2944H308.489L310.194 76.0665H324.27V80.569H314.148L313.604 85.1796C314.692 84.3871 316.143 83.9549 317.957 83.9549Z" fill="white"/>
<path d="M71.6601 101C64.6221 101 60.6677 97.7222 60.6677 91.8149V76.1463H65.9644V91.0225C65.9644 94.4804 67.9234 96.2454 71.6601 96.2454C75.4331 96.2454 77.4284 94.4804 77.4284 91.0225V76.1463H82.5437V91.8149C82.5437 97.7222 78.6256 101 71.6601 101Z" fill="white"/>
<path d="M100.567 76.1463C105.428 76.1463 108.476 79.172 108.476 83.9626C108.476 88.7172 105.428 91.7069 100.567 91.7069H91.9325V100.64H86.6358V76.1463H100.567ZM100.023 86.9883C101.982 86.9883 103.07 85.8717 103.07 83.9626C103.07 81.9815 101.982 80.9009 100.023 80.9009H91.9325V86.9883H100.023Z" fill="white"/>
<path d="M132.241 80.9009H117.149V85.9077H131.08V90.6623H117.149V95.8852H132.241V100.64H111.852V76.1463H132.241V80.9009Z" fill="white"/>
<path d="M134.698 100.64L143.586 88.321L134.916 76.1463H141.373L147.105 84.4669L152.946 76.1463H159.186L150.516 88.1409L159.404 100.64H152.946L146.997 91.995L140.938 100.64H134.698Z" fill="white"/>
<path d="M176.393 76.1463C181.255 76.1463 184.302 79.172 184.302 83.9626C184.302 88.7172 181.255 91.7069 176.393 91.7069H167.759V100.64H162.462V76.1463H176.393ZM175.849 86.9883C177.808 86.9883 178.897 85.8717 178.897 83.9626C178.897 81.9815 177.808 80.9009 175.849 80.9009H167.759V86.9883H175.849Z" fill="white"/>
<path d="M203.895 100.64L198.635 91.6709H192.976V100.64H187.679V76.1463H201.61C206.471 76.1463 209.519 79.172 209.519 83.9266C209.519 87.7087 207.596 90.3741 204.403 91.3107L210.099 100.64H203.895ZM192.976 80.9009V86.9162H201.066C202.988 86.9162 204.113 85.8717 204.113 83.9266C204.113 81.9455 202.988 80.9009 201.066 80.9009H192.976Z" fill="white"/>
<path d="M225.184 101C217.747 101 212.305 95.7051 212.305 88.393C212.305 81.081 217.747 75.7861 225.184 75.7861C232.622 75.7861 238.063 81.081 238.063 88.393C238.063 95.7051 232.622 101 225.184 101ZM225.184 96.2454C229.61 96.2454 232.658 93.0396 232.658 88.393C232.658 83.7465 229.61 80.5407 225.184 80.5407C220.758 80.5407 217.711 83.7465 217.711 88.393C217.711 93.0396 220.758 96.2454 225.184 96.2454Z" fill="white"/>
<path d="M69.1037 44.3573H60.4559V36.6926H87.7071V44.3573H79.0593V66.0111H69.1037V44.3573Z" fill="white"/>
<path d="M108.51 60.9013H97.2889L95.3062 66.0111H85.1819L98.0904 36.6926H107.877L120.786 66.0111H110.493L108.51 60.9013ZM105.768 53.7811L102.899 46.4095L100.031 53.7811H105.768Z" fill="white"/>
<path d="M126.882 44.3573H118.234V36.6926H145.485V44.3573H136.837V66.0111H126.882V44.3573Z" fill="white"/>
<path d="M166.288 60.9013H155.067L153.084 66.0111H142.96L155.868 36.6926H165.655L178.563 66.0111H168.27L166.288 60.9013ZM163.546 53.7811L160.677 46.4095L157.809 53.7811H163.546Z" fill="white"/>
<path d="M192.386 58.6396H189.686V66.0111H179.73V36.6926H193.947C196.674 36.6926 199.051 37.1393 201.076 38.0328C203.101 38.9264 204.661 40.2108 205.758 41.8861C206.855 43.5615 207.403 45.516 207.403 47.7498C207.403 49.844 206.925 51.6729 205.969 53.2366C205.013 54.8002 203.635 56.0428 201.835 56.9642L208.036 66.0111H197.406L192.386 58.6396ZM197.364 47.7498C197.364 46.6609 197.026 45.8232 196.351 45.2368C195.676 44.6225 194.664 44.3154 193.314 44.3154H189.686V51.1843H193.314C194.664 51.1843 195.676 50.8911 196.351 50.3047C197.026 49.6904 197.364 48.8388 197.364 47.7498Z" fill="white"/>
<path d="M221.751 66.6812C219.304 66.6812 216.914 66.4159 214.58 65.8854C212.274 65.327 210.375 64.587 208.885 63.6656L212.091 56.4616C213.497 57.2714 215.072 57.9275 216.815 58.4301C218.559 58.9048 220.232 59.1422 221.835 59.1422C223.213 59.1422 224.198 59.0165 224.788 58.7652C225.379 58.486 225.674 58.0811 225.674 57.5506C225.674 56.9363 225.281 56.4756 224.493 56.1684C223.734 55.8613 222.468 55.5262 220.696 55.1632C218.418 54.6885 216.52 54.1859 215.002 53.6554C213.483 53.097 212.161 52.2034 211.036 50.9749C209.911 49.7184 209.349 48.029 209.349 45.9069C209.349 44.0641 209.869 42.3887 210.91 40.8809C211.95 39.3731 213.497 38.1864 215.55 37.3208C217.631 36.4552 220.148 36.0224 223.101 36.0224C225.126 36.0224 227.108 36.2458 229.049 36.6926C231.018 37.1114 232.747 37.7397 234.238 38.5773L231.243 45.7394C228.346 44.2874 225.604 43.5615 223.017 43.5615C220.457 43.5615 219.178 44.1758 219.178 45.4043C219.178 45.9907 219.557 46.4375 220.317 46.7446C221.076 47.0238 222.328 47.331 224.071 47.6661C226.321 48.0849 228.219 48.5735 229.766 49.132C231.313 49.6625 232.649 50.5421 233.774 51.7706C234.927 52.9992 235.503 54.6746 235.503 56.7967C235.503 58.6396 234.983 60.3149 233.942 61.8227C232.902 63.3026 231.341 64.4893 229.26 65.3828C227.207 66.2484 224.704 66.6812 221.751 66.6812Z" fill="white"/>
<path d="M244.044 44.3573H235.396V36.6926H262.647V44.3573H253.999V66.0111H244.044V44.3573Z" fill="white"/>
<path d="M283.45 60.9013H272.229L270.246 66.0111H260.122L273.031 36.6926H282.817L295.726 66.0111H285.433L283.45 60.9013ZM280.708 53.7811L277.84 46.4095L274.971 53.7811H280.708Z" fill="white"/>
<path d="M326 36.6926V66.0111H317.816L306.595 52.6921V66.0111H296.893V36.6926H305.077L316.298 50.0115V36.6926H326Z" fill="white"/>
</svg>
