<svg width="20" height="20" viewBox="0 0 20 20" fill="none" xmlns="http://www.w3.org/2000/svg">
<path d="M12.9167 11.519L14.8535 12.0701C14.9612 12.1002 15.0604 12.1551 15.1431 12.2305C15.2258 12.3059 15.2895 12.3995 15.3294 12.504C15.3692 12.6085 15.3839 12.7209 15.3723 12.8321C15.3607 12.9433 15.3232 13.0502 15.2627 13.1443C14.8846 13.7365 14.2828 14.4609 13.5305 14.6413C12.2055 14.961 10.1684 14.6493 7.62581 12.2955C5.42522 10.2574 4.84347 8.56094 4.98088 7.21521C5.05812 6.45065 5.70004 5.76225 6.24066 5.30833C6.32643 5.23615 6.4278 5.18482 6.53678 5.15839C6.64577 5.13196 6.75941 5.13114 6.86876 5.156C6.97812 5.18086 7.08021 5.23072 7.16702 5.30166C7.25383 5.37261 7.32298 5.4627 7.36904 5.56485L8.18348 7.39257C8.23608 7.51051 8.25556 7.64052 8.23983 7.76868C8.22411 7.89683 8.17377 8.01829 8.09421 8.12005L7.68098 8.65113C7.59484 8.75987 7.54343 8.89197 7.53341 9.03028C7.5234 9.16859 7.55524 9.30671 7.62481 9.4267C8.11728 10.2774 10.0451 11.9769 10.9608 12.3446C11.0904 12.3958 11.2321 12.4079 11.3685 12.3794C11.5049 12.3509 11.6299 12.2831 11.7281 12.1843L12.2015 11.7053C12.2929 11.6128 12.4075 11.5466 12.5334 11.5138C12.6593 11.481 12.7917 11.4828 12.9167 11.519Z" fill="url(#paint0_linear_96_137)"/>
<path fill-rule="evenodd" clip-rule="evenodd" d="M4.58186e-05 9.94978C-0.0160023 4.66203 4.18559 0.263087 9.51155 0.0125778V0.0115758C15.3641 -0.264987 20.1775 4.4506 19.995 10.2374C19.8255 15.6333 15.2879 19.9201 9.84455 19.8369C8.35311 19.8157 6.88518 19.4624 5.54767 18.8028L0.49854 19.9892C0.435092 20.0045 0.368813 20.0035 0.30583 19.9864C0.242847 19.9694 0.185194 19.9367 0.138203 19.8914C0.0912117 19.8462 0.0563991 19.7898 0.0369842 19.7276C0.0175693 19.6653 0.0141791 19.5992 0.027127 19.5353L1.08831 14.4239C0.375767 13.0398 0.002761 11.5062 4.58186e-05 9.94978ZM12.9953 17.0997C13.9454 16.7094 14.809 16.1355 15.5366 15.4109C17.003 13.9569 17.8305 11.9759 17.8305 9.91972C17.8327 8.89806 17.6309 7.88622 17.237 6.94337C16.8432 6.00052 16.2651 5.14559 15.5366 4.42856C14.0582 2.96157 12.0923 2.15393 10 2.15393C7.92655 2.15457 5.93704 2.9723 4.46342 4.42956C2.98499 5.89554 2.17055 7.84651 2.17055 9.92073C2.16599 11.1467 2.45777 12.3557 3.0211 13.4449L3.36814 14.1183L2.71619 17.2556L5.81247 16.5282L6.51557 16.8759C7.59887 17.411 8.79153 17.6881 10 17.6855C11.0273 17.6891 12.0452 17.4901 12.9953 17.0997Z" fill="url(#paint1_linear_96_137)"/>
<defs>
<linearGradient id="paint0_linear_96_137" x1="20" y1="10" x2="-8.04521e-08" y2="10" gradientUnits="userSpaceOnUse">
<stop stop-color="#00C7D4"/>
<stop offset="1" stop-color="#02E7BD"/>
</linearGradient>
<linearGradient id="paint1_linear_96_137" x1="20" y1="10" x2="-8.04521e-08" y2="10" gradientUnits="userSpaceOnUse">
<stop stop-color="#00C7D4"/>
<stop offset="1" stop-color="#02E7BD"/>
</linearGradient>
</defs>
</svg>
